<svg width="40" height="40" viewBox="0 0 40 40" fill="none" xmlns="http://www.w3.org/2000/svg">
<path d="M19.1533 9.89337C19.2502 9.98623 19.327 10.0965 19.3794 10.2179C19.4318 10.3393 19.4588 10.4694 19.4588 10.6008C19.4588 10.7322 19.4318 10.8623 19.3794 10.9837C19.327 11.1051 19.2502 11.2154 19.1533 11.3083L11.5559 18.6003L31.9576 18.6003C32.2338 18.6003 32.4988 18.7056 32.6941 18.8932C32.8895 19.0807 32.9992 19.335 32.9992 19.6002C32.9992 19.8654 32.8895 20.1197 32.6941 20.3073C32.4988 20.4948 32.2338 20.6001 31.9576 20.6001L11.5559 20.6001L19.1533 27.8922C19.3488 28.0798 19.4586 28.3343 19.4586 28.5996C19.4586 28.865 19.3488 29.1194 19.1533 29.3071C18.9579 29.4947 18.6928 29.6001 18.4164 29.6001C18.1399 29.6001 17.8748 29.4947 17.6794 29.3071L8.3047 20.3077C8.20786 20.2148 8.13103 20.1045 8.07861 19.9831C8.02619 19.8617 7.99921 19.7316 7.99921 19.6002C7.99921 19.4688 8.02619 19.3387 8.07861 19.2173C8.13103 19.0959 8.20786 18.9856 8.3047 18.8928L17.6794 9.89337C17.7761 9.8004 17.891 9.72664 18.0175 9.67632C18.1439 9.626 18.2795 9.6001 18.4164 9.6001C18.5532 9.6001 18.6888 9.626 18.8152 9.67632C18.9417 9.72664 19.0566 9.8004 19.1533 9.89337Z" fill="#020302"/>
</svg>
