<svg width="274" height="190" viewBox="0 0 274 190" fill="none" xmlns="http://www.w3.org/2000/svg">
<g clip-path="url(#clip0_1_11652)">
<path d="M151.759 104.739H96.9711C96.2864 104.731 95.6324 104.453 95.1511 103.966C94.6698 103.479 94.3999 102.822 94.3999 102.137V93.226C94.3999 92.5412 94.6698 91.8841 95.1511 91.397C95.6324 90.9099 96.2864 90.6322 96.9711 90.6241H137.653C137.995 90.6275 138.334 90.5627 138.651 90.4334C138.968 90.3041 139.255 90.113 139.497 89.8712C139.739 89.6294 139.93 89.3417 140.059 89.0251C140.189 88.7085 140.253 88.3693 140.25 88.0273V60.8206C140.25 60.1884 140.02 59.5779 139.602 59.1031L110.614 26.2246C110.44 26.0252 110.21 25.8837 109.953 25.8192C109.697 25.7546 109.426 25.7702 109.179 25.8637C108.931 25.9572 108.719 26.1241 108.569 26.3422C108.419 26.5602 108.34 26.8188 108.341 27.0834V57.2622C108.341 57.9523 108.067 58.6141 107.579 59.1021C107.091 59.59 106.429 59.8641 105.739 59.8641H96.9711C96.286 59.8574 95.6312 59.5801 95.1496 59.0927C94.668 58.6054 94.3985 57.9474 94.3999 57.2622V2.60189C94.3985 1.91673 94.668 1.25879 95.1496 0.771428C95.6312 0.284065 96.286 0.00678237 96.9711 0L151.615 0C152.305 0 152.967 0.274127 153.455 0.762077C153.943 1.25003 154.217 1.91183 154.217 2.60189V11.5131C154.216 12.2023 153.941 12.8628 153.453 13.3496C152.965 13.8365 152.304 14.1099 151.615 14.1099H122.56C122.31 14.1086 122.065 14.1797 121.854 14.3147C121.643 14.4497 121.476 14.6427 121.373 14.8705C121.27 15.0983 121.235 15.3511 121.272 15.5985C121.309 15.8458 121.417 16.0771 121.583 16.2644L153.615 52.7989C154.034 53.2698 154.267 53.8762 154.273 54.5061L154.371 102.132C154.373 102.475 154.306 102.815 154.175 103.133C154.044 103.45 153.852 103.738 153.609 103.98C153.366 104.223 153.077 104.415 152.76 104.545C152.442 104.675 152.102 104.741 151.759 104.739Z" fill="#020302"/>
<path d="M249.177 52.367L249.285 102.132C249.289 102.474 249.225 102.814 249.096 103.131C248.967 103.449 248.776 103.737 248.534 103.979C248.292 104.222 248.004 104.413 247.687 104.543C247.37 104.672 247.031 104.737 246.688 104.734H192.055C191.713 104.735 191.374 104.668 191.058 104.537C190.742 104.407 190.455 104.215 190.214 103.973C189.972 103.732 189.78 103.445 189.65 103.129C189.519 102.813 189.452 102.474 189.453 102.132L189.561 52.367L189.504 30.0761L203.564 14.1356V88.0222C203.564 88.7123 203.838 89.3741 204.326 89.862C204.814 90.35 205.476 90.6241 206.166 90.6241H232.578C233.267 90.6227 233.927 90.348 234.414 89.8602C234.901 89.3724 235.174 88.7114 235.174 88.0222V16.7118C235.178 16.3698 235.113 16.0306 234.984 15.714C234.854 15.3974 234.663 15.1098 234.421 14.8679C234.18 14.6261 233.892 14.435 233.575 14.3057C233.259 14.1764 232.92 14.1116 232.578 14.115H203.564L215.983 0H246.668C247.01 -2.68106e-06 247.348 0.0675036 247.664 0.198645C247.98 0.329787 248.267 0.521982 248.508 0.764204C248.749 1.00642 248.94 1.2939 249.07 1.61014C249.2 1.92638 249.266 2.26516 249.265 2.60704L249.177 52.367Z" fill="#020302"/>
<path d="M81.2764 90.7012H72.3851C70.965 90.7012 69.8138 91.8523 69.8138 93.2722V102.163C69.8138 103.583 70.965 104.734 72.3851 104.734H81.2764C82.6964 104.734 83.8476 103.583 83.8476 102.163V93.2722C83.8476 91.8523 82.6964 90.7012 81.2764 90.7012Z" fill="#020302"/>
<path d="M176.35 90.7012H167.459C166.039 90.7012 164.887 91.8523 164.887 93.2722V102.163C164.887 103.583 166.039 104.734 167.459 104.734H176.35C177.77 104.734 178.921 103.583 178.921 102.163V93.2722C178.921 91.8523 177.77 90.7012 176.35 90.7012Z" fill="#020302"/>
<path d="M271.424 90.7012H262.532C261.112 90.7012 259.961 91.8523 259.961 93.2722V102.163C259.961 103.583 261.112 104.734 262.532 104.734H271.424C272.844 104.734 273.995 103.583 273.995 102.163V93.2722C273.995 91.8523 272.844 90.7012 271.424 90.7012Z" fill="#020302"/>
<path d="M1.30095 78.2626H42.4405C42.7804 78.2626 43.1168 78.3299 43.4305 78.4607C43.7441 78.5915 44.0287 78.7832 44.2678 79.0247C44.5069 79.2662 44.6958 79.5526 44.8235 79.8675C44.9512 80.1824 45.0152 80.5195 45.0118 80.8593V102.137C45.0131 102.826 45.2879 103.487 45.7757 103.974C46.2636 104.461 46.9246 104.734 47.6138 104.734H56.6697C57.0112 104.735 57.3494 104.668 57.6651 104.538C57.9808 104.408 58.2677 104.216 58.5093 103.975C58.751 103.734 58.9428 103.448 59.0736 103.132C59.2044 102.817 59.2718 102.479 59.2718 102.137V2.59681C59.265 1.91168 58.9877 1.257 58.5003 0.775412C58.0129 0.293828 57.3549 0.0243743 56.6697 0.0257646H47.7733C47.4313 0.0223275 47.092 0.0871474 46.7754 0.216429C46.4588 0.345711 46.1711 0.536857 45.9293 0.778676C45.6875 1.02049 45.4963 1.30813 45.367 1.62473C45.2377 1.94134 45.1729 2.28055 45.1763 2.62252V61.5508C45.175 62.2405 44.9004 62.9015 44.4127 63.3891C43.925 63.8768 43.2639 64.1513 42.5742 64.1527H20.9348C20.7257 64.1519 20.5198 64.1009 20.3345 64.0039C20.1491 63.907 19.9898 63.7669 19.8699 63.5956C19.7499 63.4243 19.6729 63.2267 19.6452 63.0194C19.6176 62.8121 19.6401 62.6012 19.7109 62.4044L30.9523 31.5519C31.0233 31.3554 31.046 31.1447 31.0184 30.9376C30.9907 30.7305 30.9136 30.5331 30.7936 30.3621C30.6735 30.1912 30.514 30.0516 30.3286 29.9553C30.1432 29.8589 29.9373 29.8087 29.7284 29.8087H18.7441C18.2597 29.8069 17.7863 29.9539 17.3881 30.2298C16.9899 30.5057 16.686 30.8972 16.5175 31.3513L0.0616161 76.5297C-0.00778981 76.7268 -0.0286729 76.9378 0.000734488 77.1447C0.0301419 77.3516 0.108974 77.5484 0.230558 77.7184C0.352142 77.8885 0.512898 78.0267 0.699218 78.1214C0.885539 78.2161 1.09194 78.2645 1.30095 78.2626Z" fill="#020302"/>
<path d="M97.7065 129.807V134.07C98.9887 131.224 101.167 129.803 104.243 129.807H107.59V132.851H104.345C101.778 132.851 100.063 133.612 99.2029 135.134C98.3424 136.656 97.895 139.342 97.8608 143.192V152.622H94.3639V129.807H97.7065Z" fill="#020302"/>
<path d="M108.722 141.268C108.722 137.714 109.75 134.832 111.807 132.625C113.864 130.417 116.72 129.31 120.374 129.303C122.271 129.258 124.151 129.674 125.851 130.516C127.304 131.237 128.538 132.332 129.425 133.689C130.2 134.871 130.775 136.172 131.127 137.54C131.411 138.659 131.563 139.806 131.58 140.96C131.58 141.452 131.547 141.943 131.482 142.431H112.321C112.353 144.538 113.146 146.564 114.553 148.133C115.9 149.573 117.865 150.288 120.431 150.288C121.449 150.304 122.462 150.142 123.424 149.809C124.187 149.562 124.887 149.151 125.476 148.606C125.918 148.172 126.317 147.697 126.669 147.187C126.92 146.831 127.123 146.443 127.276 146.035L127.43 145.521H131.132C131.096 145.721 131.035 145.994 130.952 146.328C130.733 146.967 130.443 147.579 130.089 148.154C129.61 149.018 129.003 149.806 128.289 150.488C127.367 151.291 126.3 151.91 125.147 152.314C123.622 152.877 122.005 153.151 120.38 153.121C116.8 153.121 113.962 152.057 111.864 149.928C109.766 147.799 108.718 144.912 108.722 141.268ZM112.321 139.541H127.985V139.237C127.992 137.396 127.284 135.625 126.011 134.296C124.691 132.866 122.831 132.152 120.431 132.152C117.966 132.152 116.048 132.875 114.677 134.321C113.302 135.73 112.468 137.578 112.321 139.541Z" fill="#020302"/>
<path d="M137.818 132.548C139.977 130.384 142.892 129.303 146.56 129.303C148.228 129.275 149.889 129.523 151.476 130.038C152.657 130.391 153.746 130.996 154.669 131.812C155.319 132.438 155.905 133.127 156.418 133.869C156.8 134.388 157.084 134.971 157.256 135.592L157.405 136.353H153.605L153.451 135.895C153.293 135.528 153.089 135.182 152.844 134.867C152.505 134.393 152.104 133.968 151.651 133.602C151.031 133.14 150.335 132.792 149.594 132.573C148.612 132.269 147.587 132.126 146.56 132.152C145.432 132.106 144.308 132.301 143.263 132.725C142.217 133.149 141.274 133.792 140.497 134.61C138.958 136.248 138.19 138.42 138.193 141.125C138.196 143.829 138.973 146.034 140.523 147.737C141.282 148.579 142.215 149.245 143.257 149.689C144.3 150.133 145.427 150.344 146.56 150.308C147.611 150.33 148.658 150.155 149.645 149.794C150.414 149.522 151.115 149.089 151.702 148.524C152.147 148.073 152.538 147.572 152.87 147.033C153.123 146.643 153.31 146.214 153.425 145.763L153.579 145.207H157.38C157.349 145.408 157.287 145.696 157.205 146.066C156.998 146.734 156.726 147.38 156.392 147.994C155.949 148.889 155.357 149.703 154.644 150.401C153.709 151.231 152.626 151.877 151.45 152.303C149.882 152.904 148.213 153.196 146.534 153.162C142.849 153.162 139.924 152.081 137.761 149.918C135.598 147.754 134.516 144.832 134.516 141.15C134.523 137.578 135.624 134.711 137.818 132.548Z" fill="#020302"/>
<path d="M163.324 132.666C165.556 130.441 168.547 129.327 172.298 129.323C176.048 129.32 179.04 130.434 181.271 132.666C183.503 134.898 184.619 137.755 184.619 141.238C184.619 144.786 183.512 147.658 181.297 149.856C179.082 152.053 176.083 153.15 172.298 153.147C168.544 153.147 165.553 152.041 163.324 149.83C161.096 147.619 159.98 144.755 159.976 141.238C159.976 137.745 161.092 134.887 163.324 132.666ZM163.576 141.238C163.576 143.98 164.363 146.176 165.937 147.825C167.51 149.474 169.631 150.301 172.298 150.308C174.934 150.308 177.046 149.48 178.633 147.825C180.221 146.169 181.014 143.966 181.014 141.217C181.014 138.55 180.227 136.37 178.654 134.676C177.08 132.983 174.962 132.141 172.298 132.152C169.661 132.152 167.548 132.997 165.957 134.687C164.366 136.377 163.573 138.554 163.576 141.217V141.238Z" fill="#020302"/>
<path d="M189.129 129.807L197.038 148.869L205.05 129.807H208.783L199.013 152.622H195.11L185.375 129.807H189.129Z" fill="#020302"/>
<path d="M209.56 141.269C209.56 137.714 210.588 134.832 212.645 132.625C214.702 130.417 217.558 129.31 221.213 129.303C223.109 129.259 224.989 129.676 226.689 130.516C228.15 131.236 229.392 132.331 230.289 133.689C231.063 134.871 231.636 136.172 231.986 137.541C232.27 138.659 232.422 139.806 232.439 140.96C232.438 141.452 232.406 141.943 232.341 142.431H213.16C213.192 144.538 213.984 146.564 215.391 148.133C216.742 149.573 218.703 150.291 221.274 150.288C222.291 150.303 223.302 150.141 224.262 149.81C225.017 149.562 225.709 149.155 226.293 148.617C226.734 148.183 227.132 147.707 227.481 147.197C227.743 146.839 227.957 146.448 228.119 146.035L228.268 145.521H231.971C231.935 145.722 231.878 145.994 231.791 146.328C231.572 146.966 231.284 147.578 230.932 148.154C230.452 149.017 229.845 149.804 229.132 150.488C228.209 151.29 227.143 151.909 225.99 152.314C224.465 152.877 222.848 153.15 221.223 153.121C217.64 153.121 214.8 152.057 212.702 149.928C210.604 147.799 209.556 144.913 209.56 141.269ZM213.16 139.541H228.839V139.237C228.844 137.396 228.134 135.624 226.859 134.296C225.536 132.866 223.674 132.152 221.274 132.152C218.806 132.152 216.879 132.878 215.494 134.332C214.128 135.74 213.302 137.584 213.16 139.541Z" fill="#020302"/>
<path d="M239.674 129.807V134.07C240.96 131.224 243.14 129.803 246.215 129.807H249.563V132.851H246.323C243.752 132.851 242.038 133.612 241.181 135.134C240.324 136.656 239.876 139.342 239.839 143.192V152.622H236.342V129.807H239.674Z" fill="#020302"/>
<path d="M251.692 129.807H255.441L262.64 148.262L270.195 129.807H274L262.589 157.286C262.152 158.263 261.848 158.916 261.679 159.24C261.41 159.703 261.104 160.144 260.763 160.557C260.373 161.08 259.822 161.463 259.195 161.647C258.431 161.833 257.646 161.918 256.86 161.899H252.957V158.86H256.86C257.235 158.878 257.608 158.808 257.95 158.654C258.142 158.572 258.309 158.441 258.434 158.273C258.501 158.155 258.67 157.826 258.948 157.286L261.031 152.268L251.692 129.807Z" fill="#020302"/>
<path d="M97.6705 169.416C99.8303 167.25 102.744 166.168 106.413 166.172C108.081 166.143 109.742 166.392 111.329 166.907C112.509 167.259 113.599 167.865 114.522 168.681C115.172 169.307 115.758 169.996 116.271 170.738C116.653 171.256 116.937 171.84 117.109 172.46L117.258 173.221H113.458L113.304 172.769C113.147 172.401 112.943 172.055 112.697 171.74C112.358 171.267 111.956 170.842 111.504 170.476C110.884 170.014 110.188 169.666 109.447 169.447C108.465 169.132 107.439 168.978 106.407 168.989C105.28 168.944 104.156 169.139 103.11 169.563C102.065 169.987 101.122 170.629 100.345 171.447C98.8087 173.089 98.0407 175.261 98.0407 177.962C98.0407 180.664 98.8121 182.877 100.355 184.601C101.114 185.442 102.047 186.108 103.09 186.552C104.132 186.996 105.259 187.208 106.392 187.172C107.444 187.193 108.49 187.019 109.478 186.658C110.244 186.385 110.945 185.954 111.535 185.393C111.978 184.939 112.369 184.437 112.702 183.896C112.955 183.506 113.143 183.077 113.257 182.626L113.411 182.071H117.248C117.217 182.271 117.155 182.585 117.073 182.93C116.868 183.598 116.595 184.244 116.26 184.858C115.818 185.753 115.227 186.567 114.512 187.264C113.577 188.095 112.494 188.741 111.319 189.167C109.751 189.77 108.081 190.063 106.402 190.031C102.717 190.031 99.7926 188.949 97.6293 186.786C95.4661 184.623 94.3844 181.699 94.3844 178.014C94.3776 174.445 95.4729 171.579 97.6705 169.416Z" fill="#020302"/>
<path d="M119.819 178.137C119.819 174.589 120.847 171.708 122.904 169.493C124.961 167.279 127.819 166.171 131.477 166.171C133.373 166.126 135.251 166.545 136.948 167.39C138.41 168.106 139.653 169.199 140.548 170.558C141.322 171.74 141.895 173.041 142.245 174.409C142.528 175.527 142.68 176.675 142.698 177.829C142.698 178.32 142.665 178.812 142.6 179.299H123.419C123.451 181.407 124.243 183.432 125.651 185.002C127.001 186.442 128.962 187.161 131.533 187.161C132.55 187.175 133.561 187.012 134.521 186.678C135.275 186.429 135.968 186.022 136.553 185.485C136.992 185.05 137.389 184.575 137.74 184.066C138.004 183.707 138.218 183.314 138.378 182.899L138.527 182.384H142.23C142.194 182.585 142.137 182.858 142.05 183.197C141.83 183.833 141.542 184.443 141.191 185.017C140.712 185.882 140.105 186.669 139.391 187.352C138.467 188.154 137.399 188.774 136.244 189.177C134.721 189.742 133.106 190.018 131.482 189.99C127.899 189.99 125.059 188.924 122.961 186.791C120.863 184.659 119.816 181.774 119.819 178.137ZM123.419 176.409H139.083V176.106C139.09 174.265 138.382 172.493 137.108 171.164C135.791 169.728 133.933 169.01 131.533 169.01C129.065 169.01 127.138 169.737 125.753 171.19C124.385 172.601 123.559 174.449 123.419 176.409Z" fill="#020302"/>
<path d="M149.938 166.68V170.984C150.573 169.572 151.615 168.381 152.931 167.565C154.356 166.659 156.009 166.175 157.698 166.171H157.899C161.327 166.171 163.828 167.058 165.402 168.83C166.975 170.602 167.771 173.315 167.788 176.97V189.491H164.234V176.97C164.234 174.196 163.729 172.201 162.717 170.984C161.706 169.767 160.048 169.164 157.745 169.174C155.417 169.174 153.559 169.875 152.17 171.277C150.782 172.68 150.096 174.884 150.113 177.89V189.501H146.616V166.68H149.938Z" fill="#020302"/>
<path d="M170.472 166.681H174.123V160.037H177.62V166.681H184.059V169.72H177.62V184.981C177.575 185.389 177.673 185.8 177.898 186.143C178.05 186.265 178.225 186.355 178.412 186.408C178.599 186.461 178.795 186.476 178.988 186.452H183.909V189.491H178.988C177.198 189.491 175.94 189.17 175.214 188.529C174.487 187.888 174.123 186.706 174.123 184.981V169.72H170.472V166.681Z" fill="#020302"/>
<path d="M217.299 166.681V170.938C218.585 168.1 220.765 166.681 223.84 166.681H227.188V169.72H223.943C221.372 169.72 219.658 170.481 218.801 172.003C217.944 173.525 217.496 176.211 217.459 180.06V189.491H213.962V166.681H217.299Z" fill="#020302"/>
<path d="M186.82 178.137C186.82 174.589 187.848 171.708 189.905 169.493C191.962 167.279 194.827 166.172 198.499 166.172C200.396 166.126 202.276 166.544 203.975 167.39C205.429 168.107 206.663 169.201 207.549 170.558C208.324 171.74 208.899 173.041 209.251 174.409C209.535 175.528 209.686 176.675 209.704 177.829C209.704 178.321 209.671 178.812 209.606 179.299H190.42C190.452 181.407 191.244 183.432 192.652 185.002C194.002 186.442 195.962 187.162 198.529 187.162C199.548 187.176 200.56 187.012 201.522 186.678C202.275 186.43 202.966 186.024 203.548 185.485C203.99 185.051 204.39 184.576 204.741 184.066C205.003 183.707 205.216 183.314 205.374 182.899L205.528 182.385H209.231C209.195 182.585 209.133 182.858 209.051 183.197C208.831 183.833 208.543 184.443 208.192 185.017C207.149 186.996 205.373 188.489 203.245 189.177C201.728 189.744 200.118 190.023 198.499 190C194.919 190 192.081 188.934 189.983 186.802C187.884 184.669 186.83 181.781 186.82 178.137ZM190.42 176.409H206.084V176.106C206.091 174.265 205.383 172.494 204.109 171.165C202.792 169.728 200.933 169.01 198.529 169.01C196.064 169.01 194.138 169.737 192.749 171.19C191.384 172.603 190.56 174.45 190.42 176.409Z" fill="#020302"/>
</g>
<defs>
<clipPath id="clip0_1_11652">
<rect width="274" height="190" fill="white"/>
</clipPath>
</defs>
</svg>
