<svg width="173" height="50" viewBox="0 0 173 50" fill="none" xmlns="http://www.w3.org/2000/svg">
<path d="M61.0621 24.5898C61.0621 42.5822 52.0507 50 30.5303 50C9.00855 50 0 42.5822 0 24.5898V1.6627H21.0432V26.4147C21.0432 31.5217 24.8436 35.3332 30.5317 35.3332C36.2183 35.3332 40.0188 31.5217 40.0188 26.4147V1.6627H61.0621V24.5898ZM172.999 27.3158V41.2113H164.916V49.4062H146.509V41.2113H116.128V27.1972L137.93 1.6627H164.918V27.3158H172.999ZM146.509 13.658L134.886 27.3158H146.509V13.658ZM115.964 16.627C115.964 5.28433 107.535 0 89.7744 0C70.6175 0 62.5353 6.057 62.5353 20.5463H80.3446C80.3446 15.5582 83.2884 13.7767 89.1257 13.7767C94.9631 13.7767 96.6079 14.9643 96.6079 16.8045C96.6079 19.2398 95.9606 19.2398 81.6421 23.2178C65.7777 27.6708 60.8402 36.4593 60.8402 44.9518V49.4048H114.668V35.9257H83.1893C85.0853 33.7878 90.4734 33.194 102.395 30.4625C110.327 28.681 115.964 25.4157 115.964 16.627Z" fill="#0057B8"/>
</svg>
