<svg width="127" height="50" viewBox="0 0 127 50" fill="none" xmlns="http://www.w3.org/2000/svg">
<path fill-rule="evenodd" clip-rule="evenodd" d="M24.7909 0.338623H126.328V25.5155H94.406V49.6544H24.8336V25.5478H0.0517578V0.370897H24.7909V0.338623ZM24.7909 1.27933H0.975554V24.6393H24.7909V1.27933ZM25.7563 25.5478V48.746H93.4832V25.5234H25.8305V25.5478H25.7563ZM25.8305 24.6071V1.24705H125.405V24.6071H25.8305Z" fill="black"/>
<path fill-rule="evenodd" clip-rule="evenodd" d="M12.9086 18.8722C12.9086 18.8722 5.19539 10.8717 9.12227 8.25881C9.39538 8.04246 9.7089 7.88156 10.0461 7.78542C10.3832 7.68934 10.7361 7.66005 11.0857 7.69923C11.4341 7.73839 11.7712 7.8453 12.0781 8.01368C12.3838 8.182 12.6524 8.40838 12.8671 8.67946C13.0817 8.40859 13.3492 8.18244 13.6549 8.01419C13.9595 7.84595 14.2967 7.73905 14.6451 7.69988C14.9924 7.66064 15.3452 7.68991 15.6824 7.78593C16.0185 7.88193 16.332 8.04268 16.604 8.25881C20.5309 10.8717 12.9086 18.8722 12.9086 18.8722ZM12.8424 10.1679C12.6063 9.87509 12.3422 9.60431 12.0556 9.35896C11.7454 9.09835 11.3543 8.94894 10.9463 8.9357C10.5372 8.92248 10.136 9.04617 9.8101 9.28614C9.64826 9.38418 9.51337 9.51811 9.41559 9.67706C9.31782 9.83593 9.25935 10.0153 9.24698 10.2002V10.4268C9.24698 12.1903 11.2104 15.062 12.9086 17.044C14.5652 15.0702 16.513 12.1903 16.513 10.451V10.2084C16.5006 10.022 16.4433 9.84101 16.3455 9.68061C16.2478 9.52023 16.1117 9.38498 15.9488 9.28614C15.6577 9.0147 15.2711 8.86317 14.8676 8.86317C14.4653 8.86317 14.0786 9.0147 13.7864 9.28614C13.4425 9.53738 13.1334 9.83106 12.8671 10.1598" fill="black"/>
<path d="M41.0187 18.8724H39.2631V8.79295H36.3635V18.8724H34.5732V7.2883H41.0187V18.8724ZM44.0352 9.50465C44.0352 7.72492 45.6424 7.0778 47.0337 7.0778C48.4263 7.0778 50.0166 7.70879 50.0166 9.50465V16.6396C50.0166 18.403 48.4094 19.0664 47.0337 19.0664C45.6592 19.0664 44.0352 18.4354 44.0352 16.6396V9.50465ZM48.2273 9.50465C48.2273 8.84127 47.5811 8.59861 47.0337 8.59861C46.4875 8.59861 45.8245 8.82513 45.8245 9.50465V16.6396C45.8245 17.3029 46.4875 17.5456 47.0337 17.5456C47.5811 17.5456 48.2273 17.3029 48.2273 16.6396V9.50465ZM52.7342 18.8723V7.28827H56.0485C56.3767 7.25568 56.7082 7.2902 57.0229 7.38963C57.3365 7.48907 57.6264 7.65121 57.8726 7.86582C58.1187 8.08043 58.3165 8.34271 58.4536 8.63602C58.5896 8.92935 58.6627 9.24722 58.6672 9.56946V10.9771C58.6526 11.3369 58.5537 11.6887 58.3783 12.0056C58.203 12.3223 57.9557 12.5959 57.6557 12.8053C58.067 12.962 58.4177 13.2389 58.6616 13.5981C58.9043 13.9572 59.0279 14.3811 59.0144 14.8114V16.2352C59.0324 16.5869 58.9751 16.9383 58.8447 17.2666C58.7132 17.5948 58.5132 17.8923 58.257 18.1398C58.0007 18.3872 57.6928 18.579 57.3556 18.7024C57.0173 18.8259 56.6577 18.8783 56.2969 18.8562L52.7342 18.8723ZM56.8768 9.74743C56.8914 9.618 56.8757 9.48719 56.8319 9.3643C56.788 9.24148 56.7161 9.12963 56.6228 9.03682C56.5295 8.94402 56.416 8.87258 56.2913 8.8276C56.1654 8.78261 56.0328 8.76525 55.899 8.77672H54.5571V12.142H55.8327C55.9653 12.1519 56.0991 12.1336 56.2227 12.0881C56.3475 12.0427 56.4598 11.9711 56.5531 11.8787C56.6464 11.7862 56.7172 11.675 56.7622 11.5528C56.8071 11.4306 56.8228 11.3003 56.8105 11.1712L56.8768 9.74743ZM57.2252 14.8114C57.2342 14.6519 57.2084 14.4924 57.1477 14.3438C57.0881 14.1951 56.9959 14.0608 56.8779 13.9502C56.7599 13.8396 56.6183 13.7551 56.4643 13.7028C56.3092 13.6503 56.1451 13.6311 55.9822 13.6466H54.5571V17.3839H55.9822C56.1451 17.4033 56.3092 17.3876 56.4643 17.3377C56.6194 17.2877 56.7622 17.2049 56.8802 17.0952C56.9993 16.9854 57.0915 16.8516 57.1511 16.7028C57.2106 16.5541 57.2364 16.3944 57.2252 16.2352V14.8114ZM66.984 18.8724H61.732V7.2883H66.984V8.79295H63.5212V12.142H66.3883V13.6467H63.5212V17.3516H66.984V18.8724ZM69.7679 18.8724V7.2883H72.8338C74.722 7.2883 75.9324 8.29142 75.9324 10.152V11.5757C75.9324 13.4201 74.722 14.4232 72.8338 14.4232H71.574V18.8724H69.7679ZM74.1432 10.1682C74.1589 9.99251 74.1376 9.81548 74.078 9.64876C74.0195 9.48197 73.9252 9.32936 73.8015 9.20087C73.6779 9.07238 73.5273 8.971 73.3609 8.90348C73.1935 8.83597 73.0137 8.80378 72.8338 8.80916H71.574V12.9509H72.8496C73.0305 12.9549 73.2092 12.9219 73.3756 12.8539C73.5419 12.786 73.6914 12.6846 73.815 12.5564C73.9386 12.4282 74.033 12.2761 74.0926 12.11C74.151 11.9438 74.1747 11.7672 74.1589 11.5919L74.1432 10.1682ZM84.7314 18.8724H82.941V13.6467H80.0751V18.8724H78.2848V7.2883H80.0751V12.142H82.941V7.2883H84.7314V18.8724ZM92.6515 18.8724V11.5919L89.6529 18.8724H87.9952V7.2883H89.8013V14.5688L92.8009 7.2883H94.4576V18.8724H92.6515ZM101.649 14.8274H103.44V16.6394C103.44 18.403 101.831 19.0663 100.457 19.0663C99.0813 19.0663 97.4572 18.4353 97.4572 16.6394V9.48835C97.4572 7.70869 99.0644 7.06152 100.457 7.06152C101.848 7.06152 103.44 7.69249 103.44 9.48835V11.3167H101.649V9.48835C101.649 8.82505 101.003 8.58231 100.457 8.58231C99.9096 8.58231 99.2465 8.80885 99.2465 9.48835V16.6394C99.2465 17.3028 99.9096 17.5454 100.457 17.5454C101.003 17.5454 101.649 17.3028 101.649 16.6394V14.8274ZM112.503 16.0088C112.503 17.8856 111.293 18.8724 109.404 18.8724H106.372V7.2883H108.161V11.7213H109.437C111.326 11.7213 112.537 12.7083 112.537 14.585L112.503 16.0088ZM109.404 17.3516C109.583 17.358 109.762 17.3271 109.928 17.261C110.095 17.1949 110.245 17.095 110.369 16.968C110.492 16.8411 110.587 16.6899 110.646 16.5246C110.706 16.3591 110.728 16.1833 110.714 16.0088V14.585C110.719 14.4119 110.69 14.2393 110.627 14.0772C110.564 13.9152 110.469 13.7668 110.347 13.6407C110.226 13.5143 110.08 13.4128 109.918 13.3417C109.756 13.2704 109.581 13.2312 109.404 13.2259H108.127V17.3516H109.404ZM43.9026 43.1329L41.2839 37.899H40.8366V43.1329H39.0473V37.899H38.6169L35.9488 43.1329H34.209V42.8417L36.9266 37.2358L34.3417 31.832V31.5407H36.1309L38.5338 36.3944H39.0473V31.5407H40.8366V36.3944H41.3671L43.7531 31.5407H45.5435V31.832L42.9911 37.2358L45.6919 42.8417V43.1329H43.9026ZM52.5184 43.1329V35.8523L49.5198 43.1329H47.8621V31.5407H49.6524V38.8212L52.651 31.5407H54.3087V43.1329H52.5184ZM57.2421 43.1329V31.5407H60.5553C60.8846 31.508 61.2162 31.5426 61.5297 31.6421C61.8433 31.7414 62.1333 31.9036 62.3794 32.1182C62.6255 32.3328 62.8234 32.5951 62.9605 32.8884C63.0965 33.1818 63.1695 33.4997 63.174 33.8219V35.2457C63.1594 35.6054 63.0605 35.9572 62.8851 36.2741C62.7098 36.591 62.4626 36.8646 62.1625 37.0739C62.5738 37.2306 62.9245 37.5074 63.1684 37.8667C63.4111 38.2258 63.5347 38.6497 63.5212 39.0801V40.5119C63.5404 40.8636 63.4819 41.215 63.3515 41.5432C63.2212 41.8714 63.0211 42.169 62.7637 42.4164C62.5075 42.6639 62.2007 42.8557 61.8624 42.9791C61.5253 43.1026 61.1645 43.155 60.8037 43.1329H57.2421ZM61.3847 33.9998C61.3982 33.8704 61.3825 33.7396 61.3387 33.6167C61.2949 33.4939 61.224 33.382 61.1296 33.2892C61.0363 33.1964 60.9228 33.125 60.7981 33.08C60.6733 33.035 60.5396 33.0177 60.4069 33.0291H59.0639V36.3943H60.4069C60.5396 36.4043 60.6722 36.386 60.7969 36.3404C60.9205 36.295 61.0341 36.2236 61.1263 36.1311C61.2195 36.0386 61.2914 35.9273 61.3353 35.8051C61.3802 35.683 61.3971 35.5528 61.3847 35.4236V33.9998ZM61.732 39.0639C61.741 38.9043 61.7152 38.7448 61.6556 38.5961C61.5949 38.4476 61.5027 38.3132 61.3847 38.2026C61.2667 38.092 61.1263 38.0076 60.9712 37.9551C60.8161 37.9028 60.652 37.8836 60.489 37.899H59.0639V41.6443H60.489C60.652 41.6626 60.8172 41.6456 60.9723 41.5946C61.1273 41.5438 61.269 41.4601 61.3881 41.3498C61.5061 41.2394 61.5983 41.1051 61.6579 40.9561C61.7174 40.8071 61.7433 40.6471 61.732 40.4877V39.0639ZM70.5468 43.1329V35.8523L67.5482 43.1329H65.8905V31.5407H67.6808V38.8212L70.6793 31.5407H72.3371V43.1329H70.5468ZM81.8317 43.1329V35.2457L79.4446 39.8729L77.0676 35.2457V43.1652H75.2772V31.5407H76.9349L79.421 36.4914L81.9554 31.5407H83.5626V43.1329H81.8317Z" fill="black"/>
</svg>
