<svg width="107" height="30" viewBox="0 0 107 30" fill="none" xmlns="http://www.w3.org/2000/svg">
<path d="M9.10303 4.74967C10.2848 3.30457 12.3348 2.40014 14.3946 2.532C15.6477 2.58683 16.8022 3.09348 17.7487 3.77963C18.6937 3.09605 19.8436 2.58644 21.0937 2.532C23.1532 2.39911 25.2118 3.29879 26.3917 4.74852C27.4797 4.68111 28.6518 4.73465 29.581 5.28406C30.623 5.90178 31.2556 6.99508 31.2556 8.07965C31.2658 8.99062 30.6894 9.89864 29.7595 10.3412C29.2888 10.6069 28.5911 10.7942 28.5372 11.3621C28.3077 12.8507 28.3056 14.3617 28.2341 15.8618C28.6538 15.5315 29.0237 14.9921 29.6635 14.9945C30.5471 15.0403 31.3538 15.6684 31.4634 16.433C31.6085 17.0171 31.3026 17.5854 30.8959 18.0361C29.81 19.2988 28.7886 20.6028 27.6884 21.8533C27.2804 22.3469 26.5411 22.3028 25.9314 22.1988C25.2839 23.6274 23.9224 24.8261 22.2342 25.3385C20.7006 25.814 18.8564 26.0372 17.8338 27.2519H17.6479C16.7747 26.0808 15.0372 25.8591 13.6175 25.4467C11.7706 24.9796 10.2588 23.7244 9.55185 22.1896C9.12001 22.236 8.64187 22.3624 8.23682 22.159C7.80646 21.9457 7.55057 21.562 7.26163 21.2276C6.29285 20.0221 5.25723 18.8577 4.30303 17.6443C3.55828 16.6801 4.2615 15.2195 5.59261 15.018C6.33721 14.8508 6.81341 15.4754 7.26312 15.8688C7.20596 14.415 7.17589 12.9567 6.99175 11.5095C6.95543 10.5607 5.61479 10.4975 5.04629 9.87168C3.62318 8.56088 4.23634 6.32241 5.83525 5.33349C6.77188 4.74312 7.98509 4.67597 9.10303 4.74967ZM9.39227 5.25248C8.58217 5.18276 7.74066 5.13332 6.95617 5.3566C5.16627 5.84117 4.15 7.93173 5.21555 9.31418C5.89539 10.248 7.51678 10.5002 8.5332 9.83753C9.16198 9.44258 9.35878 8.59786 8.90327 8.04434C8.69665 7.7801 8.31556 7.70768 7.99313 7.59662C8.24084 7.90618 8.62043 8.21588 8.5332 8.63073C8.50134 9.20479 7.75317 9.64442 7.12438 9.42679C6.39214 9.22674 6.13163 8.32809 6.68762 7.86112C7.21786 7.20655 8.40413 7.0666 9.10631 7.58866C9.68106 8.03625 9.7208 8.783 9.56837 9.39533C9.2568 10.173 8.33745 10.606 7.43714 10.7182C7.61012 12.3417 7.74364 13.9675 7.76106 15.5975C7.72935 16.362 7.59761 17.2211 6.92253 17.7771C6.52522 18.1155 5.94407 18.1661 5.42172 18.236C6.28392 19.2508 7.12766 20.278 7.9784 21.3004C8.19156 21.5466 8.45356 21.8493 8.85533 21.8234C9.32692 21.8222 9.55259 21.432 9.76368 21.1317C10.0373 22.1301 10.5339 23.1014 11.4345 23.7972C13.1831 23.4088 14.976 23.1782 16.7786 23.0907C16.4323 22.1358 15.7528 21.3095 15.1682 20.4543C14.4266 19.4932 13.9054 18.4043 13.6927 17.2614C13.5989 16.8286 13.5403 16.3318 13.1241 16.0259C12.6968 15.7127 12.1492 15.45 11.5708 15.4973C11.2038 15.5313 11.1275 15.903 10.9754 16.1274C11.1738 16.3184 11.4375 16.4659 11.5819 16.6962C11.6646 16.963 11.3435 17.1346 11.0799 17.1592C10.986 16.9318 10.4495 16.5287 10.9879 16.4276C10.4145 16.1291 10.7527 15.4239 11.2913 15.2586C12.2315 14.9357 13.2827 15.3655 13.9117 15.9893C13.7942 14.3961 14.9198 13.0698 15.4838 11.6235C15.1249 11.1946 14.7754 10.7619 14.4482 10.3152C13.707 10.2415 12.7983 10.3221 12.4661 10.9987C13.0076 10.9274 13.3551 10.3753 13.9385 10.4933C14.4401 10.6509 14.7596 11.0835 14.9022 11.5139C14.5766 11.6619 14.2987 11.8969 13.9429 11.9919C13.5997 11.9441 13.2742 11.8397 12.9344 11.7794C13.2948 12.2379 14.1509 11.959 14.44 12.444C14.4561 12.992 14.4671 13.5885 14.051 14.0414C13.7874 13.8935 13.5254 13.7457 13.2616 13.5972C13.1806 13.6247 13.0185 13.681 12.9377 13.7098C12.7915 13.2895 12.8089 12.8052 12.4692 12.455C11.8864 12.5426 12.3674 13.0137 12.4612 13.2936C12.698 13.7193 12.3596 14.1275 12.0277 14.4221C11.969 14.3782 11.8532 14.2933 11.7958 14.2494C11.6101 14.4838 11.4101 14.7085 11.2 14.9259C10.8746 14.6511 10.7731 14.239 10.4236 13.9844C10.5584 13.4181 10.8728 12.9103 11.1399 12.3879C10.8253 12.5868 10.7271 12.9496 10.4252 13.1485C10.0075 13.2439 9.58489 13.3194 9.166 13.4095C9.11509 13.1315 9.06582 12.8533 8.95 12.5906C9.09574 12.1604 9.0295 11.5312 9.61378 11.3426C10.1888 11.1153 10.7667 11.4617 11.3385 11.5191C11.1287 11.1933 10.6813 11.1084 10.3873 10.8603C10.192 10.592 10.1982 10.081 10.6732 10.0522C10.7923 9.68512 11.1637 9.50935 11.5628 9.41806C11.653 9.6457 11.7361 9.87399 11.8135 10.1057C11.9436 10.0607 12.0724 10.0155 12.2025 9.97016C12.2371 10.2222 12.2677 10.4755 12.2977 10.7289C12.6898 10.1575 13.4237 9.93858 14.154 9.90147C13.4361 8.99319 12.3007 8.46869 11.189 7.99336C12.1166 7.9456 12.8345 8.48538 13.6699 8.72086C13.5205 8.39332 13.3551 8.07143 13.2156 7.74273C13.0522 7.38271 13.1569 6.98673 13.0645 6.61554C12.9011 6.24177 12.5054 5.99897 12.2041 5.71162C12.563 5.83193 12.971 5.94299 13.1826 6.24729C13.7954 6.98404 13.4316 8.04421 14.2593 8.68555C14.5083 7.72245 14.5369 6.6841 14.1466 5.74449C14.3532 5.96084 14.6262 6.15665 14.707 6.44053C14.8563 7.2131 14.7849 8.00068 14.6561 8.77196C14.5275 9.53913 15.058 10.2277 15.568 10.8103C15.5648 10.2605 15.414 9.70592 15.5457 9.15818C15.633 8.77029 15.9394 8.45277 16.0399 8.06783C16.0922 7.69779 16.0539 7.32403 16.0649 6.95258C16.1681 7.32544 16.2858 7.70332 16.2666 8.08966C16.2209 8.59092 15.9031 9.06201 15.9953 9.57444C16.0953 10.214 16.1158 10.8593 16.038 11.5017C16.4989 11.9566 16.9373 12.4401 17.5265 12.7786C17.5056 12.255 17.38 11.7442 17.2822 11.2292C17.1836 10.6965 17.3441 10.1649 17.4723 9.64724C17.6296 9.02144 17.6092 8.37111 17.7969 7.74877C18.0555 8.63355 17.8906 9.53528 17.7268 10.4189C17.5711 11.1913 17.9492 11.916 18.2477 12.6228C18.6797 12.2746 19.0707 11.89 19.4597 11.5067C19.3833 10.8656 19.401 10.2189 19.5026 9.58215C19.5959 9.06432 19.2723 8.58887 19.2294 8.08221C19.2151 7.69446 19.333 7.31658 19.4325 6.94128C19.4441 7.31787 19.4039 7.696 19.4597 8.07117C19.5599 8.452 19.8616 8.7685 19.9502 9.15215C20.0858 9.70425 19.9325 10.266 19.9277 10.8204C20.4333 10.2313 20.9729 9.54119 20.8413 8.76978C20.7112 7.99863 20.6417 7.20976 20.7916 6.43578C20.8733 6.15472 21.1445 5.96187 21.3508 5.74822C20.9918 6.67974 20.9223 7.74119 21.2888 8.67566C21.6192 8.30293 21.8543 7.87036 21.8754 7.39465C21.936 6.66035 22.3741 5.86596 23.2897 5.71265C23.007 5.97843 22.6681 6.20852 22.4701 6.53169C22.3134 6.88825 22.4516 7.2868 22.3162 7.64965C22.1785 8.01404 21.9881 8.36212 21.8273 8.72073C22.6666 8.48821 23.3841 7.94303 24.3146 7.99478C23.1983 8.46471 22.0633 8.99486 21.3435 9.90301C21.9152 9.9509 22.4834 10.0784 22.9459 10.3864C22.8567 10.455 22.7674 10.5233 22.6772 10.592C22.2132 10.2673 21.6076 10.2908 21.0476 10.3179C20.7223 10.7643 20.3715 11.1973 20.0141 11.6264C20.3499 12.4193 20.7639 13.1839 21.1597 13.9535C21.4894 14.5928 21.5677 15.2989 21.5865 15.9906C22.0466 15.5663 22.6322 15.2043 23.3271 15.1673C23.9273 15.0633 24.7087 15.3277 24.8038 15.9053C24.9132 16.1386 24.6628 16.2766 24.5098 16.4289C25.0531 16.5256 24.5306 16.9231 24.4243 17.1411C24.1356 17.1799 23.8681 16.9466 23.9032 16.6971C24.069 16.4771 24.3164 16.3172 24.5221 16.1268C24.3764 15.8624 24.2284 15.4487 23.7939 15.4887C22.9314 15.5351 22.0069 16.0533 21.8968 16.8431C21.7295 17.7528 21.4643 18.6583 20.9788 19.4845C20.2591 20.6991 19.215 21.7774 18.7211 23.0867C20.5312 23.1583 22.3291 23.3982 24.0841 23.7895C24.9669 23.0867 25.4643 22.1245 25.7361 21.1305C25.9296 21.3885 26.0917 21.7299 26.4794 21.8022C26.8855 21.9162 27.2363 21.6458 27.4508 21.3785C28.329 20.3337 29.188 19.276 30.0758 18.2365C29.5554 18.1669 28.9769 18.1175 28.5798 17.7817C27.9032 17.2282 27.7683 16.37 27.7371 15.6033C27.7541 13.9726 27.8876 12.3438 28.0594 10.719C27.4285 10.611 26.7677 10.4328 26.346 9.98608C25.7519 9.46595 25.7307 8.62007 26.0517 7.98078C26.4393 7.23557 27.6622 7.06865 28.3973 7.51932C28.928 7.83544 29.3539 8.45611 28.9662 8.99191C28.6011 9.64699 27.3795 9.62593 27.062 8.94645C26.7555 8.44943 27.1445 7.956 27.5212 7.59315C27.1963 7.70421 26.8113 7.77252 26.6016 8.03817C26.1349 8.59311 26.3366 9.44771 26.9715 9.84369C27.9628 10.4793 29.5249 10.2641 30.2274 9.38223C31.2261 8.211 30.5973 6.45517 29.2824 5.66861C28.347 5.11239 27.1561 5.1644 26.077 5.24374C24.9398 3.5082 22.3504 2.59196 20.1302 3.14792C19.2124 3.36838 18.4277 3.8604 17.7511 4.42342C17.1001 3.8889 16.3613 3.41101 15.4926 3.18066C13.2275 2.54857 10.5818 3.49511 9.39227 5.25248ZM7.17514 7.99901C6.70519 8.18108 6.68793 8.80997 7.12424 9.03043C7.5086 9.25936 8.07679 9.01142 8.11683 8.61943C8.21702 8.18943 7.63423 7.78112 7.17514 7.99901ZM27.785 7.98784C27.2588 8.16323 27.2366 8.89047 27.7721 9.06869C28.2102 9.25794 28.7522 8.88662 28.6922 8.4796C28.6806 8.10584 28.1832 7.81951 27.785 7.98784ZM11.317 10.6824C11.4851 11.0179 11.7918 11.2701 12.1032 11.5057C11.6901 11.6299 11.2727 11.7428 10.8676 11.8865C11.1994 11.8649 11.5314 11.8279 11.8604 11.7879C11.6713 12.1826 11.5948 12.6059 11.5743 13.0319C11.7522 12.6101 11.9284 12.1839 12.2224 11.8098C12.491 12.0768 12.7643 12.34 13.0435 12.5975L13.1057 12.5491C12.8165 12.2302 12.488 11.9137 12.3945 11.5041C12.6897 11.3699 13.0056 11.2716 13.3122 11.1594C12.8902 11.1934 12.4612 11.311 12.0374 11.2362C11.7667 11.0837 11.5567 10.8675 11.317 10.6824ZM15.886 12.1123C15.7431 12.4671 15.5874 12.8194 15.389 13.1536C14.8616 14.0441 14.6118 15.0408 14.5585 16.0356C15.27 14.9809 16.3862 14.21 17.5077 13.4989C16.9678 13.0362 16.3738 12.6209 15.886 12.1123ZM18.0382 13.5124C19.1212 14.2442 20.2436 14.982 20.9382 16.0345C20.8874 15.0385 20.6336 14.0401 20.1053 13.1468C19.9088 12.8156 19.7552 12.4659 19.6114 12.1152C19.1562 12.6402 18.4814 12.9876 18.0382 13.5124ZM14.7176 17.5289C14.6984 19.365 16.2119 20.8054 17.422 22.1811C17.4285 21.8449 17.4325 21.5112 17.4428 21.1763C17.6874 20.9918 17.8795 20.7673 18.0689 20.5431C18.0689 21.0893 18.0652 21.6362 18.0723 22.1822C18.7336 21.4506 19.4063 20.7238 19.9649 19.9308C19.5998 19.8068 19.2251 19.6957 18.834 19.654C18.6998 19.2606 18.5642 18.8542 18.2072 18.5622C17.9054 19.04 18.586 19.3896 18.539 19.8635C18.5464 20.1714 18.3087 20.4606 17.9436 20.5017C17.8079 20.6903 17.6704 20.8771 17.5314 21.0646C17.2762 20.8083 17.0553 20.5275 16.789 20.2809C16.8396 19.8011 16.8953 19.3099 17.2097 18.8973C17.1588 18.8839 17.0589 18.8545 17.008 18.841C16.9172 19.056 16.8604 19.2864 16.7187 19.4821C16.3598 19.6342 15.9835 19.7523 15.6137 19.8823C15.3738 19.3317 15.2962 18.7582 15.4055 18.1757C15.6309 18.0195 15.8394 17.785 16.1569 17.7903C16.5127 17.8097 16.8619 17.8749 17.2158 17.902C16.9888 17.647 16.619 17.5576 16.3234 17.3779C16.1741 17.1708 16.1883 16.9113 16.1297 16.6798C16.2026 16.6768 16.3502 16.6702 16.4249 16.6675C16.4945 16.3187 16.7695 16.0729 17.1253 15.9197C17.2335 16.1106 17.3364 16.3026 17.4364 16.4979C17.6302 16.4855 17.8237 16.4787 18.0189 16.4703C17.8175 16.4073 17.6128 16.3569 17.4047 16.3104C17.4443 15.639 17.4313 14.9676 17.4255 14.2965C16.183 15.0855 14.7301 16.0686 14.7176 17.5289ZM17.9967 14.2835C18.0318 14.7605 18.7924 14.7252 18.883 15.1836C19.2196 15.9827 18.5219 16.6644 18.1363 17.329C18.5512 17.1303 18.8238 16.648 19.3497 16.6756C19.7817 16.8083 20.0752 17.1522 20.2817 17.4918C20.066 17.6756 19.856 17.8661 19.6659 18.07C19.3184 18.0485 18.9702 18.0065 18.6222 17.9835C19.0575 18.3017 19.7089 18.1113 20.1235 18.4672C20.0883 18.5319 20.0196 18.6617 19.9868 18.7276C20.0931 19.1114 20.0961 19.5068 20.0249 19.8964C20.2914 19.3523 20.6163 18.8181 20.7219 18.2276C20.8867 17.4278 20.7171 16.5429 20.1122 15.9018C19.5157 15.2705 18.8114 14.7042 17.9967 14.2835ZM18.1054 14.8575C18.0372 15.626 18.1405 16.4082 17.8965 17.1622C18.1939 16.722 18.5921 16.2743 18.5369 15.736C18.5444 15.4005 18.3141 15.1207 18.1054 14.8575ZM4.59912 17.1111C4.67861 17.5353 5.16597 17.7122 5.57891 17.8462C5.33255 17.4769 5.06579 17.1163 4.84042 16.7371C5.31067 16.655 5.89345 16.7179 6.24268 16.3783C6.6446 16.0581 6.24417 15.303 5.67582 15.4798C4.85471 15.6372 4.3404 16.4194 4.59912 17.1111ZM29.2562 16.3795C29.6057 16.7191 30.1854 16.6533 30.6555 16.7321C30.4313 17.114 30.1666 17.4742 29.9252 17.8486C30.3332 17.7117 30.8176 17.5354 30.8974 17.114C31.1589 16.4194 30.642 15.6344 29.8168 15.4781C29.2467 15.307 28.8529 16.0621 29.2562 16.3795ZM5.53157 17.0851C5.71572 17.3107 5.88736 17.544 6.1032 17.7479C6.84349 17.5587 7.47242 16.7907 6.92565 16.1784C6.67184 16.6821 6.18567 17.047 5.53157 17.0851ZM28.3668 16.8331C28.4741 17.3073 28.9564 17.5905 29.4387 17.7633C29.6111 17.5342 29.7808 17.3074 29.9535 17.081C29.321 17.0384 28.8184 16.702 28.5984 16.1891C28.5225 16.4018 28.2483 16.6004 28.3668 16.8331ZM17.0613 17.1316C17.2868 17.393 17.5742 17.6071 17.8748 17.8015C17.5504 17.9648 17.225 18.1217 16.9121 18.3004C17.1789 18.2316 17.4441 18.1564 17.7106 18.0813C17.622 18.4591 17.5914 18.8464 17.6394 19.2316C17.7426 18.8437 17.8441 18.4536 18.0159 18.0824C18.3205 18.3344 18.6365 18.5755 18.9826 18.7864C18.6542 18.4714 18.3293 18.1533 18.0826 17.785C18.3476 17.6482 18.617 17.5235 18.8893 17.3972C18.5609 17.4535 18.2352 17.5329 17.8993 17.567C17.5729 17.5153 17.3439 17.2691 17.0613 17.1316ZM23.9511 9.4074C24.3654 9.51679 24.7414 9.71542 24.8292 10.1102C24.9215 10.1072 25.1051 10.1033 25.1995 10.1002C25.1753 10.3525 25.2666 10.6373 25.1051 10.866C24.81 11.1084 24.369 11.1974 24.1601 11.5206C24.7256 11.462 25.2995 11.1192 25.8687 11.3385C26.4663 11.522 26.4008 12.1547 26.5474 12.5891C26.4308 12.8534 26.3819 13.1317 26.3314 13.4084C25.9057 13.3194 25.4771 13.2426 25.0546 13.1454C24.7365 12.9781 24.7651 12.4769 24.31 12.4865C24.4653 12.7028 24.635 12.9111 24.8033 13.1195C24.8748 13.4129 24.9765 13.698 25.0683 13.9854C24.7256 14.2441 24.6188 14.6495 24.2978 14.9254C24.0873 14.7083 23.887 14.484 23.701 14.2491C23.6445 14.293 23.5315 14.3794 23.4742 14.4231C23.141 14.1315 22.7991 13.7246 23.0341 13.2977C23.1282 13.0175 23.6153 12.529 23.0185 12.458C22.6928 12.8126 22.7037 13.2877 22.5627 13.7052C22.4802 13.6779 22.3154 13.6245 22.2322 13.5989C21.9699 13.7454 21.7097 13.8933 21.4494 14.0414C20.9758 13.6124 21.1844 13.0193 20.9949 12.5057C21.3124 11.9729 22.1572 12.2356 22.5612 11.7822C22.1623 11.858 21.7682 11.9617 21.3587 11.9892C21.138 11.7917 20.8716 11.6425 20.5977 11.5058C20.7371 11.0798 21.0565 10.6552 21.5506 10.4948C22.0432 10.3826 22.4046 10.7508 22.7592 10.9756C22.9088 10.8909 23.0586 10.8074 23.2102 10.7224C23.2303 10.4701 23.2583 10.2196 23.2896 9.96862C23.4183 10.0142 23.5485 10.0576 23.678 10.1032C23.7616 9.87014 23.8523 9.63761 23.9511 9.4074ZM23.4678 11.2329C23.046 11.314 22.6155 11.1933 22.1931 11.1619C22.4857 11.2685 22.7858 11.3577 23.0644 11.4904C23.0694 11.9385 22.5919 12.2672 22.3518 12.6439C22.6941 12.3933 22.9916 12.101 23.2854 11.81C23.5654 12.1891 23.7476 12.6115 23.9258 13.032C23.902 12.6069 23.8285 12.184 23.637 11.7895C23.9641 11.8281 24.2925 11.8636 24.6243 11.8785C24.2195 11.7417 23.807 11.6305 23.3959 11.5073C23.7039 11.2706 24.013 11.0213 24.1753 10.6857C23.9395 10.8687 23.733 11.0811 23.4678 11.2329ZM11.7461 16.3795C12.0683 16.3806 12.5719 16.4367 12.4893 16.8219C12.4514 17.1499 12.0286 17.0922 11.7554 17.1316C11.7492 16.8807 11.7461 16.6304 11.7461 16.3795ZM23.0123 16.8178C22.9216 16.4379 23.4361 16.3783 23.7549 16.3824C23.7528 16.6345 23.7478 16.8854 23.7379 17.1369C23.4678 17.0963 23.0395 17.1469 23.0123 16.8178ZM12.6115 16.5022C12.8256 16.5727 13.1662 16.5111 13.2899 16.7211C13.5519 17.0132 13.0356 17.4578 12.6955 17.2277C12.527 17.0112 12.6339 16.7426 12.6115 16.5022ZM22.159 16.8055C22.2359 16.5193 22.6368 16.5663 22.8887 16.5029C22.8652 16.7426 22.968 17.0108 22.8028 17.2272C22.489 17.4266 22.0496 17.1057 22.159 16.8055ZM9.91477 17.017C10.1166 16.7211 10.7027 16.5275 10.8471 16.9727C11.0491 17.3948 10.3469 17.5732 10.0389 17.2976C9.94514 17.4466 9.88961 17.679 9.63878 17.676C9.4734 17.5497 9.03217 17.5082 9.15588 17.25C9.18223 16.9095 9.63849 16.899 9.91477 17.017ZM24.9049 17.4249C24.4303 17.3197 24.6006 16.6786 25.0551 16.7074C25.301 16.6675 25.4038 16.9236 25.5834 17.0171C25.8263 16.948 26.1757 16.8679 26.3045 17.1305C26.5474 17.4578 25.9621 17.8609 25.6374 17.5976C25.593 17.5235 25.5025 17.3743 25.4571 17.3002C25.2721 17.3373 25.1052 17.5141 24.9049 17.4249ZM10.8535 17.3602C11.1615 17.2872 11.4699 17.2191 11.7809 17.1563C11.8095 17.3919 11.9366 17.7615 11.5521 17.8405C11.174 18.0147 10.9823 17.5853 10.8535 17.3602ZM11.9271 17.3755C12.0941 17.3319 12.2623 17.2874 12.4287 17.245C12.712 17.3848 13.0684 17.5835 12.7241 17.8535C12.3096 18.137 11.9428 17.7221 11.9271 17.3755ZM23.0903 17.2221C23.2251 17.322 23.5712 17.3097 23.5141 17.53C23.6032 17.9572 22.7494 18.113 22.655 17.6687C22.4948 17.4372 22.9731 17.3755 23.0903 17.2221ZM23.7201 17.1551C24.0315 17.221 24.3428 17.2906 24.6521 17.3629C24.5096 17.5823 24.3353 18.0016 23.9538 17.8456C23.5614 17.7674 23.6888 17.3984 23.7201 17.1551ZM10.6647 18.0648C10.6105 17.8838 10.3136 17.5811 10.6074 17.466C10.8215 17.6263 10.9898 17.8238 11.1712 18.0124C11.0439 18.0248 10.7896 18.0507 10.6647 18.0648ZM24.3271 18.0054C24.554 17.8726 24.6923 17.4065 25.0405 17.5299C24.9955 17.7162 24.9241 17.8971 24.8307 18.07C24.7052 18.0535 24.4525 18.0224 24.3271 18.0054ZM8.87766 18.3397C8.39149 18.1294 8.82362 17.4548 9.297 17.6868C9.82262 17.9249 9.39049 18.6312 8.87766 18.3397ZM9.6815 17.7839C9.97684 17.7139 10.431 17.7234 10.4261 18.0809C10.4614 18.4781 9.92593 18.5001 9.60663 18.404C9.63223 18.1976 9.65724 17.9907 9.6815 17.7839ZM25.1481 17.8808C25.3068 17.6523 25.6291 17.7921 25.8659 17.7921C25.8151 18.0147 26.0111 18.3862 25.6441 18.4537C25.269 18.5894 24.8872 18.1506 25.1481 17.8808ZM26.2123 17.6058C26.4249 17.6851 26.7679 17.6787 26.8149 17.9301C26.9338 18.1698 26.5999 18.4661 26.3168 18.3903C26.0487 18.4079 26.0344 18.1053 25.8972 17.9713C25.9738 17.8797 26.1325 17.6975 26.2123 17.6058ZM11.2835 17.9919C11.5539 17.9437 11.8238 17.8902 12.0953 17.8427C12.0953 18.1935 11.9143 18.4808 11.4952 18.5396C11.4425 18.4026 11.3361 18.1294 11.2835 17.9919ZM22.5497 17.9989C22.8424 17.9978 23.1333 18.0366 23.4236 18.0619C23.3567 18.2573 23.1726 18.3633 22.9709 18.4427C23.3971 18.4427 23.3247 18.7976 23.364 19.058C23.1933 19.0139 23.0224 18.9716 22.8518 18.9287C22.7486 18.6195 22.5402 18.3292 22.5497 17.9989ZM23.4026 17.8438C23.6744 17.8903 23.9428 17.9437 24.2147 17.9919C24.1629 18.1276 24.0614 18.3974 24.0111 18.5331C23.5791 18.4902 23.4112 18.1946 23.4026 17.8438ZM10.6424 18.5983C10.2307 18.1931 10.9535 18.1438 11.2725 18.0809C11.436 18.4325 11.0644 18.9057 10.6424 18.5983ZM12.0697 18.0619C12.3701 18.0578 12.6857 17.952 12.9797 18.0439C12.9051 18.3492 12.7605 18.6341 12.6458 18.9283C12.4844 18.9682 12.3235 19.0076 12.1635 19.0485C12.1648 18.8616 12.1684 18.6768 12.1712 18.4899C12.2776 18.5011 12.4921 18.5243 12.5986 18.536C12.4004 18.3962 12.1748 18.2745 12.0697 18.0619ZM24.2174 18.1018C24.4855 18.1401 24.7523 18.1782 25.0217 18.2152C24.9495 18.4455 24.7941 18.8081 24.4318 18.6699C24.1354 18.5865 24.227 18.3016 24.2174 18.1018ZM9.55899 18.5878C9.88291 18.5672 10.2071 18.5467 10.5312 18.529C10.4565 18.7534 10.4949 19.1401 10.1153 19.1495C9.71619 19.2206 9.62896 18.8304 9.55899 18.5878ZM11.3742 18.6389C11.6329 18.6113 11.8936 18.5837 12.152 18.5566C12.0267 18.8286 11.9171 19.1977 11.5088 18.9368C11.4404 19.1365 11.3675 19.3358 11.2943 19.5355C11.0926 19.4796 10.8956 19.4141 10.7019 19.3427C10.6433 19.1794 10.5907 19.0166 10.5447 18.8503C10.9086 18.815 11.2751 18.7986 11.6357 18.8645L11.3742 18.6389ZM23.3243 18.5548C23.59 18.5812 23.857 18.6082 24.1234 18.6371L23.8631 18.8633C24.2235 18.7986 24.5921 18.8163 24.9559 18.8503C24.9382 19.2522 24.6656 19.4932 24.2051 19.5366C24.1329 19.3375 24.0586 19.1364 23.9851 18.9366C23.5805 19.1977 23.467 18.8152 23.3243 18.5548ZM24.9638 18.5301C25.2904 18.5484 25.6134 18.5671 25.9394 18.5878C25.8678 18.8316 25.7787 19.2289 25.3776 19.1467C25.0037 19.1342 25.0374 18.7511 24.9638 18.5301ZM11.7967 19.2318C12.1368 19.1231 12.4848 19.4234 12.3495 19.7137C12.27 20.051 11.5825 20.0604 11.5204 19.7084C11.4139 19.5139 11.5664 19.2823 11.7967 19.2318ZM12.3558 19.0578C12.6145 19.0878 13.0338 19.0784 13.0656 19.3793C13.1308 19.6426 12.7893 19.7589 12.6097 19.91C12.5256 19.6248 12.4402 19.3411 12.3558 19.0578ZM22.4324 19.3751C22.4771 19.0878 22.8457 19.0426 23.1188 19.0848C23.0565 19.3628 22.9737 19.6354 22.8978 19.911C22.7122 19.7607 22.3626 19.6455 22.4324 19.3751ZM23.3692 19.2476C23.6349 19.1404 24.0553 19.3069 23.9967 19.589C24.043 19.8919 23.5678 20.0835 23.3045 19.8999C23.0231 19.763 23.0889 19.3329 23.3692 19.2476ZM10.7689 20.1326C10.4261 20.0521 10.537 19.7125 10.5276 19.4891C10.8405 19.5368 11.1552 19.5879 11.4681 19.6426C11.347 19.8864 11.1776 20.3012 10.7689 20.1326ZM24.0376 19.6291C24.3367 19.5862 24.6351 19.5368 24.9382 19.5139C25.1746 19.9096 24.7856 20.1644 24.3632 20.2291C24.2488 20.0316 24.1397 19.8317 24.0376 19.6291ZM11.4855 19.9564C11.6923 20.0193 11.8971 20.0809 12.102 20.145C11.9906 20.3231 11.9938 20.6191 11.7032 20.6562C11.4077 20.7579 11.2599 20.467 11.0805 20.3319C11.182 20.2372 11.3854 20.0492 11.4855 19.9564ZM12.0697 20.5986C12.2031 20.3959 12.1301 19.9605 12.5207 20.001C12.9304 19.9666 13.1528 20.4905 12.7909 20.6738C12.5935 20.8725 12.2986 20.6221 12.0697 20.5986ZM22.6124 20.5986C22.3863 20.3659 22.6199 19.9833 22.9694 19.9986C23.3639 19.9603 23.2964 20.3876 23.4265 20.5956C23.1785 20.6779 22.7994 20.8695 22.6124 20.5986ZM23.4026 20.152C23.6056 20.0779 23.8087 20.0028 24.011 19.9276C24.1445 20.1427 24.5805 20.4109 24.1662 20.5922C23.7808 20.8524 23.4408 20.467 23.4026 20.152Z" fill="#F6C315"/>
<path d="M9.39242 5.25247C10.582 3.49523 13.2277 2.5483 15.4924 3.17976C16.361 3.41023 17.1 3.88799 17.7509 4.42251C18.4275 3.85923 19.2123 3.3676 20.13 3.14714C22.3503 2.5908 24.9399 3.5073 26.0769 5.24297C27.1561 5.16362 28.347 5.11162 29.2823 5.66783C30.5971 6.45413 31.2259 8.21022 30.2272 9.38145C29.5248 10.2637 27.9626 10.4783 26.9714 9.84291C26.3365 9.44706 26.1348 8.59233 26.6014 8.0374C26.8112 7.77174 27.1961 7.70318 27.5211 7.59237C27.1443 7.95522 26.7554 8.44865 27.0619 8.94568C27.3794 9.62515 28.6009 9.64608 28.9661 8.99113C29.3537 8.45558 28.928 7.83491 28.3971 7.51854C27.6621 7.06787 26.4392 7.23479 26.0515 7.98C25.7306 8.61929 25.7517 9.46504 26.3458 9.9853C26.7676 10.432 27.4284 10.6102 28.0592 10.7182C27.8876 12.3432 27.7541 13.9718 27.7369 15.6028C27.7684 16.3691 27.9032 17.2273 28.5796 17.7812C28.9768 18.1164 29.5553 18.1657 30.0757 18.236C29.188 19.2755 28.329 20.3332 27.4507 21.378C27.236 21.6453 26.8852 21.9153 26.4792 21.8013C26.0916 21.7293 25.9295 21.3876 25.736 21.1299C25.4641 22.1236 24.9668 23.0862 24.0839 23.7889C22.3288 23.3975 20.5311 23.1578 18.7209 23.086C19.2148 21.7765 20.2585 20.6982 20.9787 19.4836C21.4641 18.6577 21.7288 17.7519 21.8967 16.8425C22.0067 16.0527 22.9316 15.5341 23.7938 15.488C24.2285 15.4481 24.3763 15.8618 24.522 16.1261C24.3155 16.3166 24.0683 16.4758 23.903 16.6961C23.8679 16.9453 24.1354 17.1785 24.4239 17.1397C24.5305 16.9217 25.0531 16.5244 24.5098 16.4275C24.6627 16.2753 24.9131 16.1372 24.8038 15.9041C24.7088 15.3262 23.9267 15.0617 23.3268 15.1661C22.6322 15.2031 22.0466 15.5648 21.5865 15.989C21.5677 15.2973 21.4897 14.5917 21.1597 13.9523C20.7639 13.1823 20.35 12.4178 20.0141 11.6251C20.3713 11.196 20.7222 10.7633 21.0476 10.3166C21.6073 10.2892 22.2133 10.266 22.6772 10.5907C22.7678 10.5221 22.857 10.4534 22.9459 10.3851C22.4832 10.0771 21.9152 9.94961 21.3431 9.90172C22.0633 8.99344 23.1976 8.46316 24.3145 7.99374C23.3838 7.94161 22.6665 8.48678 21.8272 8.71957C21.988 8.36096 22.1788 8.01274 22.316 7.64848C22.452 7.28563 22.3134 6.88709 22.47 6.53053C22.6675 6.20735 23.0068 5.97752 23.2896 5.71149C22.3739 5.86505 21.9359 6.65931 21.8753 7.39336C21.8541 7.86907 21.6191 8.30164 21.2888 8.67437C20.9223 7.7399 20.9916 6.67844 21.3507 5.74692C21.1442 5.96058 20.8731 6.15369 20.7914 6.43449C20.6415 7.20847 20.711 7.99746 20.8411 8.76849C20.9726 9.53964 20.4331 10.23 19.9276 10.8191C19.9323 10.2647 20.0857 9.70296 19.9501 9.15085C19.8615 8.76759 19.5597 8.45071 19.4596 8.06988C19.4037 7.69445 19.4439 7.31658 19.4323 6.94012C19.3329 7.31516 19.215 7.69316 19.2293 8.08105C19.2721 8.58758 19.5958 9.06329 19.5024 9.58085C19.4009 10.2177 19.3832 10.8644 19.4596 11.5055C19.0706 11.8888 18.6795 12.2736 18.2475 12.6217C17.9492 11.9149 17.5711 11.1902 17.7267 10.4177C17.8906 9.53412 18.0554 8.63277 17.7965 7.7476C17.6091 8.36994 17.6296 9.02027 17.4723 9.64608C17.3443 10.1642 17.1835 10.6959 17.2822 11.2281C17.38 11.7434 17.5064 12.2539 17.5265 12.7774C16.9373 12.439 16.4989 11.9554 16.038 11.5005C16.1162 10.8585 16.0956 10.2132 15.9951 9.57328C15.9031 9.0611 16.221 8.58976 16.2667 8.0885C16.2857 7.70215 16.1683 7.32402 16.0649 6.95141C16.0539 7.32261 16.0922 7.69637 16.0399 8.0668C15.9398 8.45173 15.6332 8.76926 15.5457 9.15714C15.4137 9.70514 15.5648 10.2598 15.5681 10.8092C15.0581 10.2267 14.5275 9.5381 14.6561 8.77093C14.7849 7.99965 14.8565 7.21206 14.707 6.4395C14.6262 6.15561 14.3532 5.95981 14.1466 5.74346C14.5373 6.68307 14.5086 7.72141 14.2594 8.68452C13.4316 8.04343 13.7954 6.983 13.1824 6.24626C12.971 5.94196 12.563 5.8309 12.2041 5.71059C12.5057 5.9982 12.9014 6.24074 13.0645 6.6145C13.157 6.9857 13.0519 7.38167 13.2156 7.7417C13.3551 8.07065 13.5208 8.39254 13.6696 8.71995C12.8344 8.48434 12.1166 7.94456 11.1889 7.99233C12.3006 8.46778 13.4359 8.99241 14.1539 9.90056C13.4236 9.93754 12.6897 10.1566 12.2976 10.728C12.2672 10.4745 12.2371 10.2209 12.2025 9.96913C12.0724 10.0142 11.9436 10.0593 11.8135 10.1047C11.7356 9.87309 11.653 9.6448 11.5628 9.41702C11.1637 9.5087 10.7926 9.68409 10.6732 10.0512C10.1985 10.0799 10.1919 10.5906 10.3873 10.8593C10.6813 11.1074 11.1289 11.1924 11.3385 11.5181C10.7667 11.461 10.1887 11.1144 9.61378 11.3416C9.0292 11.5304 9.0959 12.1596 8.95001 12.5896C9.06612 12.8523 9.11539 13.1305 9.16601 13.4086C9.5852 13.3182 10.0077 13.2427 10.4252 13.1475C10.727 12.9486 10.8254 12.5857 11.1399 12.3867C10.8728 12.9088 10.5584 13.417 10.4236 13.9832C10.7728 14.2381 10.8742 14.6503 11.2 14.9245C11.4098 14.7076 11.6099 14.483 11.7958 14.2483C11.8531 14.2921 11.9689 14.3774 12.0276 14.421C12.3597 14.1265 12.6982 13.7182 12.4612 13.2924C12.3672 13.0125 11.8867 12.5414 12.4692 12.4539C12.8091 12.8041 12.7917 13.2882 12.9378 13.7087C13.0187 13.6799 13.1809 13.6237 13.2617 13.5962C13.5255 13.7443 13.7875 13.892 14.0512 14.0403C14.4672 13.5876 14.4562 12.9913 14.44 12.4432C14.1509 11.9581 13.2949 12.237 12.9346 11.7785C13.2744 11.8387 13.5998 11.9431 13.9431 11.9909C14.2989 11.8961 14.5765 11.6609 14.9023 11.5128C14.7596 11.0826 14.4401 10.6499 13.9385 10.4922C13.3557 10.3742 13.0078 10.9265 12.4662 10.9977C12.7983 10.3211 13.7067 10.2402 14.4483 10.3141C14.7755 10.7608 15.125 11.1935 15.4838 11.6225C14.9198 13.0691 13.7939 14.3951 13.9117 15.988C13.2827 15.3647 12.2315 14.9344 11.2913 15.2575C10.7527 15.4227 10.4143 16.1278 10.9878 16.4263C10.4495 16.5274 10.986 16.9305 11.0799 17.1582C11.3435 17.1335 11.6646 16.962 11.5819 16.6952C11.4375 16.4646 11.1738 16.3173 10.9754 16.1261C11.1278 15.9017 11.2038 15.5306 11.5709 15.4962C12.1487 15.4486 12.6968 15.7113 13.1241 16.0246C13.5403 16.3311 13.5989 16.8278 13.6927 17.2604C13.9054 18.4034 14.4266 19.4922 15.1682 20.4536C15.7528 21.3086 16.4323 22.1349 16.7786 23.0897C14.9762 23.1773 13.183 23.4077 11.4345 23.7961C10.5339 23.1003 10.0371 22.129 9.76368 21.1309C9.5526 21.4309 9.32693 21.8214 8.85534 21.8226C8.45386 21.8484 8.19157 21.5458 7.9784 21.2996C7.12767 20.2775 6.28392 19.2497 5.42157 18.2352C5.94452 18.1652 6.52552 18.1148 6.92253 17.7763C7.59747 17.2203 7.72936 16.3612 7.76106 15.5968C7.74365 13.967 7.61012 12.3409 7.43714 10.7174C8.33775 10.6052 9.25711 10.1723 9.56838 9.39455C9.72081 8.78223 9.68122 8.03547 9.10617 7.58788C8.40444 7.06594 7.21787 7.20577 6.68763 7.86034C6.13149 8.32732 6.39215 9.22597 7.12439 9.42601C7.75318 9.64364 8.50105 9.20401 8.53335 8.62995C8.62058 8.2151 8.24084 7.90553 7.99329 7.59584C8.31572 7.7069 8.69695 7.77932 8.90357 8.04356C9.35938 8.59708 9.16258 9.44231 8.5335 9.83675C7.51708 10.4994 5.89569 10.2474 5.21585 9.3134C4.14986 7.93095 5.16657 5.84078 6.95647 5.35583C7.74081 5.13332 8.58232 5.18262 9.39242 5.25247ZM23.9513 9.40739C23.8524 9.63761 23.7619 9.87039 23.6781 10.1033C23.5486 10.0582 23.4185 10.0146 23.2897 9.96887C23.2585 10.2195 23.2305 10.4704 23.2107 10.7226C23.0594 10.8076 22.9088 10.891 22.7596 10.9758C22.4054 10.7511 22.0436 10.3828 21.551 10.4949C21.0571 10.6553 20.7377 11.0799 20.5979 11.5059C20.8718 11.6428 21.1381 11.7921 21.3592 11.9893C21.7687 11.9616 22.163 11.8578 22.5614 11.7823C22.1576 12.2357 21.3126 11.973 20.9955 12.5059C21.1849 13.0192 20.9761 13.6125 21.45 14.0415C21.7102 13.8936 21.9705 13.7458 22.2327 13.599C22.3154 13.6248 22.4807 13.6784 22.5627 13.7056C22.7037 13.2877 22.6928 12.8126 23.0188 12.4582C23.6156 12.5292 23.1282 13.0178 23.0344 13.2979C22.7994 13.7249 23.1418 14.1319 23.4749 14.4233C23.5321 14.3794 23.6449 14.2933 23.7015 14.2496C23.8874 14.4839 24.0875 14.7083 24.2983 14.926C24.6192 14.6497 24.7265 14.2445 25.0688 13.9858C24.9765 13.6984 24.875 13.4131 24.8038 13.1197C24.6359 12.9116 24.4656 12.7031 24.3106 12.4867C24.7657 12.4775 24.7371 12.9788 25.0552 13.1458C25.4777 13.2429 25.9058 13.3196 26.332 13.4086C26.3828 13.1318 26.4314 12.8536 26.548 12.5894C26.4015 12.155 26.4673 11.5222 25.8695 11.3387C25.2999 11.1194 24.7267 11.4621 24.1612 11.5208C24.3696 11.1978 24.8111 11.1086 25.1061 10.8662C25.2676 10.6372 25.1757 10.3526 25.2002 10.1006C25.1061 10.1033 24.9223 10.1075 24.8303 10.1105C24.7416 9.71541 24.3654 9.51653 23.9513 9.40739ZM11.7462 16.3795C11.7462 16.6304 11.7492 16.8807 11.7556 17.1316C12.0287 17.0922 12.4512 17.1499 12.4895 16.8219C12.5718 16.437 12.0682 16.3806 11.7462 16.3795ZM23.0124 16.8178C23.0396 17.1469 23.4679 17.0963 23.738 17.1369C23.7475 16.8854 23.7528 16.6345 23.7549 16.3824C23.4365 16.3783 22.9218 16.4381 23.0124 16.8178ZM12.6117 16.5022C12.634 16.7426 12.5276 17.0111 12.6956 17.2274C13.0358 17.458 13.552 17.0129 13.29 16.7209C13.1659 16.5111 12.8257 16.5727 12.6117 16.5022ZM22.1591 16.8055C22.0497 17.1058 22.4892 17.4263 22.803 17.2274C22.9682 17.0108 22.8653 16.7426 22.8889 16.5029C22.6374 16.5663 22.2358 16.5193 22.1591 16.8055ZM9.91492 17.017C9.63864 16.8988 9.18268 16.9097 9.15574 17.2497C9.03189 17.5083 9.47325 17.5494 9.63864 17.6758C9.88962 17.6787 9.94529 17.4466 10.0388 17.2974C10.3468 17.5729 11.0489 17.395 10.8469 16.9724C10.7025 16.5275 10.1166 16.7209 9.91492 17.017ZM24.9053 17.4249C25.1052 17.5142 25.2726 17.3373 25.4579 17.3003C25.5028 17.3744 25.5935 17.5236 25.6377 17.5977C25.9624 17.8609 26.5478 17.4579 26.3048 17.1306C26.1763 16.8679 25.8265 16.9484 25.5837 17.0172C25.4042 16.9235 25.3013 16.6676 25.0554 16.7075C24.6009 16.6785 24.4302 17.3196 24.9053 17.4249ZM10.8536 17.3602C10.9824 17.5852 11.1746 18.0147 11.5522 17.8409C11.9366 17.7615 11.8098 17.3919 11.7812 17.1563C11.4701 17.2192 11.1615 17.2874 10.8536 17.3602ZM11.9272 17.3754C11.9429 17.7221 12.3101 18.137 12.7247 17.8539C13.0688 17.5838 12.712 17.3849 12.4292 17.2454C12.2625 17.2874 12.0941 17.3319 11.9272 17.3754ZM23.0904 17.2221C22.9733 17.3754 22.495 17.4372 22.6551 17.6687C22.7495 18.113 23.6038 17.9572 23.5142 17.53C23.5711 17.3097 23.225 17.322 23.0904 17.2221ZM23.7202 17.1551C23.6888 17.3984 23.5616 17.7674 23.954 17.8461C24.3355 18.0019 24.5099 17.5823 24.6523 17.3631C24.3429 17.2908 24.0317 17.221 23.7202 17.1551ZM10.6649 18.0648C10.7901 18.0507 11.0443 18.0249 11.1715 18.0125C10.9901 17.8239 10.8219 17.6265 10.6077 17.4661C10.3137 17.5811 10.6109 17.8838 10.6649 18.0648ZM24.3273 18.0054C24.4526 18.0227 24.7054 18.0535 24.8307 18.0699C24.9241 17.8975 24.9955 17.7162 25.0405 17.5299C24.6924 17.4066 24.5542 17.8726 24.3273 18.0054ZM8.87782 18.3397C9.39064 18.6312 9.82278 17.9249 9.29715 17.6868C8.82392 17.4548 8.39164 18.1294 8.87782 18.3397ZM9.68166 17.7839C9.65784 17.9907 9.63239 18.1976 9.60708 18.4044C9.92639 18.5002 10.4615 18.4785 10.4264 18.0812C10.4312 17.7233 9.97655 17.7139 9.68166 17.7839ZM25.1483 17.8808C24.8873 18.1506 25.2691 18.5896 25.6443 18.4537C26.0112 18.3862 25.8153 18.0147 25.8661 17.7921C25.6292 17.7921 25.3069 17.6523 25.1483 17.8808ZM26.2128 17.6058C26.1327 17.6977 25.974 17.8797 25.8973 17.9713C26.0353 18.1053 26.0496 18.4079 26.317 18.3907C26.6001 18.4664 26.9338 18.1706 26.8151 17.9309C26.768 17.6787 26.425 17.6851 26.2128 17.6058ZM11.2837 17.9919C11.3365 18.1294 11.4428 18.4026 11.4951 18.5395C11.9144 18.4807 12.0951 18.1933 12.0951 17.8426C11.8241 17.8902 11.554 17.9437 11.2837 17.9919ZM22.5502 17.9989C22.5407 18.3292 22.7488 18.6195 22.8516 18.9285C23.0219 18.9714 23.1933 19.0138 23.3643 19.0578C23.3247 18.7976 23.3971 18.4425 22.9712 18.4425C23.1726 18.3632 23.3564 18.2574 23.4236 18.0617C23.1334 18.0366 22.8424 17.9978 22.5502 17.9989ZM23.4027 17.8438C23.4109 18.1946 23.5791 18.4902 24.0111 18.5331C24.0619 18.3974 24.1634 18.1276 24.2148 17.9919C23.9431 17.9437 23.6747 17.8902 23.4027 17.8438ZM10.6426 18.5983C11.0649 18.9053 11.4364 18.4325 11.2728 18.0811C10.9538 18.144 10.231 18.1935 10.6426 18.5983ZM12.0698 18.0619C12.1746 18.2746 12.4003 18.3962 12.5987 18.5367C12.4924 18.525 12.2778 18.5014 12.1714 18.4902C12.1687 18.677 12.1653 18.8622 12.1636 19.049C12.3238 19.0079 12.4847 18.9682 12.6461 18.9285C12.7608 18.6341 12.9048 18.3491 12.98 18.0441C12.686 17.9519 12.3702 18.0577 12.0698 18.0619ZM24.2176 18.1018C24.2271 18.3016 24.1354 18.5866 24.4315 18.6701C24.794 18.8082 24.9492 18.4456 25.0214 18.2153C24.7524 18.1782 24.4857 18.1399 24.2176 18.1018ZM9.55915 18.5878C9.62911 18.8304 9.71634 19.2206 10.1151 19.1495C10.4947 19.1401 10.4566 18.7534 10.5311 18.5287C10.2068 18.5466 9.88307 18.5672 9.55915 18.5878ZM11.3744 18.6389L11.6364 18.8645C11.2757 18.7986 10.909 18.815 10.5453 18.8503C10.5913 19.0166 10.6439 19.1794 10.7025 19.3427C10.8962 19.4139 11.0933 19.4796 11.2949 19.5355C11.3681 19.3357 11.441 19.1365 11.5094 18.9367C11.9174 19.1977 12.0273 18.8289 12.1526 18.5566C11.8937 18.5837 11.6331 18.6113 11.3744 18.6389ZM23.3244 18.5548C23.4669 18.815 23.5806 19.1977 23.9854 18.9367C24.0589 19.1365 24.1332 19.3375 24.2054 19.5367C24.666 19.4932 24.9388 19.2526 24.9562 18.8507C24.5924 18.8167 24.2238 18.7987 23.8634 18.8637L24.1237 18.6375C23.8572 18.6083 23.5901 18.5812 23.3244 18.5548ZM24.964 18.5301C25.0375 18.7511 25.0039 19.1342 25.3778 19.1466C25.7788 19.2289 25.868 18.8316 25.9396 18.588C25.6136 18.5672 25.29 18.5484 24.964 18.5301ZM11.7968 19.2318C11.5665 19.2823 11.4141 19.5139 11.5205 19.7083C11.5825 20.0604 12.27 20.0508 12.3497 19.7136C12.4846 19.4234 12.137 19.1231 11.7968 19.2318ZM12.3559 19.0578C12.4402 19.3411 12.5258 19.625 12.6102 19.9099C12.7894 19.7589 13.1309 19.6425 13.066 19.3792C13.034 19.0784 12.6147 19.0877 12.3559 19.0578ZM22.4326 19.3751C22.3628 19.6451 22.7123 19.7605 22.8979 19.911C22.9739 19.6355 23.0566 19.3628 23.119 19.0848C22.8455 19.0425 22.477 19.0877 22.4326 19.3751ZM23.3694 19.2476C23.0886 19.3329 23.0233 19.763 23.3046 19.8999C23.5677 20.0832 24.0431 19.8919 23.9968 19.589C24.0555 19.307 23.6351 19.1401 23.3694 19.2476ZM10.7691 20.1326C11.1771 20.3014 11.3471 19.8864 11.4677 19.6425C11.1548 19.5879 10.8402 19.5367 10.5273 19.4891C10.5372 19.7124 10.4263 20.0521 10.7691 20.1326ZM24.0378 19.6291C24.14 19.8318 24.249 20.0316 24.3635 20.2291C24.7859 20.1645 25.1749 19.9097 24.9385 19.5139C24.6353 19.5367 24.3368 19.5861 24.0378 19.6291ZM11.4857 19.9564C11.3858 20.0492 11.1822 20.2373 11.0806 20.3318C11.2603 20.467 11.4078 20.7578 11.7033 20.6561C11.9939 20.6191 11.9906 20.3229 12.1021 20.1448C11.8969 20.0809 11.692 20.0193 11.4857 19.9564ZM12.0698 20.5986C12.2988 20.6221 12.5937 20.8725 12.7909 20.6738C13.1528 20.4905 12.9304 19.9664 12.5207 20.001C12.1307 19.9605 12.2035 20.3959 12.0698 20.5986ZM22.6126 20.5986C22.7992 20.8695 23.1787 20.6779 23.4267 20.5956C23.2966 20.3876 23.364 19.9603 22.9695 19.9986C22.62 19.9833 22.3863 20.3659 22.6126 20.5986ZM23.4027 20.152C23.4408 20.467 23.7808 20.8524 24.1664 20.5922C24.5807 20.4109 24.1446 20.1427 24.0111 19.9276C23.8088 20.0027 23.6058 20.0779 23.4027 20.152ZM7.1753 7.999C7.63438 7.78124 8.21717 8.18955 8.11699 8.61942C8.07724 9.01154 7.50875 9.25935 7.12439 9.03042C6.68808 8.80996 6.7055 8.18094 7.1753 7.999ZM27.7852 7.98783C28.1841 7.81951 28.6807 8.10583 28.6923 8.47985C28.7523 8.88661 28.2103 9.25794 27.7722 9.06894C27.2363 8.89072 27.2588 8.16322 27.7852 7.98783ZM11.3172 10.6824C11.5569 10.8675 11.7668 11.0837 12.0368 11.2361C12.4606 11.311 12.8896 11.1934 13.3116 11.1594C13.0054 11.2716 12.6891 11.3701 12.3939 11.5044C12.4877 11.9136 12.8159 12.2302 13.1052 12.5491L13.0429 12.5975C12.764 12.34 12.4904 12.0768 12.2218 11.8098C11.9278 12.1836 11.7517 12.6099 11.5737 13.0319C11.5947 12.6059 11.6706 12.1827 11.8596 11.7879C11.5308 11.8278 11.1987 11.8648 10.867 11.8865C11.2721 11.7428 11.6898 11.6299 12.1026 11.5057C11.7919 11.27 11.4857 11.0183 11.3172 10.6824ZM23.4679 11.2329C23.7336 11.0808 23.9404 10.8687 24.1747 10.6851C24.0126 11.0207 23.7033 11.2699 23.3957 11.5067C23.8076 11.6298 24.2191 11.741 24.6237 11.8779C24.2919 11.8629 23.9635 11.8273 23.6366 11.7889C23.828 12.1833 23.9019 12.6063 23.9254 13.0314C23.7475 12.611 23.565 12.1885 23.285 11.8093C22.9913 12.1009 22.6943 12.3927 22.3516 12.6432C22.5914 12.2665 23.069 11.9378 23.0642 11.4897C22.7855 11.3574 22.4851 11.268 22.1929 11.1613C22.6153 11.1936 23.0462 11.314 23.4679 11.2329ZM15.8865 12.1123C16.3737 12.6207 16.9679 13.0358 17.5077 13.4985C16.3865 14.2097 15.27 14.9805 14.5585 16.0352C14.6121 15.0404 14.8614 14.0437 15.389 13.1534C15.5877 12.8194 15.7433 12.4672 15.8865 12.1123ZM18.0384 13.5124C18.4815 12.9879 19.1563 12.6406 19.6115 12.1152C19.7553 12.4659 19.909 12.8156 20.1055 13.1468C20.6338 14.04 20.8868 15.0384 20.9383 16.0345C20.2438 14.982 19.1213 14.2441 18.0384 13.5124ZM14.7178 17.5289C14.7301 16.0686 16.1834 15.0855 17.4255 14.2962C17.4319 14.9675 17.445 15.6385 17.4047 16.3101C17.6128 16.3566 17.8175 16.4071 18.0189 16.47C17.8237 16.4782 17.6302 16.4853 17.4364 16.4976C17.3362 16.3024 17.2331 16.1103 17.1253 15.9194C16.7695 16.0729 16.4943 16.3185 16.4249 16.6675C16.3502 16.6698 16.2026 16.6768 16.1297 16.6798C16.1884 16.9113 16.1741 17.1705 16.3234 17.3776C16.6187 17.5578 16.9888 17.647 17.2158 17.9017C16.8619 17.8747 16.5124 17.8092 16.1569 17.79C15.8391 17.7848 15.6309 18.0195 15.4055 18.1755C15.2964 18.7581 15.3738 19.3313 15.6138 19.882C15.9838 19.7518 16.3603 19.6341 16.7187 19.4818C16.8602 19.2864 16.9172 19.0558 17.008 18.8407C17.0589 18.8542 17.1591 18.8839 17.2097 18.8973C16.8953 19.3099 16.8396 19.8011 16.789 20.2807C17.0555 20.5275 17.2762 20.8084 17.5314 21.0645C17.67 20.8771 17.808 20.6903 17.9436 20.5017C18.3087 20.4602 18.5466 20.1712 18.539 19.8635C18.586 19.3893 17.9055 19.0396 18.2072 18.562C18.5642 18.8541 18.6998 19.2607 18.834 19.6537C19.2251 19.6954 19.5998 19.8065 19.9649 19.9305C19.4063 20.7238 18.7339 21.4508 18.0723 22.1824C18.0652 21.6359 18.0689 21.0893 18.0689 20.5429C17.8796 20.7673 17.6874 20.9919 17.4428 21.176C17.4333 21.511 17.4285 21.8449 17.422 22.1811C16.212 20.8054 14.6983 19.3646 14.7178 17.5289ZM17.9969 14.2835C18.8117 14.7041 19.5158 15.2705 20.1122 15.9017C20.7171 16.5428 20.8868 17.4274 20.7219 18.2272C20.6164 18.8179 20.2914 19.352 20.0249 19.8961C20.0958 19.5066 20.0931 19.1114 19.9868 18.7273C20.0196 18.6612 20.0883 18.5319 20.1235 18.4671C19.7089 18.111 19.0576 18.3013 18.6222 17.9838C18.9704 18.0068 19.3184 18.0485 19.6659 18.0702C19.856 17.866 20.0659 17.6756 20.2817 17.492C20.0752 17.152 19.7817 16.8086 19.3497 16.6756C18.8238 16.6479 18.5512 17.1307 18.1363 17.3292C18.5219 16.6646 19.2196 15.9827 18.883 15.1835C18.7925 14.7252 18.032 14.7605 17.9969 14.2835ZM18.1055 14.8575C18.315 15.1207 18.545 15.4004 18.5371 15.7359C18.5923 16.2742 18.1941 16.722 17.8967 17.1622C18.1399 16.4082 18.037 15.626 18.1055 14.8575ZM4.59927 17.1111C4.34055 16.4194 4.85516 15.6373 5.67597 15.4798C6.24432 15.3029 6.64475 16.058 6.24283 16.3783C5.8936 16.7179 5.31082 16.6551 4.84072 16.7371C5.0661 17.1163 5.3327 17.4769 5.57907 17.8461C5.16642 17.7122 4.67876 17.5353 4.59927 17.1111ZM29.2564 16.3795C28.8531 16.0622 29.2468 15.3071 29.8171 15.478C30.6421 15.6343 31.1592 16.4194 30.8977 17.1139C30.8179 17.5352 30.3337 17.7115 29.9255 17.8485C30.1666 17.4742 30.4316 17.1139 30.6558 16.7319C30.1857 16.6532 29.6059 16.7191 29.2564 16.3795ZM5.53173 17.0851C6.18582 17.0469 6.672 16.6821 6.92581 16.1784C7.47257 16.7907 6.84349 17.5588 6.10336 17.7479C5.88751 17.5442 5.71587 17.3109 5.53173 17.0851ZM28.3669 16.8331C28.2484 16.6004 28.5226 16.4018 28.5985 16.1891C28.8186 16.702 29.3204 17.0384 29.9536 17.081C29.7815 17.3073 29.612 17.5341 29.4389 17.7633C28.9566 17.5905 28.4735 17.3073 28.3669 16.8331ZM17.0614 17.1316C17.3441 17.2691 17.573 17.515 17.8994 17.567C18.2352 17.533 18.5609 17.4536 18.8893 17.3971C18.6175 17.5235 18.3476 17.648 18.0826 17.785C18.3293 18.1535 18.6542 18.4713 18.9826 18.7864C18.6365 18.5754 18.3203 18.3344 18.0159 18.0824C17.8443 18.4535 17.7427 18.8437 17.6394 19.2316C17.5914 18.8464 17.622 18.4591 17.7106 18.0812C17.4441 18.1565 17.1789 18.2317 16.9121 18.3004C17.2247 18.1218 17.5504 17.9649 17.8748 17.8015C17.5744 17.6069 17.2869 17.393 17.0614 17.1316Z" fill="#302E89"/>
<path d="M24.7923 16.4246H24.5448V16.7319H24.7923V16.4246Z" fill="#2C276B"/>
<path d="M12.0572 16.3612C12.1063 16.3001 12.4993 16.514 12.4636 16.6933C12.6747 17.086 11.7851 17.4486 11.7165 16.9832C11.9292 16.8266 11.4732 16.3245 11.8699 16.3809C11.5323 16.5768 12.0828 16.5111 12.0572 16.3612ZM11.0037 16.4188C11.3455 16.219 11.8043 16.7249 11.4979 16.9882C11.3977 17.1075 10.9859 17.2168 10.9945 16.9829C10.9811 16.853 10.8779 16.7667 10.7587 16.6979C10.6735 16.5857 10.8589 16.4817 10.9613 16.4382C10.9884 16.6274 11.3392 16.3759 11.0037 16.4188ZM12.7701 16.6221C12.9109 16.42 13.3812 16.7521 13.2268 16.9688C13.2774 17.2776 12.7369 17.3905 12.5532 17.1513C12.6477 16.9885 12.5798 16.7371 12.7097 16.6219C12.6096 16.9318 13.2788 16.5122 12.7701 16.6221ZM10.2447 16.7362C10.7795 16.4864 11.1119 17.3127 10.5851 17.4267C10.0741 17.6452 9.77026 16.876 10.2447 16.7362ZM10.3011 16.7866C10.1775 16.7789 9.99891 17.0211 10.2039 16.9458C10.3772 16.7884 10.9614 16.749 10.3011 16.7866ZM9.39588 16.9318C9.5236 16.9118 9.98819 16.8504 9.8621 17.097C9.74376 17.3079 10.1725 17.5195 9.84633 17.664C9.24776 17.996 8.85953 17.1316 9.39588 16.9318ZM9.45006 16.9818C9.32651 17.0139 9.23004 17.0896 9.25966 17.2103C9.35374 17.1398 9.79884 16.9054 9.45006 16.9818ZM11.4948 17.185C11.8312 17.1104 11.95 17.6311 11.6599 17.7632C11.4106 18.0129 10.8291 17.7627 10.9346 17.4377C10.9601 17.1962 11.3214 17.312 11.4948 17.185ZM12.3408 17.232C12.5423 17.2259 13.0251 17.4242 12.8295 17.651C12.7482 18.0077 12.1066 18.0223 11.9941 17.6822C11.8245 17.4072 12.1377 17.3208 12.3408 17.232ZM10.6922 17.5693C10.8839 17.708 11.3315 18.1846 10.6883 18.0875C10.6667 17.8655 10.0845 17.513 10.6922 17.5693ZM9.1574 18.3762C8.68849 18.409 8.58905 17.7315 9.04367 17.6963C8.97713 17.7586 8.90895 17.8197 8.85223 17.889C9.00035 17.8409 9.13924 17.7762 9.27694 17.7098C9.73602 17.7663 9.59118 18.4256 9.1574 18.3762ZM10.0218 17.7691C10.2868 17.664 10.5244 17.9889 10.454 18.189C10.4997 18.6009 9.43309 18.7062 9.68735 18.1682C9.57883 17.9073 9.83516 17.8521 10.0218 17.7691ZM11.8835 17.8203C12.1983 17.8788 12.1282 18.3321 11.8266 18.445C11.4545 18.6471 11.5002 18.2021 11.3696 18.0393C11.5512 17.9848 11.7443 17.946 11.8835 17.8203ZM12.79 17.9631C13.1046 17.9026 12.9688 18.5684 12.6969 18.4931C12.5361 18.368 12.0971 18.4368 12.2443 18.1805C12.2379 17.9367 12.6163 18.0676 12.79 17.9631ZM11.2248 18.1094C11.52 18.3301 11.244 18.8301 10.847 18.7246C10.667 18.727 10.5504 18.5255 10.567 18.3855C10.6194 18.1271 11.0298 18.2521 11.2248 18.1094ZM11.9427 18.5502C12.243 18.4156 12.1294 18.9145 11.9384 18.9814C11.6699 19.1354 11.5313 18.7782 11.4024 18.6382C11.5925 18.656 11.7736 18.6183 11.9427 18.5502ZM12.2007 18.5255C12.2562 18.6448 12.3458 18.5837 12.4352 18.5302C12.632 18.5978 12.6835 18.7882 12.7079 18.9522C12.5132 18.9704 12.3438 19.0797 12.144 19.0662C12.244 18.8934 12.2842 18.7112 12.2007 18.5255ZM10.3029 18.5983C10.64 18.4884 10.5868 19.0531 10.3018 19.0822C9.95366 19.2914 9.44381 18.9771 9.67156 18.6303C9.88339 18.6236 10.1091 18.6947 10.3029 18.5983ZM11.2577 18.7981C11.7488 18.8973 11.4607 19.6355 10.9649 19.5032C10.653 19.4515 10.4937 19.0672 10.7511 18.8845C10.9245 18.8774 11.0915 18.8369 11.2577 18.7981ZM12.5015 19.119C13.0464 18.9626 13.2368 19.6067 12.8088 19.7788C12.466 19.911 12.6561 19.4579 12.4873 19.3083C12.4506 19.2453 12.4003 19.1589 12.5015 19.119ZM11.8265 19.1771C12.2113 19.1042 12.6089 19.568 12.3341 19.8594C12.0874 20.0697 11.4222 20.1068 11.5036 19.6555C11.4704 19.4709 11.6072 19.2223 11.8265 19.1771ZM10.5777 19.508C10.8467 19.5039 11.0476 19.7249 11.3445 19.6131C11.5182 19.8925 11.1658 20.2848 10.7953 20.1356C10.4567 20.0815 10.4748 19.729 10.5777 19.508ZM11.5156 20.0533C11.7016 20.1721 12.1796 20.0998 12.0292 20.4218C11.8143 20.6528 11.4421 20.6451 11.191 20.4712C11.0664 20.2296 11.3657 20.1662 11.5156 20.0533ZM12.2748 20.0444C12.7073 19.854 13.1594 20.3088 12.8155 20.615C12.6544 20.8824 11.9386 20.7578 12.1434 20.4299C12.2061 20.3042 12.1557 20.1443 12.2748 20.0444Z" fill="#F6C315"/>
<path d="M23.3226 16.3923C23.514 16.3318 23.712 16.3799 23.8635 16.4833C23.7136 16.6984 23.9045 17.0039 23.6227 17.1497C23.0037 17.3971 22.8136 16.5587 23.3226 16.3923ZM23.3747 16.4447C23.284 16.5133 23.1499 16.5598 23.1206 16.6702C23.2758 16.6086 23.8144 16.3564 23.3747 16.4447ZM24.1711 16.3947C24.4177 16.3089 24.6922 16.4716 24.7719 16.6702C24.6169 16.8066 24.5175 16.9647 24.4749 17.1539C23.9511 17.2949 23.6587 16.524 24.1711 16.3947ZM24.2232 16.4447C24.1275 16.5069 23.9736 16.5463 23.9694 16.6686C24.136 16.6004 24.6748 16.3576 24.2232 16.4447ZM22.4693 16.6333C23.0579 16.3924 23.1478 17.517 22.487 17.2268C22.1415 17.1433 22.1732 16.7437 22.4693 16.6333ZM22.5272 16.6761C22.4748 16.6962 22.367 16.7284 22.404 16.7954C22.4903 16.8424 22.7115 16.6602 22.5272 16.6761ZM24.958 16.7808C25.2359 16.6944 25.5793 16.9459 25.4876 17.1922C25.4368 17.4836 24.8043 17.5885 24.6905 17.2736C24.6007 17.0904 24.7314 16.8401 24.958 16.7808ZM25.6515 17.2873C25.7428 17.2244 25.5664 16.9048 25.7987 16.963C25.6174 17.1846 25.841 17.1194 25.9473 16.9735C26.2178 16.9112 26.4357 17.1868 26.3553 17.403C26.3297 17.7074 25.8157 17.8655 25.5742 17.6363C25.4056 17.5376 25.6071 17.3971 25.6515 17.2873ZM23.8781 17.2132C24.1132 17.2978 24.584 17.1809 24.5717 17.4835C24.6698 17.876 23.9387 18.0147 23.748 17.6974C23.6233 17.5341 23.7221 17.3266 23.8781 17.2132ZM23.0395 17.2755C23.3399 17.2374 23.7977 17.5118 23.4149 17.7932C23.1928 18.2016 22.5482 17.8105 22.6804 17.4618C22.8044 17.406 22.9308 17.3531 23.0395 17.2755ZM24.7901 17.6057C24.9151 17.6057 25.0367 17.6381 25.161 17.6539C24.9842 17.861 24.8401 18.3296 24.4907 18.0282C24.5428 17.8778 24.7478 17.7809 24.7901 17.6057ZM26.2589 17.7079C26.6254 17.6057 26.9942 17.9958 26.7327 18.2656C26.5521 18.5165 26.1359 18.4313 25.9672 18.2168C25.8825 18.0094 26.0283 17.7768 26.2589 17.7079ZM25.2938 17.7526C25.9593 17.6199 26.0838 18.7358 25.3511 18.5595C24.9014 18.4331 24.9382 17.9536 25.2938 17.7526ZM23.5984 17.8538C23.7721 17.8732 23.922 18.083 24.1489 18.0495C24.0801 18.2111 24.0371 18.4244 23.8498 18.5108C23.4694 18.5424 23.2983 18.0283 23.5984 17.8538ZM22.6341 17.9425C22.8549 17.929 22.9924 18.164 23.2398 18.0999C23.4307 18.3896 22.7419 18.6217 22.6171 18.3309C22.5122 18.2128 22.597 18.0671 22.6341 17.9425ZM24.2774 18.1417C24.5254 18.214 24.9315 18.1412 24.9958 18.4308C25.023 18.6965 24.5526 18.8692 24.3176 18.7223C24.1098 18.5736 24.1193 18.3186 24.2774 18.1417ZM23.0889 18.5378C23.4807 18.4096 23.1724 18.9104 23.404 19.0589C23.2133 19.113 22.6686 19.0564 22.8059 18.7819C22.8541 18.6699 22.958 18.5789 23.0889 18.5378ZM23.482 18.5795C23.6851 18.5907 23.9109 18.5795 24.0894 18.6735C23.945 18.8265 23.8278 19.2 23.5426 18.9985C23.4176 18.9056 23.3195 18.6728 23.482 18.5795ZM25.1126 18.583C25.3559 18.6922 25.6372 18.6529 25.9016 18.6776C26.065 19.0913 25.4526 19.3481 25.1216 19.0984C24.9539 18.965 24.9659 18.7264 25.1126 18.583ZM24.2195 18.8263C24.4027 18.8174 24.5656 18.9561 24.757 18.878C25.1065 19.0978 24.6568 19.7189 24.2702 19.4915C23.8607 19.4039 23.9435 18.9867 24.2195 18.8263ZM22.6348 19.1647C22.7731 19.1982 22.9987 19.0966 23.1203 19.2106C23.0037 19.425 22.9095 19.6525 22.953 19.8922C22.4992 19.9028 22.289 19.4081 22.6348 19.1647ZM22.6941 19.2206C22.6277 19.2452 22.5391 19.3141 22.5762 19.3828C22.6566 19.4081 22.7973 19.2541 22.6941 19.2206ZM23.4318 19.2199C23.8073 19.0801 24.1534 19.4809 23.9622 19.7559C23.9916 20.0879 23.3739 20.1331 23.2036 19.8763C23.0244 19.6566 23.128 19.3046 23.4318 19.2199ZM24.7906 19.5691C25.0843 19.4909 25.1064 19.9064 24.9522 20.048C24.7557 20.3435 23.9974 20.1819 24.1459 19.7917C24.1438 19.5226 24.6098 19.7212 24.7906 19.5691ZM22.7861 20.1314C23.3781 19.6096 23.7086 20.9324 22.9591 20.7707C22.5674 20.8683 22.4733 20.3053 22.673 20.1949C22.6417 20.4705 22.9482 20.1379 23.079 20.082C22.9802 20.0938 22.8834 20.1119 22.7861 20.1314ZM23.9421 20.1067C24.154 20.0419 24.4667 20.3658 24.2486 20.5151C24.0521 20.6902 23.627 20.6672 23.5432 20.4108C23.3375 20.0856 23.765 20.1996 23.9421 20.1067Z" fill="#F6C315"/>
<path d="M37.2695 12.421C37.4235 12.4774 37.6422 12.5334 37.877 12.5334C38.2658 12.5334 38.4602 12.3296 38.4602 12.1045C38.4602 11.8865 38.3062 11.6616 38.1928 11.4576L36.5 8.36377H37.9013L39.2054 11.0005L40.4851 8.36377H41.8376L39.8937 12.0482C39.3592 13.0677 38.9055 13.4615 37.9741 13.4615C37.6663 13.4615 37.3909 13.3912 37.2695 13.349V12.421Z" fill="black"/>
<path d="M43.336 13.3705H41.7728L44.0812 10.4103L41.9833 8.36414H43.5061L45.5067 10.4103V8.36401H46.7217V10.4102L48.7223 8.36401H50.2451L48.1473 10.4102L50.4557 13.3703H48.8845L47.3456 11.1906L46.722 11.8024V13.3703H45.507V11.8024L44.8832 11.1906L43.336 13.3705Z" fill="black"/>
<path d="M54.9585 9.29922H52.2046V13.3705H50.9412V8.36401H54.9585V9.29922Z" fill="black"/>
<path d="M61.0251 10.8741C61.0251 12.4352 59.883 13.4898 58.1902 13.4898C56.4813 13.4898 55.3392 12.4422 55.3392 10.8741C55.3392 9.28502 56.4732 8.24438 58.1984 8.24438C59.883 8.24438 61.0251 9.30626 61.0251 10.8741ZM56.619 10.8532C56.619 11.9289 57.2184 12.5758 58.1983 12.5829C59.154 12.5829 59.7453 11.9219 59.7453 10.8532C59.7453 9.79841 59.1459 9.1445 58.1822 9.1445C57.2265 9.1445 56.619 9.8124 56.619 10.8532Z" fill="black"/>
<path d="M64.3863 8.36401C65.6337 8.36401 66.5003 8.87028 66.5003 9.97425C66.5003 11.0641 65.6094 11.5704 64.4511 11.5704H63.1551V13.3703H61.8997V8.36401H64.3863ZM63.1551 10.7055H64.2808C64.8478 10.7055 65.2691 10.5437 65.2691 9.98823C65.2691 9.45386 64.8479 9.264 64.2891 9.264H63.1551V10.7055Z" fill="black"/>
<path d="M72.7287 10.8741C72.7287 12.4352 71.5867 13.4898 69.8938 13.4898C68.1849 13.4898 67.0428 12.4422 67.0428 10.8741C67.0428 9.28502 68.1768 8.24438 69.902 8.24438C71.5867 8.24438 72.7287 9.30626 72.7287 10.8741ZM68.3226 10.8532C68.3226 11.9289 68.922 12.5758 69.9019 12.5829C70.8576 12.5829 71.449 11.9219 71.449 10.8532C71.449 9.79841 70.8495 9.1445 69.8858 9.1445C68.9301 9.1445 68.3226 9.8124 68.3226 10.8532Z" fill="black"/>
<path d="M77.7747 14.6573V13.3705H74.1137V14.6573H72.8906V12.4352H73.328C74.0083 11.6477 74.2514 10.6001 74.2514 9.12348V8.36401H78.3578V12.4352H78.9976V14.6573H77.7747ZM77.0943 9.257H75.5068V9.34145C75.5068 10.7125 75.2476 11.6267 74.7373 12.4352H77.0943V9.257Z" fill="black"/>
<path d="M82.2537 13.4898C80.5771 13.4898 79.4675 12.4422 79.4675 10.86C79.4675 9.40456 80.5367 8.24438 82.3022 8.24438C83.6872 8.24438 84.6996 9.00385 84.7969 10.0374H83.5578C83.4281 9.48887 82.9583 9.16548 82.278 9.16548C81.1684 9.16548 80.7391 10.0304 80.7391 10.867C80.7391 11.9007 81.3304 12.5616 82.2619 12.5616C83.0232 12.5616 83.4769 12.1677 83.5821 11.4365H84.8375C84.7078 12.6601 83.8332 13.4898 82.2537 13.4898Z" fill="black"/>
<path d="M88.223 13.3705H85.6716V8.36401H86.927V10.164H88.2878C89.4461 10.164 90.337 10.6702 90.337 11.7601C90.337 12.8641 89.4703 13.3705 88.223 13.3705ZM88.1177 11.029H86.9272V12.4703H88.1259C88.7334 12.4703 89.1059 12.2805 89.1059 11.7461C89.1058 11.2189 88.6846 11.029 88.1177 11.029Z" fill="black"/>
<path d="M93.9573 10.3399L96.4277 13.3703H94.8402L93.0907 11.1203L92.3537 11.7531V13.3703H91.1063V8.36401H92.3537V10.4453L94.6215 8.36401H96.217L93.9573 10.3399Z" fill="black"/>
<path d="M102 13.3705H100.672L100.218 12.2525H98.0719L97.6021 13.3705H96.3061L98.5011 8.35718H99.8051L102 13.3705ZM99.149 9.58755L98.3797 11.4508H99.9105L99.149 9.58755Z" fill="black"/>
<path d="M41.5932 20.4015H41.1544V17.8819C41.1544 17.4424 41.1747 17.0089 41.2084 16.5693C41.114 16.8214 41.006 17.0792 40.8913 17.3253L39.474 20.4015H39.0622L37.6245 17.3605C37.5031 17.1086 37.4018 16.8506 37.3073 16.5929C37.3411 17.0207 37.3613 17.4425 37.3613 17.8702V20.4015H36.9227V16.2295H37.5437L38.9408 19.2061C39.0622 19.4638 39.1635 19.7275 39.2715 19.9913C39.3796 19.7336 39.474 19.4699 39.5887 19.2179L40.9656 16.2295H41.5934V20.4015H41.5932Z" fill="black"/>
<path d="M43.0444 20.4015H42.5854V16.2295H43.0444V20.4015Z" fill="black"/>
<path d="M46.0276 20.4954C44.6979 20.4954 43.8273 19.6399 43.8273 18.3216C43.8273 17.1497 44.6102 16.1301 46.0681 16.1301C46.9927 16.1301 47.9243 16.6341 48.0323 17.4837H47.5734C47.4248 16.8625 46.8376 16.4758 46.0546 16.4758C44.9882 16.4758 44.2796 17.214 44.2796 18.3216C44.2796 19.4291 44.9748 20.1555 46.0412 20.1555C47.0065 20.1555 47.5397 19.5813 47.6408 18.802H48.093C47.9917 19.8332 47.1818 20.4954 46.0276 20.4954Z" fill="black"/>
<path d="M50.9412 20.4015H48.8015V16.2295H49.2606V17.9874H50.9412C51.8254 17.9874 52.372 18.4561 52.372 19.1943C52.3722 19.9328 51.8254 20.4015 50.9412 20.4015ZM50.84 18.3272H49.2607V20.0616H50.84C51.5149 20.0616 51.9133 19.7336 51.9133 19.1944C51.9133 18.6554 51.5149 18.3272 50.84 18.3272Z" fill="black"/>
<path d="M54.741 17.9348L57.0157 20.4016H56.4285L54.4171 18.2043L53.4992 18.9309V20.4015H53.047V16.2295H53.4992V18.4737L56.3002 16.2295H56.9077L54.741 17.9348Z" fill="black"/>
<path d="M61.2475 20.4017H60.7412L60.1607 19.0892H57.9603L57.3731 20.4017H56.8804L58.8243 16.218H59.3305L61.2475 20.4017ZM59.0742 16.5931L58.1022 18.7668H60.0191L59.0742 16.5931Z" fill="black"/>
<path d="M65.6347 16.2295C66.5325 16.2295 67.1466 16.622 67.1466 17.4015C67.1466 18.216 66.5324 18.6202 65.6211 18.6202H64.035V20.4015H63.5759V16.2295H65.6347ZM64.0351 18.2863H65.493C66.1545 18.2863 66.6877 18.0517 66.6877 17.4309C66.6877 16.8332 66.2286 16.5695 65.5403 16.5695H64.0351V18.2863Z" fill="black"/>
<path d="M71.1626 20.4017H70.6562L70.0758 19.0892H67.8754L67.2882 20.4017H66.7954L68.7393 16.218H69.2455L71.1626 20.4017ZM68.9892 16.5931L68.0173 18.7668H69.9342L68.9892 16.5931Z" fill="black"/>
<path d="M75.3335 21.5267V20.4016H71.6077V21.5267H71.1487V20.0618H71.5874C72.3365 18.843 72.3028 17.4543 72.3028 16.47V16.2297H75.2861V20.0619H75.7923V21.5268H75.3335V21.5267ZM74.8274 16.5694H72.762V16.6457C72.762 17.5773 72.7687 18.925 72.0735 20.0618H74.8274V16.5694Z" fill="black"/>
<path d="M80.1665 20.4017H79.6601L79.0797 19.0892H76.8793L76.2921 20.4017H75.7993L77.7432 16.218H78.2494L80.1665 20.4017ZM77.9931 16.5931L77.0212 18.7668H78.9381L77.9931 16.5931Z" fill="black"/>
</svg>
