<svg width="189" height="50" viewBox="0 0 189 50" fill="none" xmlns="http://www.w3.org/2000/svg">
<path d="M6.3755 33.3672C4.29112 33.3672 2.74707 31.8694 2.74707 29.8079V19.5007C2.74707 17.4391 4.29112 15.9414 6.3755 15.9414H9.73382C11.8182 15.9414 13.3372 17.4391 13.3372 19.5007V20.8007H9.83142V19.8439C9.83142 19.5485 9.63612 19.3779 9.341 19.3779H6.74333C6.44824 19.3779 6.27783 19.5506 6.27783 19.8439V29.4647C6.27783 29.7601 6.45031 29.9307 6.74333 29.9307H9.34308C9.63819 29.9307 9.83349 29.758 9.83349 29.4647V28.5078H13.3393V29.8079C13.3393 31.8694 11.8182 33.3672 9.73589 33.3672H6.3755Z" fill="#008AD2"/>
<path d="M29.2995 16.0645H33.2231V33.2446H29.8398V24.5558H29.6445L26.5792 33.2446H22.6806L19.6154 24.5558H19.4201V33.2446H16.0369V16.0645H19.9604L24.5218 28.8763H24.7421L29.2995 16.0645Z" fill="#008AD2"/>
<path d="M36.4089 33.2446V16.0645H40.0374V33.2446H36.4089Z" fill="#008AD2"/>
<path d="M54.0149 33.2446H50.3614V19.501H48.2522L46.2904 33.2446H42.6121L45.0893 16.0645H54.0149V33.2446Z" fill="#008AD2"/>
<path d="M67.7934 33.2446H64.4103V24.1876H64.2149L60.7568 33.2446H57.2012V16.0645H60.5844V25.1695H60.7797L64.2377 16.0645H67.7934V33.2446Z" fill="#008AD2"/>
<path d="M70.9785 33.2446V16.0645H77.8924C79.927 16.0645 81.4959 17.5622 81.4959 19.6237V21.7828C81.4959 22.9374 80.9328 24.017 79.9996 24.5308V24.7762C80.9307 25.2922 81.4959 26.3718 81.4959 27.5242V29.6834C81.4959 31.7449 79.927 33.2426 77.8675 33.2426H70.9785V33.2446ZM74.4115 22.9374H77.5994C77.8696 22.9374 78.065 22.7647 78.065 22.4714V19.969C78.065 19.6736 77.8696 19.503 77.5994 19.503H74.4115V22.9374ZM74.4115 29.8082H77.5994C77.8696 29.8082 78.065 29.6356 78.065 29.3423V26.8398C78.065 26.5445 77.8696 26.3739 77.5994 26.3739H74.4115V29.8082Z" fill="#008AD2"/>
<path d="M84.4385 33.2446V16.0645H88.0669V33.2446H84.4385Z" fill="#008AD2"/>
<path d="M94.6382 33.3672C92.5541 33.3672 91.01 31.8694 91.01 29.8079V19.5007C91.01 17.4391 92.5541 15.9414 94.6382 15.9414H97.997C100.081 15.9414 101.6 17.4391 101.6 19.5007V20.8007H98.0948V19.8439C98.0948 19.5485 97.8992 19.3779 97.604 19.3779H95.004C94.7088 19.3779 94.5386 19.5506 94.5386 19.8439V29.4647C94.5386 29.7601 94.7116 29.9307 95.004 29.9307H97.604C97.8992 29.9307 98.0948 29.758 98.0948 29.4647V28.5078H101.6V29.8079C101.6 31.8694 100.079 33.3672 97.997 33.3672H94.6382Z" fill="#008AD2"/>
<path d="M113.984 19.501H110.526V33.2446H106.897V19.501H103.439V16.0645H113.982V19.501H113.984Z" fill="#008AD2"/>
<path d="M116.311 16.0645H119.94V22.9374H123.298C125.358 22.9374 126.926 24.4351 126.926 26.4966V29.6876C126.926 31.7491 125.358 33.2468 123.298 33.2468H116.31V16.0645H116.311ZM119.818 26.3739V29.8103H123.03C123.301 29.8103 123.495 29.6377 123.495 29.3444V26.8419C123.495 26.5465 123.301 26.376 123.03 26.376H119.818V26.3739Z" fill="#008AD2"/>
<path d="M162.163 40.3001C161.022 38.1863 158.635 37.4866 158.635 37.4866C157.169 37.0276 151.869 37.457 150.575 37.1941C149.28 36.9313 148.158 36.8647 147.753 37.2127C147.348 37.5607 147.814 38.1067 148.409 38.3677C150.196 39.1543 154.302 39.8355 154.302 39.8355C154.302 39.8355 148.94 42.3084 143.18 35.7467C141.536 33.8773 140.406 34.8212 140.915 35.6283C142.461 38.1437 147.856 45.3791 159.159 45.3791C167.008 45.3791 173.347 40.6814 176.599 35.4413C177.084 34.6602 176.631 34.2807 175.71 35.2174C172.94 38.0308 167.966 41.7179 162.163 40.3001Z" fill="#008AD2"/>
<path d="M155.852 9.00417C156.994 11.1162 159.379 11.8158 159.379 11.8158C160.845 12.2748 166.145 11.8454 167.439 12.1082C168.734 12.3711 169.856 12.4377 170.261 12.0897C170.666 11.7417 170.2 11.1976 169.605 10.9365C167.818 10.1499 163.709 9.47983 163.709 9.47983C163.709 9.47983 169.066 6.99774 174.828 13.552C176.473 15.4214 177.602 14.4775 177.093 13.6686C175.551 11.1606 170.156 3.927 158.853 3.927C151.004 3.927 144.667 8.62288 141.414 13.8648C140.93 14.6441 141.381 15.0235 142.301 14.0888C145.073 11.2734 150.049 7.58449 155.852 9.00417Z" fill="#008AD2"/>
<path fill-rule="evenodd" clip-rule="evenodd" d="M145.562 28.2018H140.487L139.572 30.9208C139.53 31.041 139.452 31.1452 139.349 31.2189C139.246 31.2926 139.121 31.332 138.995 31.3318H135.995C135.9 31.3323 135.807 31.3104 135.721 31.2679C135.637 31.2252 135.563 31.1632 135.507 31.0867C135.451 31.0101 135.413 30.9214 135.397 30.8276C135.381 30.7337 135.388 30.6376 135.417 30.5469L139.324 18.4879C139.364 18.366 139.441 18.26 139.546 18.1849C139.649 18.1097 139.774 18.0694 139.903 18.0696H146.166C146.294 18.0693 146.418 18.1093 146.523 18.1841C146.626 18.2588 146.704 18.3645 146.744 18.4861L150.698 30.5451C150.727 30.6359 150.734 30.7322 150.718 30.8263C150.703 30.9203 150.666 31.0094 150.609 31.0862C150.553 31.1629 150.478 31.2251 150.394 31.2679C150.308 31.3105 150.214 31.3324 150.119 31.3318H146.993C146.863 31.3323 146.737 31.2918 146.633 31.2159C146.528 31.14 146.451 31.0327 146.412 30.9097L145.562 28.2018ZM141.334 25.3605L144.636 25.379L143.022 20.1797L141.334 25.3605Z" fill="#008AD2"/>
<path fill-rule="evenodd" clip-rule="evenodd" d="M166.906 30.67V18.7054C166.907 18.5443 166.972 18.39 167.087 18.2765C167.202 18.1631 167.356 18.0996 167.516 18.1001H170.651C170.73 18.0999 170.809 18.1154 170.884 18.1457C170.957 18.1759 171.024 18.2205 171.08 18.2766C171.137 18.3328 171.182 18.3996 171.213 18.4732C171.244 18.5468 171.259 18.6257 171.26 18.7054V27.8861H174.403V18.7054C174.404 18.5443 174.469 18.39 174.583 18.2765C174.698 18.1631 174.853 18.0996 175.013 18.1001H178.157C178.318 18.0996 178.473 18.1631 178.587 18.2765C178.701 18.39 178.766 18.5443 178.767 18.7054V27.8861H179.865C179.945 27.8857 180.024 27.9009 180.098 27.9309C180.172 27.961 180.239 28.0053 180.295 28.0613C180.353 28.1174 180.398 28.1841 180.428 28.2575C180.459 28.3309 180.476 28.4098 180.476 28.4895V33.141C180.476 33.2208 180.459 33.2996 180.428 33.373C180.398 33.4465 180.353 33.5132 180.295 33.5693C180.239 33.6253 180.172 33.6695 180.098 33.6996C180.024 33.7297 179.945 33.7449 179.865 33.7444H178.49C178.342 33.7453 178.199 33.6925 178.088 33.5957C177.977 33.499 177.905 33.3649 177.885 33.2188L177.589 31.2734H167.516C167.438 31.2739 167.359 31.2587 167.284 31.2286C167.211 31.1986 167.143 31.1543 167.087 31.0982C167.03 31.0422 166.985 30.9755 166.954 30.9021C166.923 30.8286 166.907 30.7497 166.906 30.67Z" fill="#008AD2"/>
<path fill-rule="evenodd" clip-rule="evenodd" d="M165.253 18.6749V30.6653C165.253 30.7453 165.237 30.8243 165.206 30.898C165.176 30.9717 165.131 31.0386 165.073 31.0948C165.017 31.151 164.95 31.1954 164.876 31.2256C164.802 31.2558 164.723 31.2711 164.643 31.2706H161.342C161.262 31.2711 161.183 31.2558 161.11 31.2256C161.036 31.1954 160.968 31.151 160.912 31.0948C160.855 31.0386 160.81 30.9717 160.779 30.898C160.748 30.8243 160.732 30.7453 160.732 30.6653V26.4082H157.013V30.6653C157.013 30.7453 156.997 30.8243 156.966 30.898C156.936 30.9717 156.891 31.0386 156.834 31.0948C156.777 31.151 156.71 31.1954 156.636 31.2256C156.562 31.2558 156.483 31.2711 156.403 31.2706H153.104C153.024 31.2711 152.945 31.2558 152.871 31.2256C152.798 31.1954 152.73 31.151 152.674 31.0948C152.617 31.0386 152.572 30.9717 152.541 30.898C152.51 30.8243 152.494 30.7453 152.494 30.6653V18.6749C152.494 18.595 152.51 18.5159 152.541 18.4422C152.572 18.3686 152.617 18.3017 152.674 18.2454C152.73 18.1892 152.798 18.1448 152.871 18.1146C152.945 18.0844 153.024 18.0691 153.104 18.0696H156.403C156.483 18.0691 156.562 18.0844 156.636 18.1146C156.71 18.1448 156.777 18.1892 156.834 18.2454C156.891 18.3017 156.936 18.3686 156.966 18.4422C156.997 18.5159 157.013 18.595 157.013 18.6749V22.932H160.732V18.6749C160.732 18.595 160.748 18.5159 160.779 18.4422C160.81 18.3686 160.855 18.3017 160.912 18.2454C160.968 18.1892 161.036 18.1448 161.11 18.1146C161.183 18.0844 161.262 18.0691 161.342 18.0696H164.643C164.723 18.0691 164.802 18.0844 164.876 18.1146C164.95 18.1448 165.017 18.1892 165.073 18.2454C165.131 18.3017 165.176 18.3686 165.206 18.4422C165.237 18.5159 165.253 18.595 165.253 18.6749Z" fill="#008AD2"/>
</svg>
