<svg width="12" height="20" viewBox="0 0 12 20" fill="none" xmlns="http://www.w3.org/2000/svg">
<path fill-rule="evenodd" clip-rule="evenodd" d="M4.46089 1.57744C5.4971 0.567586 6.90256 0.000168973 8.36811 0H11.2101C11.4195 0 11.6203 0.0810436 11.7683 0.225302C11.9164 0.369561 11.9996 0.565218 11.9996 0.769231V4.46154C11.9996 4.66555 11.9164 4.86121 11.7683 5.00547C11.6203 5.14973 11.4195 5.23077 11.2101 5.23077H8.36811C8.34738 5.23077 8.32685 5.23475 8.30769 5.24248C8.28854 5.25021 8.27113 5.26154 8.25647 5.27583C8.24181 5.29012 8.23018 5.30708 8.22224 5.32574C8.21431 5.34441 8.21023 5.36441 8.21023 5.38462V7.38462H11.2101C11.3301 7.38455 11.4486 7.41115 11.5565 7.46239C11.6643 7.51363 11.7588 7.58817 11.8327 7.68033C11.9066 7.77249 11.9579 7.87985 11.9828 7.99424C12.0077 8.10864 12.0055 8.22707 11.9764 8.34051L11.0291 12.0328C10.9863 12.1993 10.8877 12.3471 10.7488 12.4526C10.61 12.5582 10.4389 12.6155 10.2628 12.6154H8.21023V19.2308C8.21023 19.4348 8.12705 19.6304 7.979 19.7747C7.83095 19.919 7.63015 20 7.42078 20H3.63145C3.42207 20 3.22127 19.919 3.07322 19.7747C2.92517 19.6304 2.842 19.4348 2.842 19.2308V12.6154H0.789445C0.580071 12.6154 0.379273 12.5343 0.231223 12.3901C0.0831733 12.2458 0 12.0502 0 11.8462V8.15385C0 8.05283 0.0204195 7.9528 0.0600928 7.85948C0.0997661 7.76615 0.157916 7.68135 0.231223 7.60992C0.30453 7.53849 0.391557 7.48183 0.487337 7.44317C0.583117 7.40451 0.685773 7.38462 0.789445 7.38462H2.842V5.38462C2.84217 3.95659 3.4245 2.58712 4.46089 1.57744ZM8.36811 1.53846C7.32125 1.53846 6.31725 1.94368 5.57701 2.66497C4.83676 3.38627 4.42089 4.36455 4.42089 5.38462V8.15385C4.42089 8.35786 4.33772 8.55352 4.18967 8.69777C4.04162 8.84203 3.84082 8.92308 3.63145 8.92308H1.57889V11.0769H3.63145C3.84082 11.0769 4.04162 11.158 4.18967 11.3022C4.33772 11.4465 4.42089 11.6421 4.42089 11.8462V18.4615H6.63134V11.8462C6.63134 11.6421 6.71451 11.4465 6.86256 11.3022C7.01061 11.158 7.21141 11.0769 7.42078 11.0769H9.64596L10.1986 8.92308H7.42078C7.21141 8.92308 7.01061 8.84203 6.86256 8.69777C6.71451 8.55352 6.63134 8.35786 6.63134 8.15385V5.38462C6.63134 4.93579 6.81432 4.50534 7.14003 4.18797C7.46574 3.8706 7.90749 3.69231 8.36811 3.69231H10.4207V1.53846H8.36811Z" fill="#020302"/>
</svg>
