<svg width="671" height="155" viewBox="0 0 671 155" fill="none" xmlns="http://www.w3.org/2000/svg">
<g clip-path="url(#clip0_1_5754)">
<path d="M223.326 155H142.408C141.392 155.003 140.417 154.602 139.696 153.885C138.975 153.168 138.567 152.194 138.562 151.176V137.965C138.561 137.46 138.66 136.96 138.852 136.493C139.045 136.026 139.327 135.602 139.683 135.245C140.039 134.887 140.462 134.604 140.928 134.411C141.393 134.217 141.892 134.118 142.396 134.118H202.489C203.507 134.118 204.484 133.712 205.204 132.991C205.924 132.269 206.329 131.291 206.329 130.271V91.4471C206.329 89.5761 205.649 87.7691 204.415 86.3647L162.558 38.7706C162.3 38.4782 161.96 38.2714 161.582 38.1775C161.203 38.0836 160.806 38.1072 160.441 38.2451C160.077 38.3829 159.763 38.6286 159.541 38.9494C159.32 39.2702 159.201 39.651 159.2 40.0412V84.7059C159.2 85.2111 159.101 85.7114 158.908 86.1781C158.715 86.6449 158.432 87.069 158.075 87.4262C157.719 87.7834 157.295 88.0668 156.829 88.2601C156.364 88.4535 155.864 88.553 155.36 88.553H142.408C141.903 88.5545 141.403 88.4561 140.936 88.2634C140.469 88.0707 140.045 87.7875 139.687 87.43C139.33 87.0725 139.047 86.6479 138.854 86.1804C138.66 85.7129 138.561 85.2118 138.562 84.7059V3.84708C138.561 3.34116 138.66 2.84007 138.854 2.37259C139.047 1.90511 139.33 1.48044 139.687 1.12298C140.045 0.765516 140.469 0.482296 140.936 0.289585C141.403 0.096874 141.903 -0.00153208 142.408 1.80319e-05H223.109C223.613 1.80319e-05 224.112 0.0995252 224.578 0.292858C225.044 0.486191 225.467 0.769563 225.824 1.1268C226.181 1.48403 226.463 1.90812 226.656 2.37487C226.849 2.84162 226.949 3.34187 226.949 3.84708V17.0588C226.942 18.0751 226.535 19.0475 225.816 19.7639C225.096 20.4803 224.123 20.8824 223.109 20.8824H180.19C179.821 20.8828 179.461 20.9894 179.151 21.1895C178.842 21.3897 178.596 21.6748 178.444 22.0109C178.291 22.347 178.239 22.72 178.292 23.0852C178.346 23.4504 178.503 23.7925 178.745 24.0706L225.129 77.0471C226.354 78.447 227.032 80.244 227.037 82.1059L227.166 151.176C227.161 152.193 226.754 153.167 226.035 153.883C225.315 154.6 224.341 155.002 223.326 155Z" fill="#020302"/>
<path d="M367.22 77.5L367.378 151.147C367.379 151.653 367.28 152.154 367.087 152.621C366.895 153.089 366.612 153.513 366.255 153.871C365.899 154.229 365.475 154.513 365.009 154.707C364.543 154.9 364.043 155 363.538 155H282.849C282.344 155 281.845 154.9 281.378 154.707C280.912 154.513 280.489 154.229 280.132 153.871C279.775 153.513 279.493 153.089 279.3 152.621C279.107 152.154 279.009 151.653 279.009 151.147L279.168 77.5L279.086 44.5059L299.846 20.8882V130.265C299.846 130.77 299.946 131.27 300.139 131.737C300.332 132.204 300.615 132.628 300.971 132.985C301.328 133.342 301.751 133.626 302.217 133.819C302.683 134.012 303.182 134.112 303.686 134.112H342.695C343.714 134.112 344.69 133.706 345.41 132.985C346.13 132.264 346.535 131.285 346.535 130.265V24.7353C346.535 23.715 346.13 22.7365 345.41 22.015C344.69 21.2936 343.714 20.8882 342.695 20.8882H299.835L318.224 0H363.538C364.043 -5.91159e-07 364.543 0.0997011 365.009 0.293402C365.475 0.487102 365.899 0.771001 366.255 1.12886C366.612 1.48671 366.895 1.9115 367.087 2.37893C367.28 2.84635 367.379 3.34724 367.378 3.85294L367.22 77.5Z" fill="#020302"/>
<path d="M120.091 134.229H105.231C103.61 134.229 102.295 135.546 102.295 137.171V152.059C102.295 153.683 103.61 155 105.231 155H120.091C121.712 155 123.027 153.683 123.027 152.059V137.171C123.027 135.546 121.712 134.229 120.091 134.229Z" fill="#020302"/>
<path d="M260.521 134.229H245.66C244.039 134.229 242.725 135.546 242.725 137.171V152.059C242.725 153.683 244.039 155 245.66 155H260.521C262.142 155 263.456 153.683 263.456 152.059V137.171C263.456 135.546 262.142 134.229 260.521 134.229Z" fill="#020302"/>
<path d="M400.944 134.229H386.084C384.463 134.229 383.148 135.546 383.148 137.171V152.059C383.148 153.683 384.463 155 386.084 155H400.944C402.566 155 403.88 153.683 403.88 152.059V137.171C403.88 135.546 402.566 134.229 400.944 134.229Z" fill="#020302"/>
<path d="M3.84021 115.818H61.8485C62.8669 115.818 63.8436 116.223 64.5637 116.944C65.2838 117.666 65.6883 118.644 65.6883 119.665V151.176C65.6883 151.682 65.7877 152.182 65.9806 152.649C66.1736 153.115 66.4564 153.54 66.813 153.897C67.1696 154.254 67.5929 154.537 68.0587 154.731C68.5246 154.924 69.0239 155.024 69.5282 155.024H82.9088C83.4131 155.024 83.9124 154.924 84.3783 154.731C84.8441 154.537 85.2674 154.254 85.624 153.897C85.9806 153.54 86.2634 153.115 86.4564 152.649C86.6493 152.182 86.7486 151.682 86.7486 151.176V3.84706C86.7486 2.82676 86.3441 1.84824 85.624 1.12678C84.9039 0.405314 83.9272 0 82.9088 0H69.7454C68.727 0 67.7503 0.405314 67.0302 1.12678C66.3101 1.84824 65.9056 2.82676 65.9056 3.84706V91.0882C65.9056 92.1085 65.501 93.0871 64.7809 93.8085C64.0608 94.53 63.0841 94.9353 62.0658 94.9353H30.1025C29.7939 94.9351 29.4898 94.8603 29.2162 94.7174C28.9425 94.5744 28.7073 94.3675 28.5304 94.1141C28.3536 93.8607 28.2403 93.5684 28.2002 93.2618C28.16 92.9552 28.1943 92.6434 28.3 92.3529L44.8922 46.6588C44.998 46.3683 45.0322 46.0566 44.9921 45.75C44.952 45.4434 44.8387 45.151 44.6618 44.8977C44.485 44.6443 44.2497 44.4373 43.9761 44.2944C43.7024 44.1514 43.3984 44.0767 43.0898 44.0765H26.8615C26.1454 44.081 25.4476 44.3041 24.8612 44.7161C24.2749 45.1281 23.8277 45.7093 23.5795 46.3824L0.235245 110.659C0.0250201 111.24 -0.0425528 111.862 0.0382402 112.475C0.119033 113.087 0.345816 113.671 0.699413 114.177C1.05301 114.683 1.52302 115.096 2.06971 115.382C2.6164 115.667 3.22368 115.817 3.84021 115.818Z" fill="#020302"/>
<path d="M431.446 0.694092V6.47056C433.187 2.61958 436.154 0.694092 440.346 0.694092H444.891V4.81174H440.481C436.994 4.81174 434.663 5.84703 433.489 7.91762C432.314 9.98821 431.706 13.6451 431.663 18.8882V31.7647H426.907V0.694092H431.446Z" fill="#020302"/>
<path d="M446.394 16.294C446.394 11.4587 447.795 7.53715 450.598 4.52931C453.4 1.52147 457.281 0.0116642 462.24 -0.000100509C464.826 -0.0652758 467.388 0.50422 469.703 1.65872C471.674 2.64017 473.349 4.12807 474.558 5.97049C475.612 7.57979 476.391 9.35283 476.866 11.2175C477.247 12.7437 477.45 14.3091 477.471 15.8823C477.469 16.5513 477.422 17.2196 477.33 17.8823H451.285C451.472 21.1058 452.484 23.696 454.32 25.6528C456.156 27.6097 458.819 28.5901 462.311 28.594C463.693 28.6161 465.068 28.3951 466.374 27.9411C467.4 27.6072 468.342 27.0532 469.133 26.3175C469.731 25.7251 470.273 25.0793 470.754 24.3881C471.106 23.8977 471.394 23.3639 471.611 22.7999L471.816 22.1058H476.848C476.801 22.3823 476.719 22.7528 476.607 23.2117C476.306 24.0788 475.912 24.9111 475.433 25.694C474.786 26.8717 473.962 27.943 472.991 28.8705C471.738 29.9663 470.287 30.811 468.716 31.3587C466.65 32.1238 464.46 32.4969 462.258 32.4587C457.393 32.4587 453.535 31.0097 450.686 28.1117C447.836 25.2136 446.406 21.2744 446.394 16.294ZM451.285 13.9411H472.574V13.5293C472.584 11.0225 471.622 8.60983 469.891 6.7999C468.098 4.83912 465.571 3.85872 462.311 3.85872C458.96 3.85872 456.342 4.83912 454.455 6.7999C452.589 8.73256 451.466 11.2643 451.285 13.947V13.9411Z" fill="#020302"/>
<path d="M485.943 4.4175C488.878 1.4724 492.828 -0.000144935 497.791 -0.000144935C500.058 -0.039148 502.316 0.298769 504.473 0.999855C506.077 1.48475 507.559 2.30923 508.817 3.4175C509.693 4.2667 510.48 5.20289 511.166 6.21162C511.687 6.91879 512.073 7.71655 512.305 8.56456L512.51 9.59986H507.344L507.138 9.01162C506.919 8.51927 506.641 8.05515 506.31 7.62927C505.86 6.97641 505.323 6.38856 504.713 5.88221C503.872 5.26073 502.928 4.79278 501.924 4.49986C500.597 4.07108 499.209 3.86051 497.815 3.87633C494.413 3.87633 491.673 4.99201 489.595 7.22338C487.516 9.45476 486.471 12.4116 486.46 16.094C486.46 19.7763 487.516 22.7802 489.63 25.1057C490.664 26.2517 491.935 27.1573 493.355 27.7588C494.775 28.3604 496.309 28.6434 497.85 28.5881C499.265 28.5996 500.67 28.3504 501.995 27.8528C503.047 27.4849 504.01 26.8974 504.819 26.1293C505.423 25.5135 505.955 24.8307 506.404 24.094C506.748 23.5577 507.003 22.9699 507.162 22.3528L507.367 21.594H512.563C512.516 21.8704 512.44 22.2646 512.323 22.7704C512.046 23.6788 511.676 24.556 511.219 25.3881C510.627 26.6076 509.833 27.7175 508.87 28.6704C507.597 29.7995 506.123 30.6776 504.525 31.2587C502.395 32.0787 500.126 32.4782 497.844 32.4352C492.834 32.4352 488.861 30.9626 485.925 28.0175C482.99 25.0724 481.496 21.094 481.445 16.0822C481.445 11.243 482.945 7.35476 485.943 4.4175Z" fill="#020302"/>
<path d="M520.595 4.55882C523.633 1.51961 527.698 0 532.79 0C537.882 0 541.947 1.51961 544.985 4.55882C548.03 7.59412 549.552 11.4824 549.552 16.2235C549.552 21.051 548.047 24.9726 545.037 27.9882C542.027 31.0039 537.951 32.498 532.807 32.4706C527.719 32.4706 523.654 30.9647 520.613 27.9529C517.572 24.9412 516.057 21.0412 516.068 16.2529C516.057 11.4922 517.566 7.59412 520.595 4.55882ZM520.942 16.2235C520.942 19.9529 522.01 22.9431 524.147 25.1941C526.284 27.4451 529.165 28.5726 532.79 28.5765C536.371 28.5765 539.242 27.449 541.403 25.1941C543.564 22.9392 544.644 19.949 544.644 16.2235C544.644 12.5882 543.575 9.61961 541.438 7.31765C539.301 5.01569 536.418 3.86471 532.79 3.86471C529.208 3.86471 526.337 5.01569 524.177 7.31765C522.016 9.61961 520.938 12.5882 520.942 16.2235Z" fill="#020302"/>
<path d="M555.664 0.694092L566.415 26.647L577.3 0.694092H582.396L569.098 31.7647H563.814L550.568 0.694092H555.664Z" fill="#020302"/>
<path d="M583.43 16.2941C583.43 11.4588 584.831 7.53723 587.634 4.52939C590.436 1.52154 594.317 0.0117382 599.276 -2.64868e-05C601.856 -0.062314 604.411 0.507106 606.721 1.6588C608.692 2.64024 610.367 4.12814 611.577 5.97056C612.63 7.57987 613.409 9.3529 613.884 11.2176C614.259 12.7425 614.456 14.3059 614.471 15.8764C614.472 16.5454 614.426 17.2136 614.336 17.8764H588.303C588.491 21.1 589.503 23.6902 591.338 25.647C593.174 27.6039 595.838 28.5843 599.329 28.5882C600.711 28.6103 602.086 28.3893 603.392 27.9353C604.419 27.6014 605.36 27.0474 606.152 26.3117C606.749 25.7208 607.29 25.0748 607.766 24.3823C608.123 23.8934 608.413 23.3593 608.629 22.7941L608.835 22.1H613.866C613.819 22.3764 613.737 22.747 613.626 23.2059C613.324 24.073 612.93 24.9052 612.451 25.6882C611.804 26.8659 610.98 27.9372 610.009 28.8647C608.755 29.9592 607.305 30.8037 605.735 31.3529C603.669 32.118 601.479 32.4911 599.276 32.4529C594.407 32.4529 590.55 31.0039 587.704 28.1059C584.858 25.2078 583.434 21.2706 583.43 16.2941ZM588.32 13.9412H609.61V13.5294C609.62 11.0226 608.658 8.60991 606.927 6.79997C605.134 4.83919 602.607 3.8588 599.347 3.8588C595.996 3.8588 593.378 4.83919 591.491 6.79997C589.617 8.72859 588.487 11.2615 588.303 13.947L588.32 13.9412Z" fill="#020302"/>
<path d="M624.358 0.694161V6.47063C626.104 2.60789 629.065 0.676514 633.242 0.676514H637.792V4.79416H633.383C629.891 4.79416 627.56 5.82946 626.39 7.90004C625.219 9.97063 624.611 13.6275 624.564 18.8706V31.7647H619.808V0.694161H624.358Z" fill="#020302"/>
<path d="M640.681 0.694092H645.783L655.564 25.8176L665.833 0.694092H671L655.494 38.1059C654.907 39.4353 654.484 40.3235 654.255 40.7588C653.894 41.3931 653.48 41.9953 653.016 42.5588C652.483 43.2715 651.733 43.7917 650.879 44.0411C649.842 44.2935 648.776 44.4083 647.709 44.3823H642.424V40.2647H647.709C648.219 40.2938 648.728 40.1989 649.194 39.9882C649.452 39.8752 649.677 39.6968 649.846 39.4706C649.94 39.3098 650.169 38.8627 650.533 38.1294L653.363 31.2941L640.681 0.694092Z" fill="#020302"/>
<path d="M431.375 54.6175C434.315 51.6764 438.266 50.2038 443.229 50.1999C445.497 50.1603 447.755 50.5002 449.911 51.2058C451.514 51.6864 452.994 52.5092 454.25 53.6175C455.133 54.4691 455.93 55.4071 456.627 56.4175C457.149 57.1248 457.535 57.9226 457.767 58.7705L457.972 59.8058H452.805L452.6 59.1822C452.38 58.6899 452.102 58.2258 451.772 57.7999C451.31 57.1564 450.765 56.5769 450.151 56.0764C449.316 55.4655 448.383 55.002 447.392 54.7058C446.062 54.2922 444.675 54.0937 443.282 54.1175C439.885 54.1175 437.145 55.2332 435.062 57.4646C432.98 59.696 431.935 62.6528 431.927 66.3352C431.927 70.0175 432.984 73.0195 435.097 75.3411C436.131 76.4881 437.402 77.3948 438.822 77.9974C440.242 78.6 441.776 78.8839 443.317 78.8293C444.75 78.8495 446.173 78.6022 447.515 78.0999C448.57 77.7334 449.535 77.1458 450.345 76.3764C450.947 75.7602 451.477 75.0774 451.925 74.3411C452.273 73.8109 452.531 73.2265 452.688 72.6117L452.893 71.8528H457.96C457.913 72.1293 457.831 72.5234 457.72 73.0293C457.44 73.9386 457.07 74.8175 456.616 75.6528C456.011 76.8703 455.208 77.9778 454.238 78.9293C452.969 80.0604 451.496 80.9388 449.899 81.5175C447.768 82.3372 445.499 82.7366 443.217 82.694C438.211 82.694 434.236 81.2215 431.293 78.2764C428.349 75.3313 426.88 71.3509 426.884 66.3352C426.891 61.4685 428.389 57.5626 431.375 54.6175Z" fill="#020302"/>
<path d="M461.483 66.4705C461.483 61.6352 462.884 57.7137 465.687 54.7058C468.489 51.698 472.372 50.196 477.336 50.1999C479.915 50.1376 482.47 50.7071 484.78 51.8588C486.751 52.8402 488.427 54.3281 489.636 56.1705C490.688 57.7804 491.468 59.5532 491.943 61.4176C492.33 62.9412 492.538 64.5046 492.566 66.0764C492.564 66.7474 492.517 67.4176 492.425 68.0823H466.374C466.562 71.298 467.574 73.8862 469.409 75.847C471.245 77.8078 473.909 78.7882 477.4 78.7882C478.783 78.8113 480.158 78.5882 481.463 78.1293C482.49 77.7955 483.431 77.2415 484.223 76.5058C484.82 75.9149 485.361 75.2689 485.837 74.5764C486.193 74.0874 486.484 73.5534 486.7 72.9882L486.906 72.294H491.937C491.89 72.5705 491.808 72.9411 491.697 73.3999C491.396 74.2691 491.002 75.1034 490.522 75.8882C489.874 77.0631 489.05 78.1322 488.08 79.0587C486.826 80.1533 485.376 80.9978 483.806 81.547C481.74 82.3142 479.55 82.6893 477.347 82.6529C472.482 82.6529 468.624 81.2019 465.775 78.2999C462.925 75.398 461.495 71.4548 461.483 66.4705ZM466.374 64.1176H487.663V63.6999C487.662 61.2017 486.697 58.8007 484.968 56.9999C483.179 55.0391 480.653 54.0588 477.388 54.0588C474.034 54.0588 471.415 55.0391 469.533 56.9999C467.672 58.9352 466.554 61.4663 466.374 64.147V64.1176Z" fill="#020302"/>
<path d="M502.412 50.894V56.7763C503.271 54.8516 504.686 53.2289 506.475 52.1175C508.405 50.8862 510.644 50.2274 512.933 50.2175H513.209C517.847 50.2175 521.247 51.4254 523.407 53.8411C525.568 56.2567 526.65 59.945 526.654 64.9058V81.9646H521.84V64.9058C521.84 61.1293 521.151 58.4136 519.773 56.7587C518.395 55.1038 516.145 54.2763 513.021 54.2763C509.851 54.2763 507.324 55.2313 505.441 57.1411C503.559 59.0509 502.617 62.0528 502.617 66.1469V81.9528H497.885V50.894H502.412Z" fill="#020302"/>
<path d="M530.312 50.894H535.273V41.8528H540.029V50.894H548.777V55.0116H540.029V75.7881C539.967 76.3451 540.1 76.9063 540.405 77.3763C540.612 77.5394 540.85 77.6598 541.104 77.7304C541.358 77.8011 541.623 77.8207 541.884 77.7881H548.572V81.9057H541.884C539.454 81.9057 537.739 81.4704 536.753 80.594C535.767 79.7175 535.273 78.1116 535.273 75.7645V55.0351H530.312V50.894Z" fill="#020302"/>
<path d="M594.521 50.894V56.6882C596.27 52.8215 599.233 50.8901 603.41 50.894H607.96V55.0117H603.568C600.073 55.0117 597.742 56.047 596.576 58.1176C595.409 60.1882 594.804 63.8548 594.761 69.1176V81.9529H590.006V50.894H594.521Z" fill="#020302"/>
<path d="M553.251 66.4707C553.251 61.6354 554.653 57.7138 557.455 54.706C560.258 51.6981 564.139 50.1903 569.098 50.1824C571.685 50.1227 574.247 50.6983 576.56 51.8589C578.534 52.8361 580.211 54.3249 581.416 56.1707C582.47 57.7803 583.251 59.5531 583.729 61.4177C584.114 62.9416 584.321 64.505 584.346 66.0766C584.343 66.7474 584.298 67.4173 584.211 68.0824H558.142C558.326 71.2981 559.336 73.8864 561.172 75.8471C563.007 77.8079 565.673 78.7883 569.168 78.7883C570.551 78.8109 571.926 78.5879 573.231 78.1295C574.256 77.7957 575.196 77.2416 575.985 76.506C576.586 75.9166 577.128 75.2704 577.605 74.5766C577.957 74.0848 578.247 73.5513 578.468 72.9883L578.674 72.2942H583.706C583.659 72.5707 583.576 72.9413 583.459 73.4001C583.159 74.2697 582.765 75.104 582.285 75.8883C580.866 78.5782 578.456 80.6081 575.568 81.5471C573.502 82.3139 571.312 82.6889 569.11 82.653C564.236 82.653 560.377 81.202 557.531 78.3001C554.686 75.3981 553.259 71.455 553.251 66.4707ZM558.142 64.1177H579.431V63.7001C579.439 61.1926 578.475 58.78 576.742 56.9707C574.953 55.0099 572.429 54.0295 569.168 54.0295C565.81 54.0295 563.191 55.0099 561.313 56.9707C559.439 58.91 558.315 61.4538 558.142 64.1471V64.1177Z" fill="#020302"/>
</g>
<defs>
<clipPath id="clip0_1_5754">
<rect width="671" height="155" fill="white"/>
</clipPath>
</defs>
</svg>
