<svg width="297" height="50" viewBox="0 0 297 50" fill="none" xmlns="http://www.w3.org/2000/svg">
<mask id="mask0_1_5699" style="mask-type:luminance" maskUnits="userSpaceOnUse" x="0" y="0" width="297" height="50">
<path d="M0 0H297V50H0V0Z" fill="white"/>
</mask>
<g mask="url(#mask0_1_5699)">
<path d="M61.0444 2.7138H66.3873L65.9935 3.90165H62.449V6.30146H63.1448C64.1162 6.30146 64.8908 6.4258 65.4947 6.7432C66.3086 7.17007 66.7418 7.93104 66.7418 9.01867C66.7418 10.6483 65.7965 11.8063 63.2629 11.8063H61.0444V2.7138ZM63.3023 10.6074C64.6807 10.6074 65.324 10.11 65.324 9.0613C65.324 8.43957 65.1009 7.9997 64.6808 7.76399C64.3132 7.55612 63.8143 7.5023 63.171 7.5023H62.449V10.6074H63.3023ZM68.0808 11.8367V10.4966C68.2121 10.5245 68.3039 10.5245 68.3564 10.5245C68.7371 10.5245 69.0785 10.3314 69.3542 9.88972C70.155 8.57749 70.6801 5.2107 70.9033 2.71251H75.3274V11.807H73.9228V3.90036H72.0717C71.8748 6.2612 71.284 9.44801 70.4045 10.8418C69.9187 11.586 69.3018 11.8756 68.501 11.8756C68.4222 11.8775 68.2121 11.8775 68.0808 11.8367ZM80.4735 2.6714H81.5499L85.0419 11.8067H83.5322L82.6657 9.47551H79.4101L78.5699 11.8067H77.0996L80.4735 2.6714ZM82.2326 8.2895L81.5105 6.22008C81.2742 5.47582 81.1429 5.06192 81.051 4.75753H81.0248C80.946 5.07492 80.8016 5.48879 80.539 6.22008L79.8171 8.2895H82.2326ZM86.8141 2.7138H91.6058L91.2119 3.94062H88.2187V11.8063H86.8141V2.7138ZM92.866 7.29444C92.866 4.53454 94.6907 2.63028 97.2638 2.63028C99.8368 2.63028 101.635 4.56238 101.635 7.29444C101.635 10.11 99.7712 11.9455 97.2638 11.9455C94.7039 11.9475 92.866 10.0951 92.866 7.29444ZM100.152 7.29444C100.152 5.23796 99.0623 3.85896 97.2506 3.85896C95.5178 3.85896 94.3626 5.17115 94.3626 7.29444C94.3626 9.41959 95.5178 10.717 97.2506 10.717C98.9966 10.717 100.152 9.41959 100.152 7.29444ZM103.145 10.5666H103.683C104.891 9.00749 105.744 6.2198 106.269 2.7138H110.431V10.5666H111.534V14.3603H110.168V11.8083H104.51V14.3621H103.145V10.5666ZM109.026 3.90165H107.385C106.965 6.8527 106.125 9.15972 105.259 10.5387V10.5666H109.026V3.90165ZM113.529 2.7138H114.934V11.8083H113.529V2.7138ZM117.651 2.71391H119.043V7.87546C119.043 8.44154 119.03 8.95196 119.017 9.43446H119.043C119.332 8.99459 119.673 8.4972 120.132 7.88843L123.9 2.71391H125.279V11.8083H123.874V6.38322C123.874 5.7893 123.874 5.32159 123.9 4.9207H123.874C123.572 5.34943 123.244 5.84683 122.797 6.42591L118.885 11.8083H117.638V2.71391H117.651ZM119.214 0.0783691H120.382C120.382 0.698277 120.684 1.20867 121.498 1.20867C122.299 1.20867 122.587 0.698277 122.587 0.0783691H123.782C123.808 1.36087 122.981 2.28516 121.498 2.28516C119.988 2.28516 119.174 1.36087 119.214 0.0783691ZM127.996 2.7138H129.4V6.55017H133.798V2.7138H135.203V11.8083H133.798V7.77883H129.4V11.8083H127.996V2.7138ZM137.907 2.7138H139.312V7.87536C139.312 8.44143 139.299 8.95183 139.286 9.43433H139.312C139.601 8.99446 139.942 8.49712 140.402 7.88833L144.169 2.7138H145.535V11.8083H144.13V6.38312C144.13 5.7892 144.13 5.32149 144.169 4.92059H144.13C143.841 5.34933 143.513 5.84672 143.067 6.4258L139.154 11.8083H137.907V2.7138ZM148.265 2.71391H149.67V7.87546C149.67 8.44154 149.644 8.95196 149.63 9.43446H149.67C149.946 8.99459 150.287 8.4972 150.746 7.88843L154.514 2.71391H155.892V11.8083H154.488V6.38322C154.488 5.7893 154.488 5.32159 154.514 4.9207H154.488C154.199 5.34943 153.858 5.84683 153.411 6.42591L149.499 11.8083H148.265V2.71391ZM149.827 0.0783691H150.996C150.996 0.698277 151.298 1.20867 152.112 1.20867C152.912 1.20867 153.201 0.698277 153.201 0.0783691H154.396C154.422 1.36087 153.595 2.28516 152.112 2.28516C150.602 2.28516 149.788 1.36087 149.827 0.0783691ZM165.331 10.8131C163.008 10.6331 161.629 9.46196 161.629 7.25143C161.629 5.07249 163.047 3.82896 165.331 3.6508V2.50565H166.723V3.6508C169.02 3.84383 170.399 5.10033 170.399 7.25143C170.399 9.47499 169.02 10.6331 166.723 10.8131V12.0547H165.331V10.8131ZM165.331 4.89246C163.887 5.0168 163.06 5.77593 163.06 7.2533C163.06 8.70288 163.821 9.44893 165.331 9.55841V4.89246ZM168.968 7.2533C168.968 5.84646 168.219 5.03167 166.723 4.9073V9.55841C168.167 9.44709 168.968 8.77157 168.968 7.2533ZM172.328 7.29444C172.328 4.53454 174.166 2.63028 176.726 2.63028C179.299 2.63028 181.111 4.56238 181.111 7.29444C181.111 10.11 179.234 11.9455 176.726 11.9455C174.179 11.9475 172.328 10.0951 172.328 7.29444ZM179.627 7.29444C179.627 5.23796 178.525 3.85896 176.726 3.85896C174.993 3.85896 173.825 5.17115 173.825 7.29444C173.825 9.41959 174.993 10.717 176.726 10.717C178.459 10.717 179.627 9.41959 179.627 7.29444ZM183.448 2.7138H184.839V6.55017H189.25V2.7138H190.655V11.8083H189.25V7.77883H184.839V11.8083H183.448V2.7138ZM192.532 10.5666H193.07C194.291 9.00749 195.144 6.2198 195.656 2.7138H199.818V10.5666H200.921V14.3603H199.568V11.8083H193.897V14.3621H192.532V10.5666ZM198.413 3.90165H196.772C196.352 6.8527 195.512 9.15972 194.646 10.5387V10.5666H198.413V3.90165ZM76.0624 46.6237C74.0408 47.7334 72.0455 48.1455 70.142 48.1455C63.9457 48.1455 60.3223 43.7355 60.3223 37.6145C60.3223 31.5566 64.4313 26.7347 70.5751 26.7347C72.7543 26.7347 74.5922 27.2413 75.6687 27.8463V30.4781C74.2246 29.6839 72.6625 29.1455 70.6408 29.1455C66.033 29.1455 63.2105 32.9208 63.2105 37.4884C63.2105 42.3716 66.0067 45.7345 70.457 45.7345C72.3605 45.7345 73.8833 45.1647 75.3011 44.3703L76.0624 46.6237ZM80.736 26.9274H90.9626L90.1355 29.3384H83.4665V35.966H90.0698V38.3752H83.4665V45.4168H91.0807V47.8279H80.736V26.9274ZM96.6731 26.9274H100.822C102.791 26.9274 104.169 27.2429 105.272 27.8795C107.175 28.9579 108.317 30.9234 108.317 33.6203C108.317 36.031 107.293 38.3455 104.747 39.5205C103.71 39.9955 102.384 40.2813 100.572 40.2813H99.4168V47.8297H96.6731V26.9274ZM100.756 37.965C101.99 37.965 102.882 37.7424 103.526 37.3934C104.839 36.6955 105.455 35.3963 105.455 33.6203C105.455 31.9721 104.838 30.6395 103.644 29.91C102.974 29.4979 102.082 29.2418 100.795 29.2418H99.4036V37.965H100.756ZM113.477 26.9274H124.005L123.178 29.3384H116.181V47.8279H113.477V26.9274ZM127.943 26.9274H130.674V47.8279H127.943V26.9274ZM138.603 41.1666C139.391 39.6131 139.916 38.7558 140.743 38.2805V38.2176C138.38 37.425 137.185 35.491 137.185 33.0484C137.185 28.9895 140.034 26.9274 143.841 26.9274H149.368V47.8279H146.637V39.1697H143.565C142.948 39.1697 142.213 39.836 141.334 41.7068L138.446 47.8279H135.282L138.603 41.1666ZM144.117 36.8534H146.637V29.2418H144.209C141.754 29.2418 140.008 30.5429 140.008 33.1747C140.008 35.7434 141.793 36.8534 144.117 36.8534ZM163.677 26.9274H178.905V47.8279H176.175V29.3384H166.381V47.8279H163.677V26.9274ZM185.299 26.9274H189.447C191.416 26.9274 192.794 27.2429 193.897 27.8795C195.801 28.9579 196.943 30.9234 196.943 33.6203C196.943 36.031 195.919 38.3455 193.372 39.5205C192.335 39.9955 191.009 40.2813 189.197 40.2813H188.042V47.8297H185.299V26.9274ZM189.381 37.965C190.615 37.965 191.508 37.7424 192.151 37.3934C193.464 36.6955 194.081 35.3963 194.081 33.6203C194.081 31.9721 193.464 30.6395 192.269 29.91C191.6 29.4979 190.707 29.2418 189.421 29.2418H188.029V37.965H189.381ZM202.102 26.9274H204.806V39.55C204.806 41.0089 204.806 42.0558 204.741 43.1655H204.806C205.476 42.1503 206.342 40.8492 207.537 39.2642L216.529 26.9274H219.168V47.8279H216.438V34.7281C216.438 33.2063 216.464 32.2226 216.503 31.2389H216.438C215.755 32.2542 214.902 33.4921 213.799 35.0139L204.439 47.8279H202.102V26.9274ZM229.368 29.3384H223.54V26.9274H238.518L237.691 29.3384H232.099V47.8279H229.368V29.3384ZM243.901 47.9226V45.48C244.268 45.5766 244.61 45.6081 244.977 45.6081C246.815 45.6081 247.616 44.3387 248.784 41.8645L241.63 26.9274H244.662L250.163 38.8837H250.228L255.23 26.9274H258.197L251.147 42.9113C249.52 46.655 247.708 48.0487 245.214 48.0487C244.885 48.0487 244.295 48.0171 243.901 47.9226ZM258.328 47.9226V45.2908C258.604 45.3539 258.827 45.3539 258.945 45.3539C259.838 45.3539 260.691 44.9103 261.348 43.8003C263.212 40.5024 264.498 32.0018 264.905 26.9274H274.541V47.8279H271.811V29.2418H267.242C266.874 34.0008 265.483 42.0874 263.435 45.5116C262.385 47.2879 260.98 48.0171 259.195 48.0171C259.037 48.0171 258.604 47.9858 258.328 47.9226ZM280.934 26.9274H283.639V39.55C283.639 41.0089 283.639 42.0558 283.573 43.1655H283.639C284.308 42.1503 285.175 40.8492 286.369 39.2642L295.362 26.9274H298V47.8279H295.27V34.7281C295.27 33.2063 295.296 32.2226 295.322 31.2389H295.27C294.587 32.2542 293.734 33.4921 292.631 35.0139L283.271 47.8279H280.934V26.9274Z" fill="black"/>
<path d="M20.7158 0V40.3366H27.9361V7.463H39.0421V21.4016H46.2624V0H20.7158ZM39.0421 40.3359V47.7988H46.2624V28.8638H39.0421V40.3359Z" fill="#001E61"/>
<path d="M39.0423 21.4021H27.9363V28.865H46.2626V21.4021H39.0423Z" fill="#D48232"/>
<path d="M7.22026 40.3371V28.865H20.7156V21.4021H0V47.8H39.0419V40.3371H7.22026Z" fill="#D48232"/>
</g>
</svg>
