<svg width="16" height="16" viewBox="0 0 16 16" fill="none" xmlns="http://www.w3.org/2000/svg">
<rect width="16" height="16" rx="3" fill="#020302"/>
<path d="M8.74125 9.99931H5.93629C5.90107 9.99939 5.86726 9.98905 5.84226 9.97055C5.81727 9.95205 5.80314 9.92691 5.80298 9.90065V9.55976C5.80295 9.54674 5.80637 9.53383 5.81304 9.52179C5.8197 9.50975 5.82949 9.4988 5.84183 9.48958C5.85418 9.48037 5.86884 9.47305 5.88497 9.46806C5.90111 9.46307 5.91841 9.4605 5.93588 9.4605H8.01895C8.05425 9.4605 8.0881 9.45004 8.11307 9.43143C8.13803 9.41281 8.15205 9.38757 8.15205 9.36124V8.35952C8.15207 8.31124 8.12848 8.26462 8.0857 8.22838L6.63478 7.00036C6.62584 6.99281 6.61403 6.98748 6.60093 6.98506C6.58782 6.98263 6.57404 6.98324 6.56141 6.9868C6.54877 6.99036 6.53789 6.99669 6.53021 7.00497C6.52252 7.01325 6.51839 7.02307 6.51836 7.03314V8.18558C6.51836 8.19862 6.51492 8.21152 6.50823 8.22357C6.50154 8.23561 6.49174 8.24655 6.47938 8.25577C6.46702 8.26499 6.45235 8.2723 6.4362 8.27729C6.42005 8.28227 6.40274 8.28484 6.38526 8.28484H5.93629C5.91878 8.28488 5.90144 8.28234 5.88526 8.27737C5.86907 8.2724 5.85436 8.26509 5.84198 8.25587C5.82959 8.24664 5.81977 8.23569 5.81308 8.22363C5.80638 8.21156 5.80295 8.19863 5.80298 8.18558V6.09926C5.80295 6.08621 5.80638 6.07328 5.81308 6.06122C5.81977 6.04916 5.82959 6.0382 5.84198 6.02898C5.85436 6.01975 5.86907 6.01244 5.88526 6.00747C5.90144 6.0025 5.91878 5.99996 5.93629 6H8.73372C8.7512 6 8.76851 6.00257 8.78466 6.00756C8.80081 6.01254 8.81548 6.01986 8.82784 6.02907C8.8402 6.03829 8.85 6.04923 8.85669 6.06128C8.86338 6.07332 8.86683 6.08623 8.86683 6.09926V6.44015C8.86661 6.46637 8.85249 6.49146 8.82755 6.50995C8.80261 6.52843 8.76888 6.53881 8.73372 6.53881H7.24596C7.23319 6.53882 7.22069 6.54157 7.20996 6.54673C7.19923 6.5519 7.19072 6.55925 7.18544 6.56793C7.18016 6.5766 7.17834 6.58622 7.18019 6.59564C7.18205 6.60507 7.1875 6.61389 7.1959 6.62107L8.80373 7.98797C8.8462 8.02409 8.8697 8.07046 8.86988 8.1185L8.87436 9.90065C8.87419 9.92689 8.86009 9.952 8.83514 9.97049C8.81019 9.98899 8.77643 9.99935 8.74125 9.99931Z" fill="#B3EFB2"/>
<path d="M13.7293 7.99965L13.7347 9.89989C13.7348 9.91294 13.7313 9.92587 13.7247 9.93793C13.718 9.94999 13.7082 9.96095 13.6958 9.97018C13.6835 9.97941 13.6688 9.98674 13.6526 9.99174C13.6365 9.99674 13.6191 9.99931 13.6016 9.99931H10.8046C10.7871 9.99931 10.7698 9.99674 10.7536 9.99174C10.7375 9.98674 10.7228 9.97941 10.7104 9.97018C10.6981 9.96095 10.6883 9.94999 10.6816 9.93793C10.6749 9.92587 10.6715 9.91294 10.6715 9.89989L10.677 7.99965L10.6742 7.14834L11.3938 6.53896V9.36109C11.3938 9.37412 11.3973 9.38703 11.4039 9.39907C11.4106 9.41112 11.4204 9.42206 11.4328 9.43128C11.4452 9.44049 11.4598 9.44781 11.476 9.45279C11.4921 9.45778 11.5094 9.46035 11.5269 9.46035H12.8791C12.9144 9.46035 12.9483 9.44989 12.9733 9.43128C12.9982 9.41266 13.0122 9.38741 13.0122 9.36109V6.63822C13.0122 6.61189 12.9982 6.58665 12.9733 6.56803C12.9483 6.54942 12.9144 6.53896 12.8791 6.53896H11.3934L12.0308 6H13.6016C13.6191 6 13.6365 6.00257 13.6526 6.00757C13.6688 6.01257 13.6835 6.01989 13.6958 6.02913C13.7082 6.03836 13.718 6.04932 13.7247 6.06138C13.7313 6.07344 13.7348 6.08637 13.7347 6.09941L13.7293 7.99965Z" fill="#B3EFB2"/>
<path d="M5.16278 9.46338H4.64766C4.59146 9.46338 4.5459 9.49736 4.5459 9.53927V9.92341C4.5459 9.96533 4.59146 9.9993 4.64766 9.9993H5.16278C5.21898 9.9993 5.26454 9.96533 5.26454 9.92341V9.53927C5.26454 9.49736 5.21898 9.46338 5.16278 9.46338Z" fill="#B3EFB2"/>
<path d="M10.0306 9.46338H9.51546C9.45926 9.46338 9.4137 9.49736 9.4137 9.53927V9.92341C9.4137 9.96533 9.45926 9.9993 9.51546 9.9993H10.0306C10.0868 9.9993 10.1323 9.96533 10.1323 9.92341V9.53927C10.1323 9.49736 10.0868 9.46338 10.0306 9.46338Z" fill="#B3EFB2"/>
<path d="M14.8983 9.46338H14.3831C14.3269 9.46338 14.2814 9.49736 14.2814 9.53927V9.92341C14.2814 9.96533 14.3269 9.9993 14.3831 9.9993H14.8983C14.9545 9.9993 15 9.96533 15 9.92341V9.53927C15 9.49736 14.9545 9.46338 14.8983 9.46338Z" fill="#B3EFB2"/>
<path d="M1.13294 8.98833H3.14376C3.17906 8.98833 3.21291 8.99878 3.23787 9.0174C3.26284 9.03601 3.27686 9.06126 3.27686 9.08759V9.90065C3.27686 9.91369 3.2803 9.9266 3.28699 9.93864C3.29368 9.95068 3.30349 9.96163 3.31585 9.97084C3.32821 9.98006 3.34288 9.98737 3.35903 9.99236C3.37518 9.99735 3.39248 9.99992 3.40996 9.99992H3.8738C3.89128 9.99992 3.90858 9.99735 3.92473 9.99236C3.94088 9.98737 3.95555 9.98006 3.96791 9.97084C3.98027 9.96163 3.99008 9.95068 3.99677 9.93864C4.00346 9.9266 4.0069 9.91369 4.0069 9.90065V6.09926C4.0069 6.07294 3.99288 6.04769 3.96791 6.02907C3.94295 6.01046 3.9091 6 3.8738 6H3.4175C3.38219 6 3.34834 6.01046 3.32338 6.02907C3.29841 6.04769 3.28439 6.07294 3.28439 6.09926V8.35026C3.28439 8.37658 3.27037 8.40183 3.2454 8.42045C3.22044 8.43906 3.18659 8.44952 3.15129 8.44952H2.0433C2.0326 8.44951 2.02207 8.44759 2.01258 8.4439C2.00309 8.44021 1.99494 8.43487 1.98881 8.42833C1.98268 8.42179 1.97875 8.41425 1.97736 8.40634C1.97597 8.39843 1.97716 8.39039 1.98082 8.38289L2.55598 7.20389C2.55964 7.1964 2.56083 7.18835 2.55944 7.18044C2.55805 7.17253 2.55412 7.16499 2.54799 7.15845C2.54186 7.15191 2.53371 7.14657 2.52422 7.14288C2.51473 7.13919 2.50419 7.13727 2.4935 7.13726H1.93096C1.90613 7.13738 1.88194 7.14313 1.86162 7.15376C1.84129 7.16439 1.82579 7.17939 1.81719 7.19676L1.00798 8.85522C1.00069 8.8702 0.998347 8.88627 1.00115 8.90207C1.00395 8.91787 1.01181 8.93294 1.02407 8.94599C1.03632 8.95905 1.05262 8.96971 1.07157 8.97708C1.09052 8.98445 1.11157 8.98831 1.13294 8.98833Z" fill="#B3EFB2"/>
</svg>
