<svg width="217" height="50" viewBox="0 0 217 50" fill="none" xmlns="http://www.w3.org/2000/svg">
<rect width="217" height="50" fill="#1E1E1E"/>
<g id="4.5.0 recovery center" clip-path="url(#clip0_0_1)">
<rect width="1440" height="8341" transform="translate(-136 -8267)" fill="#FEFEFE"/>
<g id="&#209;&#132;&#209;&#131;&#209;&#130;&#208;&#181;&#209;&#128;">
<g id="&#208;&#155;&#208;&#190;&#208;&#179;&#208;&#190;&#209;&#130;&#208;&#184;&#208;&#191;" clip-path="url(#clip1_0_1)">
<g id="&#208;&#168;&#208;&#176;&#209;&#128; 2">
<g id="&#208;&#161;&#208;&#187;&#208;&#190;&#208;&#185; 1">
<path id="Vector" d="M72.2701 50H46.0843C45.7556 50.001 45.4399 49.8717 45.2066 49.6404C44.9733 49.4092 44.8414 49.0949 44.8398 48.7666V44.5047C44.8396 44.3419 44.8715 44.1805 44.9337 44.03C44.996 43.8794 45.0873 43.7426 45.2026 43.6274C45.3178 43.5121 45.4547 43.4207 45.6053 43.3583C45.756 43.2959 45.9175 43.2638 46.0805 43.2638H65.527C65.8566 43.2638 66.1727 43.133 66.4057 42.9003C66.6387 42.6676 66.7696 42.3519 66.7696 42.0228V29.4991C66.7698 28.8955 66.5496 28.3126 66.1502 27.8596L52.6051 12.5066C52.5217 12.4123 52.4114 12.3456 52.2891 12.3153C52.1667 12.285 52.0381 12.2926 51.9202 12.3371C51.8022 12.3816 51.7006 12.4608 51.6289 12.5643C51.5571 12.6678 51.5186 12.7906 51.5183 12.9165V27.3245C51.5183 27.4875 51.4862 27.6488 51.4238 27.7994C51.3613 27.95 51.2698 28.0868 51.1544 28.202C51.039 28.3172 50.902 28.4086 50.7513 28.471C50.6005 28.5334 50.4389 28.5655 50.2757 28.5655H46.0843C45.9209 28.566 45.759 28.5342 45.6079 28.4721C45.4569 28.4099 45.3195 28.3185 45.2039 28.2032C45.0883 28.0879 44.9966 27.9509 44.9341 27.8001C44.8716 27.6493 44.8396 27.4877 44.8398 27.3245V1.24099C44.8396 1.07779 44.8716 0.916153 44.9341 0.765352C44.9966 0.614552 45.0883 0.477563 45.2039 0.362252C45.3195 0.246941 45.4569 0.155579 45.6079 0.0934146C45.759 0.0312497 45.9209 -0.00049422 46.0843 5.81675e-06H72.1998C72.363 5.81675e-06 72.5246 0.0321049 72.6754 0.0944703C72.8261 0.156836 72.9631 0.248246 73.0785 0.363482C73.1939 0.478719 73.2854 0.615524 73.3479 0.766087C73.4103 0.916651 73.4424 1.07802 73.4424 1.24099V5.50285C73.4404 5.83067 73.3086 6.14437 73.0758 6.37546C72.843 6.60655 72.5281 6.73625 72.1998 6.73625H58.3108C58.1916 6.73639 58.0749 6.77079 57.9748 6.83534C57.8746 6.89989 57.7951 6.99187 57.7458 7.10029C57.6965 7.20872 57.6795 7.32902 57.6968 7.44683C57.7142 7.56464 57.7651 7.67499 57.8434 7.76471L72.8534 24.8539C73.2499 25.3055 73.4693 25.8852 73.4709 26.4858L73.5127 48.7666C73.5112 49.0946 73.3796 49.4086 73.1467 49.6398C72.9137 49.871 72.5985 50.0005 72.2701 50Z" fill="#020302"/>
<path id="Vector_2" d="M118.835 25L118.887 48.7571C118.887 48.9202 118.855 49.0818 118.793 49.2326C118.73 49.3834 118.639 49.5204 118.523 49.6359C118.408 49.7513 118.271 49.8429 118.12 49.9054C117.969 49.9678 117.807 50 117.644 50H91.5324C91.3691 50 91.2073 49.9678 91.0564 49.9054C90.9056 49.8429 90.7685 49.7513 90.6531 49.6359C90.5377 49.5204 90.4462 49.3834 90.3838 49.2326C90.3215 49.0818 90.2895 48.9202 90.2898 48.7571L90.3411 25L90.3145 14.3567L97.0329 6.73814V42.0209C97.0329 42.1838 97.065 42.3452 97.1275 42.4958C97.1899 42.6463 97.2815 42.7831 97.3968 42.8984C97.5122 43.0136 97.6492 43.105 97.8 43.1674C97.9507 43.2298 98.1123 43.2619 98.2755 43.2619H110.899C111.229 43.2619 111.545 43.1311 111.778 42.8984C112.011 42.6657 112.142 42.35 112.142 42.0209V7.97913C112.142 7.65 112.011 7.33435 111.778 7.10162C111.545 6.86889 111.229 6.73814 110.899 6.73814H97.0291L102.98 0H117.644C117.807 -1.90696e-07 117.969 0.0321617 118.12 0.0946457C118.271 0.15713 118.408 0.24871 118.523 0.364147C118.639 0.479585 118.73 0.616614 118.793 0.767397C118.855 0.918179 118.887 1.07976 118.887 1.24288L118.835 25Z" fill="#020302"/>
<path id="Vector_3" d="M38.8624 43.3003H34.0535C33.5288 43.3003 33.1035 43.7251 33.1035 44.2491V49.0517C33.1035 49.5757 33.5288 50.0005 34.0535 50.0005H38.8624C39.3871 50.0005 39.8124 49.5757 39.8124 49.0517V44.2491C39.8124 43.7251 39.3871 43.3003 38.8624 43.3003Z" fill="#020302"/>
<path id="Vector_4" d="M84.3067 43.3003H79.4979C78.9732 43.3003 78.5479 43.7251 78.5479 44.2491V49.0517C78.5479 49.5757 78.9732 50.0005 79.4979 50.0005H84.3067C84.8314 50.0005 85.2567 49.5757 85.2567 49.0517V44.2491C85.2567 43.7251 84.8314 43.3003 84.3067 43.3003Z" fill="#020302"/>
<path id="Vector_5" d="M129.749 43.3003H124.94C124.416 43.3003 123.99 43.7251 123.99 44.2491V49.0517C123.99 49.5757 124.416 50.0005 124.94 50.0005H129.749C130.274 50.0005 130.699 49.5757 130.699 49.0517V44.2491C130.699 43.7251 130.274 43.3003 129.749 43.3003Z" fill="#020302"/>
<path id="Vector_6" d="M1.24278 37.3605H20.0148C20.3443 37.3605 20.6604 37.4913 20.8934 37.724C21.1265 37.9567 21.2574 38.2724 21.2574 38.6015V48.7666C21.2574 48.9296 21.2895 49.091 21.352 49.2415C21.4144 49.3921 21.5059 49.5289 21.6213 49.6441C21.7367 49.7594 21.8737 49.8508 22.0244 49.9131C22.1752 49.9755 22.3368 50.0076 22.5 50.0076H26.8301C26.9933 50.0076 27.1548 49.9755 27.3056 49.9131C27.4564 49.8508 27.5933 49.7594 27.7087 49.6441C27.8241 49.5289 27.9156 49.3921 27.9781 49.2415C28.0405 49.091 28.0727 48.9296 28.0727 48.7666V1.24099C28.0727 0.911857 27.9418 0.596207 27.7087 0.363477C27.4757 0.130746 27.1596 0 26.8301 0H22.5703C22.2407 0 21.9247 0.130746 21.6916 0.363477C21.4586 0.596207 21.3277 0.911857 21.3277 1.24099V29.3833C21.3277 29.7124 21.1968 30.0281 20.9637 30.2608C20.7307 30.4935 20.4146 30.6243 20.0851 30.6243H9.74148C9.6416 30.6242 9.54322 30.6001 9.45466 30.554C9.3661 30.5079 9.28998 30.4411 9.23274 30.3594C9.17551 30.2777 9.13885 30.1833 9.12587 30.0844C9.11289 29.9855 9.12397 29.885 9.15818 29.7913L14.5276 15.0512C14.5618 14.9575 14.5729 14.857 14.5599 14.7581C14.5469 14.6592 14.5102 14.5649 14.453 14.4831C14.3958 14.4014 14.3196 14.3346 14.2311 14.2885C14.1425 14.2424 14.0441 14.2183 13.9443 14.2182H8.69268C8.46092 14.2197 8.23511 14.2917 8.04536 14.4246C7.85561 14.5574 7.71092 14.7449 7.63058 14.9621L0.0761772 35.6964C0.0081466 35.8837 -0.0137206 36.0846 0.0124247 36.2822C0.03857 36.4797 0.111959 36.6681 0.226386 36.8313C0.340813 36.9945 0.492914 37.1278 0.669826 37.2199C0.846739 37.3121 1.04326 37.3603 1.24278 37.3605Z" fill="#020302"/>
<path id="Vector_7" d="M139.62 0.224121V2.0875C140.183 0.845247 141.143 0.224121 142.5 0.224121H143.971V1.55239H142.544C141.415 1.55239 140.661 1.88636 140.281 2.55429C139.901 3.22222 139.704 4.40186 139.69 6.09319V10.2469H138.151V0.224121H139.62Z" fill="#020302"/>
<path id="Vector_8" d="M144.457 5.25632C144.457 3.69655 144.911 2.43153 145.817 1.46126C146.724 0.490985 147.98 0.00395166 149.585 0.00015659C150.422 -0.0208677 151.251 0.162841 152 0.535261C152.638 0.851855 153.18 1.33182 153.571 1.92615C153.912 2.44528 154.164 3.01723 154.318 3.61875C154.441 4.11106 154.507 4.61603 154.514 5.1235C154.513 5.33933 154.498 5.55489 154.468 5.76866H146.04C146.101 6.80851 146.428 7.64405 147.022 8.2753C147.616 8.90655 148.478 9.2228 149.608 9.22407C150.055 9.23118 150.5 9.15989 150.923 9.01344C151.255 8.90575 151.56 8.72703 151.816 8.48972C152.009 8.2986 152.185 8.09028 152.34 7.86733C152.454 7.70911 152.547 7.53693 152.618 7.355L152.684 7.13109H154.312C154.297 7.22027 154.271 7.33982 154.234 7.48782C154.137 7.76756 154.009 8.03601 153.854 8.28858C153.645 8.66849 153.378 9.01406 153.064 9.31325C152.659 9.66674 152.189 9.93922 151.681 10.1159C151.012 10.3627 150.304 10.483 149.591 10.4707C148.016 10.4707 146.768 10.0033 145.846 9.06847C144.924 8.13362 144.461 6.8629 144.457 5.25632ZM146.04 4.49731H152.929V4.36448C152.932 3.55585 152.621 2.77755 152.061 2.19371C151.481 1.56119 150.663 1.24494 149.608 1.24494C148.524 1.24494 147.676 1.56119 147.066 2.19371C146.462 2.81714 146.098 3.63384 146.04 4.49921V4.49731Z" fill="#020302"/>
<path id="Vector_9" d="M157.255 1.42505C158.205 0.475016 159.484 4.99655e-07 161.09 4.99655e-07C161.823 -0.0125811 162.554 0.0964243 163.252 0.322581C163.771 0.479 164.251 0.74496 164.658 1.10247C164.941 1.3764 165.196 1.6784 165.418 2.0038C165.587 2.23192 165.712 2.48926 165.786 2.76281L165.853 3.09677H164.181L164.114 2.90702C164.043 2.7482 163.953 2.59848 163.847 2.4611C163.701 2.2505 163.527 2.06087 163.33 1.89753C163.058 1.69706 162.752 1.54611 162.427 1.45161C161.998 1.3133 161.549 1.24537 161.097 1.25047C159.997 1.25047 159.11 1.61037 158.437 2.33017C157.765 3.04997 157.426 4.0038 157.423 5.19165C157.423 6.37951 157.765 7.34851 158.449 8.09867C158.783 8.46835 159.195 8.76046 159.654 8.95451C160.114 9.14857 160.61 9.23987 161.109 9.22201C161.567 9.22573 162.021 9.14533 162.45 8.98482C162.791 8.86614 163.102 8.67664 163.364 8.42884C163.559 8.23022 163.732 8.00994 163.877 7.7723C163.988 7.5993 164.071 7.40969 164.122 7.21063L164.189 6.96584H165.87C165.855 7.05503 165.83 7.18216 165.792 7.34535C165.703 7.63835 165.583 7.92132 165.435 8.18975C165.243 8.58313 164.987 8.94117 164.675 9.24858C164.263 9.61278 163.786 9.89605 163.269 10.0835C162.579 10.348 161.845 10.4769 161.107 10.463C159.485 10.463 158.2 9.98798 157.25 9.03795C156.3 8.08792 155.817 6.80455 155.8 5.18786C155.8 3.62682 156.285 2.37255 157.255 1.42505Z" fill="#020302"/>
<path id="Vector_10" d="M168.469 1.47059C169.452 0.490196 170.767 0 172.415 0C174.063 0 175.379 0.490196 176.362 1.47059C177.347 2.44972 177.84 3.70398 177.84 5.2334C177.84 6.79064 177.353 8.05566 176.379 9.02846C175.405 10.0013 174.085 10.4832 172.421 10.4744C170.774 10.4744 169.459 9.98862 168.475 9.01708C167.491 8.04554 167 6.78748 167.004 5.24288C167 3.70715 167.489 2.44972 168.469 1.47059ZM168.581 5.2334C168.581 6.43643 168.927 7.40101 169.619 8.12714C170.31 8.85326 171.242 9.21695 172.415 9.21822C173.574 9.21822 174.503 8.85452 175.203 8.12714C175.902 7.39975 176.251 6.43517 176.251 5.2334C176.251 4.06072 175.906 3.1031 175.214 2.36053C174.522 1.61796 173.59 1.24668 172.415 1.24668C171.256 1.24668 170.327 1.61796 169.628 2.36053C168.929 3.1031 168.58 4.06072 168.581 5.2334Z" fill="#020302"/>
<path id="Vector_11" d="M179.818 0.224121L183.297 8.59604L186.819 0.224121H188.469L184.165 10.2469H182.455L178.169 0.224121H179.818Z" fill="#020302"/>
<path id="Vector_12" d="M188.803 5.25619C188.803 3.69642 189.256 2.4314 190.163 1.46112C191.07 0.490852 192.326 0.00381802 193.931 2.29579e-05C194.766 -0.0200698 195.593 0.163614 196.34 0.535127C196.978 0.851722 197.52 1.33169 197.912 1.92602C198.252 2.44515 198.505 3.0171 198.658 3.61862C198.78 4.11052 198.843 4.61485 198.848 5.12147C198.848 5.33726 198.834 5.55282 198.805 5.76663H190.38C190.441 6.80647 190.768 7.64202 191.362 8.27327C191.956 8.90451 192.818 9.22077 193.948 9.22203C194.395 9.22915 194.84 9.15786 195.263 9.01141C195.595 8.90371 195.9 8.72499 196.156 8.48769C196.349 8.29706 196.524 8.08868 196.678 7.8653C196.794 7.70757 196.888 7.5353 196.958 7.35296L197.024 7.12906H198.653C198.637 7.21824 198.611 7.33778 198.575 7.48579C198.477 7.76552 198.35 8.03398 198.195 8.28655C197.985 8.66646 197.719 9.01203 197.404 9.31122C196.999 9.66429 196.529 9.93672 196.021 10.1139C195.352 10.3607 194.644 10.481 193.931 10.4687C192.355 10.4687 191.107 10.0013 190.186 9.06644C189.265 8.13159 188.804 6.8615 188.803 5.25619ZM190.386 4.49718H197.275V4.36435C197.278 3.55571 196.967 2.77742 196.407 2.19357C195.827 1.56106 195.009 1.2448 193.954 1.2448C192.87 1.2448 192.022 1.56106 191.412 2.19357C190.805 2.8157 190.439 3.63276 190.38 4.49907L190.386 4.49718Z" fill="#020302"/>
<path id="Vector_13" d="M202.048 0.223954V2.08733C202.613 0.841285 203.571 0.218262 204.922 0.218262H206.395V1.54654H204.968C203.838 1.54654 203.084 1.8805 202.705 2.54843C202.326 3.21636 202.129 4.396 202.114 6.08733V10.2467H200.575V0.223954H202.048Z" fill="#020302"/>
<path id="Vector_14" d="M207.33 0.224121H208.981L212.146 8.32848L215.469 0.224121H217.141L212.124 12.2924C211.934 12.7213 211.797 13.0078 211.723 13.1482C211.606 13.3528 211.472 13.5471 211.322 13.7289C211.149 13.9588 210.906 14.1266 210.63 14.207C210.294 14.2885 209.95 14.3255 209.604 14.3171H207.894V12.9888H209.604C209.769 12.9982 209.934 12.9676 210.085 12.8996C210.168 12.8632 210.241 12.8056 210.296 12.7327C210.326 12.6808 210.4 12.5366 210.518 12.3L211.434 10.0951L207.33 0.224121Z" fill="#020302"/>
<path id="Vector_15" d="M139.597 17.6189C140.548 16.6702 141.827 16.1951 143.433 16.1939C144.167 16.1811 144.897 16.2908 145.595 16.5184C146.114 16.6734 146.593 16.9388 146.999 17.2963C147.285 17.571 147.543 17.8736 147.769 18.1996C147.937 18.4277 148.062 18.6851 148.137 18.9586L148.204 19.2925H146.532L146.465 19.0914C146.394 18.9326 146.304 18.7829 146.197 18.6455C146.048 18.4379 145.872 18.251 145.673 18.0895C145.403 17.8925 145.101 17.7429 144.78 17.6474C144.35 17.514 143.901 17.4499 143.45 17.4576C142.351 17.4576 141.464 17.8175 140.79 18.5373C140.116 19.2571 139.778 20.211 139.775 21.3988C139.775 22.5867 140.117 23.555 140.801 24.3039C141.136 24.674 141.547 24.9664 142.007 25.1608C142.466 25.3552 142.963 25.4468 143.461 25.4292C143.925 25.4357 144.386 25.3559 144.82 25.1939C145.161 25.0756 145.473 24.8861 145.736 24.6379C145.93 24.4391 146.102 24.2189 146.247 23.9813C146.359 23.8103 146.443 23.6218 146.494 23.4235L146.56 23.1787H148.2C148.185 23.2679 148.158 23.395 148.122 23.5582C148.032 23.8515 147.912 24.1351 147.765 24.4045C147.569 24.7972 147.309 25.1545 146.995 25.4614C146.585 25.8263 146.108 26.1096 145.591 26.2963C144.902 26.5607 144.168 26.6896 143.429 26.6758C141.809 26.6758 140.523 26.2008 139.57 25.2508C138.618 24.3008 138.142 23.0168 138.143 21.3988C138.146 19.8289 138.63 18.569 139.597 17.6189Z" fill="#020302"/>
<path id="Vector_16" d="M149.34 21.4424C149.34 19.8827 149.794 18.6177 150.7 17.6474C151.607 16.6771 152.864 16.1926 154.47 16.1939C155.305 16.1738 156.132 16.3575 156.879 16.729C157.517 17.0456 158.059 17.5255 158.451 18.1199C158.791 18.6392 159.043 19.2111 159.197 19.8125C159.322 20.304 159.39 20.8083 159.399 21.3153C159.398 21.5318 159.383 21.748 159.353 21.9624H150.923C150.984 22.9997 151.311 23.8346 151.905 24.4671C152.499 25.0996 153.361 25.4159 154.491 25.4159C154.938 25.4233 155.384 25.3514 155.806 25.2034C156.138 25.0957 156.443 24.9169 156.699 24.6796C156.892 24.489 157.067 24.2806 157.221 24.0572C157.337 23.8995 157.431 23.7272 157.501 23.5449L157.567 23.321H159.195C159.18 23.4102 159.154 23.5297 159.117 23.6777C159.02 23.9581 158.893 24.2272 158.737 24.4804C158.528 24.8594 158.261 25.2043 157.947 25.5032C157.541 25.8562 157.072 26.1287 156.564 26.3058C155.895 26.5533 155.187 26.6743 154.474 26.6626C152.899 26.6626 151.651 26.1945 150.729 25.2584C149.807 24.3223 149.344 23.0503 149.34 21.4424ZM150.923 20.6834H157.812V20.5487C157.812 19.7428 157.499 18.9683 156.94 18.3874C156.361 17.7549 155.544 17.4387 154.487 17.4387C153.402 17.4387 152.554 17.7549 151.945 18.3874C151.343 19.0117 150.981 19.8282 150.923 20.6929V20.6834Z" fill="#020302"/>
<path id="Vector_17" d="M162.585 16.4179V18.3155C162.863 17.6946 163.321 17.1711 163.9 16.8126C164.524 16.4154 165.249 16.2029 165.99 16.1997H166.079C167.58 16.1997 168.68 16.5893 169.379 17.3686C170.078 18.1478 170.429 19.3376 170.43 20.9378V26.4407H168.872V20.9378C168.872 19.7196 168.649 18.8436 168.203 18.3098C167.757 17.7759 167.029 17.509 166.018 17.509C164.992 17.509 164.174 17.817 163.565 18.4331C162.956 19.0492 162.651 20.0175 162.651 21.3382V26.4369H161.12V16.4179H162.585Z" fill="#020302"/>
<path id="Vector_18" d="M171.614 16.4175H173.219V13.501H174.758V16.4175H177.589V17.7458H174.758V24.4478C174.738 24.6275 174.781 24.8086 174.88 24.9602C174.947 25.0128 175.024 25.0516 175.106 25.0744C175.188 25.0972 175.274 25.1035 175.358 25.093H177.523V26.4213H175.358C174.572 26.4213 174.017 26.2809 173.698 25.9981C173.379 25.7154 173.219 25.1974 173.219 24.4403V17.7533H171.614V16.4175Z" fill="#020302"/>
<path id="Vector_19" d="M192.392 16.4175V18.2866C192.958 17.0392 193.917 16.4162 195.269 16.4175H196.741V17.7458H195.32C194.189 17.7458 193.434 18.0797 193.057 18.7477C192.68 19.4156 192.484 20.5984 192.47 22.296V26.4365H190.931V16.4175H192.392Z" fill="#020302"/>
<path id="Vector_20" d="M179.037 21.4422C179.037 19.8824 179.49 18.6174 180.397 17.6471C181.304 16.6768 182.56 16.1904 184.165 16.1879C185.002 16.1686 185.831 16.3543 186.58 16.7287C187.219 17.0439 187.761 17.5242 188.151 18.1196C188.492 18.6388 188.745 19.2107 188.9 19.8122C189.024 20.3037 189.091 20.8081 189.099 21.315C189.098 21.5314 189.084 21.7475 189.056 21.9621H180.62C180.679 22.9994 181.006 23.8343 181.6 24.4668C182.194 25.0993 183.057 25.4156 184.188 25.4156C184.635 25.4229 185.08 25.3509 185.503 25.2031C185.834 25.0954 186.138 24.9167 186.394 24.6793C186.588 24.4892 186.764 24.2808 186.918 24.057C187.032 23.8983 187.126 23.7262 187.197 23.5446L187.264 23.3207H188.892C188.877 23.4099 188.85 23.5294 188.812 23.6774C188.715 23.958 188.588 24.2271 188.432 24.4801C187.973 25.3478 187.193 26.0026 186.259 26.3055C185.59 26.5529 184.882 26.6738 184.169 26.6623C182.592 26.6623 181.343 26.1942 180.422 25.2581C179.501 24.322 179.039 23.05 179.037 21.4422ZM180.62 20.6831H187.509V20.5484C187.511 19.7396 187.2 18.9613 186.639 18.3776C186.06 17.7451 185.243 17.4289 184.188 17.4289C183.101 17.4289 182.254 17.7451 181.646 18.3776C181.039 19.0032 180.676 19.8238 180.62 20.6926V20.6831Z" fill="#020302"/>
</g>
</g>
</g>
</g>
</g>
<defs>
<clipPath id="clip0_0_1">
<rect width="1440" height="8341" fill="white" transform="translate(-136 -8267)"/>
</clipPath>
<clipPath id="clip1_0_1">
<rect width="217" height="50" fill="white"/>
</clipPath>
</defs>
</svg>
