<svg width="604" height="232" viewBox="0 0 604 232" fill="none" xmlns="http://www.w3.org/2000/svg">
<path d="M333.979 231.529H212.965C211.446 231.534 209.987 230.935 208.909 229.864C207.831 228.793 207.221 227.338 207.214 225.818V206.083C207.213 205.329 207.36 204.581 207.648 203.884C207.936 203.187 208.358 202.554 208.89 202.02C209.423 201.486 210.055 201.063 210.751 200.774C211.448 200.485 212.194 200.336 212.948 200.336H302.817C304.34 200.336 305.801 199.731 306.878 198.653C307.954 197.576 308.56 196.114 308.56 194.59V136.598C308.56 133.803 307.543 131.104 305.697 129.006L243.1 57.913C242.714 57.4763 242.205 57.1673 241.64 57.0271C241.074 56.8869 240.48 56.9221 239.935 57.128C239.39 57.3339 238.92 57.7008 238.589 58.18C238.257 58.6592 238.079 59.228 238.078 59.8109V126.528C238.078 127.283 237.929 128.03 237.641 128.727C237.352 129.424 236.929 130.058 236.396 130.592C235.863 131.125 235.23 131.548 234.533 131.837C233.836 132.126 233.089 132.275 232.335 132.275H212.965C212.21 132.277 211.462 132.13 210.764 131.842C210.065 131.554 209.431 131.131 208.896 130.597C208.362 130.063 207.938 129.429 207.65 128.731C207.361 128.032 207.213 127.284 207.214 126.528V5.74648C207.213 4.99078 207.361 4.24229 207.65 3.54399C207.938 2.8457 208.362 2.21136 208.896 1.67741C209.431 1.14345 210.065 0.720393 210.764 0.432533C211.462 0.144674 212.21 -0.00231904 212.965 -3.58265e-06H333.654C334.409 -3.58265e-06 335.155 0.148634 335.852 0.437422C336.549 0.72621 337.182 1.14949 337.715 1.6831C338.248 2.21671 338.671 2.8502 338.96 3.5474C339.248 4.2446 339.397 4.99185 339.397 5.74648V25.4814C339.388 26.9993 338.779 28.452 337.703 29.522C336.627 30.5921 335.171 31.1927 333.654 31.1927H269.468C268.917 31.1934 268.378 31.3526 267.915 31.6515C267.452 31.9505 267.085 32.3764 266.857 32.8784C266.629 33.3805 266.551 33.9376 266.631 34.4831C266.711 35.0287 266.946 35.5396 267.308 35.9551L336.675 115.088C338.507 117.179 339.521 119.863 339.529 122.644L339.722 225.818C339.715 227.336 339.106 228.79 338.03 229.861C336.954 230.931 335.497 231.531 333.979 231.529Z" fill="#B3EFB2" fill-opacity="0.15"/>
<path d="M549.174 115.764L549.411 225.774C549.412 226.529 549.264 227.277 548.976 227.975C548.688 228.674 548.266 229.308 547.732 229.843C547.199 230.377 546.565 230.801 545.868 231.091C545.171 231.38 544.423 231.529 543.669 231.529H422.997C422.242 231.529 421.495 231.38 420.797 231.091C420.1 230.801 419.467 230.377 418.933 229.843C418.4 229.308 417.977 228.674 417.689 227.975C417.401 227.277 417.253 226.529 417.254 225.774L417.491 115.764L417.369 66.48L448.417 31.2015V194.581C448.417 195.336 448.565 196.083 448.854 196.78C449.142 197.477 449.565 198.111 450.099 198.644C450.632 199.178 451.265 199.601 451.962 199.89C452.658 200.179 453.405 200.327 454.159 200.327H512.497C514.02 200.327 515.481 199.722 516.558 198.644C517.635 197.567 518.24 196.105 518.24 194.581V36.948C518.24 35.4239 517.635 33.9623 516.558 32.8846C515.481 31.8069 514.02 31.2015 512.497 31.2015H448.399L475.9 -3.05176e-05H543.669C544.423 -3.14006e-05 545.171 0.148897 545.868 0.438234C546.565 0.727571 547.199 1.15164 547.732 1.68618C548.266 2.22072 548.688 2.85525 548.976 3.55346C549.264 4.25167 549.412 4.99987 549.411 5.75525L549.174 115.764Z" fill="#B3EFB2" fill-opacity="0.15"/>
<path d="M179.59 200.504H157.367C154.942 200.504 152.976 202.471 152.976 204.897V227.137C152.976 229.563 154.942 231.53 157.367 231.53H179.59C182.015 231.53 183.981 229.563 183.981 227.137V204.897C183.981 202.471 182.015 200.504 179.59 200.504Z" fill="#B3EFB2" fill-opacity="0.15"/>
<path d="M389.604 200.504H367.381C364.956 200.504 362.99 202.471 362.99 204.897V227.137C362.99 229.563 364.956 231.53 367.381 231.53H389.604C392.029 231.53 393.995 229.563 393.995 227.137V204.897C393.995 202.471 392.029 200.504 389.604 200.504Z" fill="#B3EFB2" fill-opacity="0.15"/>
<path d="M599.61 200.504H577.386C574.961 200.504 572.996 202.471 572.996 204.897V227.137C572.996 229.563 574.961 231.53 577.386 231.53H599.61C602.034 231.53 604 229.563 604 227.137V204.897C604 202.471 602.034 200.504 599.61 200.504Z" fill="#B3EFB2" fill-opacity="0.15"/>
<path d="M5.73542 173.002H92.4876C94.0106 173.002 95.4712 173.607 96.5482 174.685C97.6251 175.762 98.2301 177.224 98.2301 178.748V225.818C98.2301 226.573 98.3787 227.32 98.6672 228.017C98.9558 228.715 99.3788 229.348 99.9121 229.882C100.445 230.415 101.078 230.839 101.775 231.127C102.472 231.416 103.219 231.565 103.973 231.565H123.984C124.738 231.565 125.484 231.416 126.181 231.127C126.878 230.839 127.511 230.415 128.044 229.882C128.577 229.348 129 228.715 129.289 228.017C129.578 227.32 129.726 226.573 129.726 225.818V5.7471C129.726 4.22304 129.121 2.76139 128.044 1.68372C126.967 0.606042 125.507 0.000610352 123.984 0.000610352H104.298C102.774 0.000610352 101.314 0.606042 100.237 1.68372C99.16 2.76139 98.555 4.22304 98.555 5.7471V136.062C98.555 137.586 97.95 139.048 96.8731 140.126C95.7961 141.203 94.3355 141.809 92.8125 141.809H45.011C44.5494 141.809 44.0948 141.697 43.6855 141.483C43.2763 141.27 42.9245 140.961 42.66 140.582C42.3954 140.204 42.226 139.767 42.166 139.309C42.106 138.851 42.1573 138.385 42.3153 137.951L67.1293 69.6966C67.2874 69.2626 67.3386 68.797 67.2786 68.339C67.2186 67.8811 67.0492 67.4443 66.7847 67.0658C66.5202 66.6873 66.1684 66.3782 65.7591 66.1647C65.3499 65.9512 64.8952 65.8395 64.4336 65.8392H40.1641C39.0931 65.846 38.0495 66.1793 37.1726 66.7946C36.2957 67.41 35.627 68.2782 35.2558 69.2836L0.344145 165.296C0.0297505 166.163 -0.0713057 167.093 0.0495213 168.008C0.170348 168.923 0.509505 169.795 1.03831 170.551C1.56712 171.307 2.27003 171.924 3.08761 172.351C3.90519 172.777 4.81339 173 5.73542 173.002Z" fill="#B3EFB2" fill-opacity="0.15"/>
</svg>
