<svg width="158" height="60" viewBox="0 0 158 60" fill="none" xmlns="http://www.w3.org/2000/svg">
<path d="M87.3654 59.9905H55.7094C55.312 59.9917 54.9304 59.8366 54.6483 59.5591C54.3662 59.2816 54.2068 58.9046 54.205 58.5107V53.3972C54.2047 53.2018 54.2432 53.0083 54.3185 52.8276C54.3937 52.647 54.5041 52.4828 54.6435 52.3445C54.7828 52.2062 54.9482 52.0965 55.1303 52.0217C55.3125 51.9468 55.5077 51.9083 55.7048 51.9083H79.2137C79.6121 51.9083 79.9942 51.7514 80.2759 51.4722C80.5576 51.193 80.7159 50.8142 80.7159 50.4193V35.3933C80.7161 34.6691 80.4498 33.9697 79.9671 33.4262L63.5924 15.0056C63.4915 14.8924 63.3582 14.8124 63.2103 14.776C63.0624 14.7397 62.9069 14.7488 62.7643 14.8022C62.6218 14.8556 62.499 14.9506 62.4122 15.0748C62.3255 15.1989 62.2789 15.3463 62.2786 15.4974V32.7842C62.2786 32.9797 62.2397 33.1733 62.1642 33.354C62.0887 33.5346 61.9781 33.6988 61.8386 33.837C61.6991 33.9753 61.5335 34.085 61.3513 34.1598C61.169 34.2346 60.9737 34.2731 60.7764 34.2731H55.7094C55.5119 34.2737 55.3162 34.2356 55.1335 34.1611C54.9509 34.0865 54.7849 33.9769 54.6451 33.8385C54.5053 33.7002 54.3944 33.5358 54.3189 33.3549C54.2434 33.1739 54.2047 32.98 54.205 32.7842V1.48896C54.2047 1.29315 54.2434 1.09921 54.3189 0.918277C54.3944 0.737345 54.5053 0.572985 54.6451 0.434633C54.7849 0.296282 54.9509 0.186666 55.1335 0.11208C55.3162 0.0374937 55.5119 -0.00059297 55.7094 6.979e-06H87.2804C87.4777 6.979e-06 87.673 0.0385198 87.8553 0.113346C88.0375 0.188173 88.2031 0.297848 88.3426 0.43611C88.4821 0.574371 88.5928 0.738512 88.6683 0.919159C88.7438 1.09981 88.7826 1.29342 88.7826 1.48896V6.60238C88.7802 6.99569 88.6208 7.37207 88.3394 7.64934C88.0579 7.9266 87.6772 8.08222 87.2804 8.08222H70.49C70.3459 8.08238 70.2049 8.12366 70.0837 8.20111C69.9626 8.27855 69.8665 8.38891 69.807 8.519C69.7474 8.6491 69.7269 8.79343 69.7478 8.93478C69.7687 9.07614 69.8302 9.20853 69.925 9.31618L88.0706 29.82C88.5499 30.3618 88.815 31.0573 88.8171 31.7779L88.8676 58.5107C88.8658 58.9042 88.7066 59.2809 88.425 59.5583C88.1435 59.8357 87.7624 59.9911 87.3654 59.9905Z" fill="#B3EFB2" fill-opacity="0.15"/>
<path d="M143.658 29.9952L143.72 58.4993C143.72 58.695 143.682 58.8889 143.606 59.0698C143.531 59.2507 143.421 59.4151 143.281 59.5536C143.142 59.6921 142.976 59.802 142.793 59.8769C142.611 59.9519 142.415 59.9905 142.218 59.9905H110.652C110.454 59.9905 110.259 59.9519 110.076 59.8769C109.894 59.802 109.728 59.6921 109.589 59.5536C109.449 59.4151 109.338 59.2507 109.263 59.0698C109.188 58.8889 109.149 58.695 109.149 58.4993L109.211 29.9952L109.179 17.2254L117.301 8.08449V50.4171C117.301 50.6126 117.34 50.8062 117.415 50.9869C117.491 51.1675 117.602 51.3316 117.741 51.4699C117.881 51.6082 118.046 51.7178 118.228 51.7927C118.411 51.8675 118.606 51.906 118.803 51.906H134.064C134.462 51.906 134.844 51.7491 135.126 51.4699C135.408 51.1907 135.566 50.812 135.566 50.4171V9.57344C135.566 9.17854 135.408 8.79982 135.126 8.52059C134.844 8.24136 134.462 8.08449 134.064 8.08449H117.297L124.49 0H142.218C142.415 -2.288e-07 142.611 0.0385879 142.793 0.113557C142.976 0.188526 143.142 0.298405 143.281 0.436907C143.421 0.57541 143.531 0.73982 143.606 0.92073C143.682 1.10164 143.72 1.2955 143.72 1.49123L143.658 29.9952Z" fill="#B3EFB2" fill-opacity="0.15"/>
<path d="M46.9789 51.9518H41.1654C40.5311 51.9518 40.017 52.4614 40.017 53.0901V58.8524C40.017 59.4811 40.5311 59.9907 41.1654 59.9907H46.9789C47.6132 59.9907 48.1274 59.4811 48.1274 58.8524V53.0901C48.1274 52.4614 47.6132 51.9518 46.9789 51.9518Z" fill="#B3EFB2" fill-opacity="0.15"/>
<path d="M101.916 51.9518H96.1029C95.4686 51.9518 94.9545 52.4614 94.9545 53.0901V58.8524C94.9545 59.4811 95.4686 59.9907 96.1029 59.9907H101.916C102.551 59.9907 103.065 59.4811 103.065 58.8524V53.0901C103.065 52.4614 102.551 51.9518 101.916 51.9518Z" fill="#B3EFB2" fill-opacity="0.15"/>
<path d="M156.851 51.9518H151.038C150.404 51.9518 149.89 52.4614 149.89 53.0901V58.8524C149.89 59.4811 150.404 59.9907 151.038 59.9907H156.851C157.486 59.9907 158 59.4811 158 58.8524V53.0901C158 52.4614 157.486 51.9518 156.851 51.9518Z" fill="#B3EFB2" fill-opacity="0.15"/>
<path d="M1.50033 44.8262H24.1938C24.5922 44.8262 24.9743 44.983 25.256 45.2623C25.5377 45.5415 25.696 45.9202 25.696 46.3151V58.5113C25.696 58.7068 25.7348 58.9004 25.8103 59.0811C25.8858 59.2617 25.9964 59.4259 26.1359 59.5641C26.2754 59.7024 26.441 59.8121 26.6233 59.8869C26.8055 59.9617 27.0009 60.0002 27.1981 60.0002H32.4328C32.6301 60.0002 32.8254 59.9617 33.0076 59.8869C33.1899 59.8121 33.3555 59.7024 33.495 59.5641C33.6345 59.4259 33.7451 59.2617 33.8206 59.0811C33.8961 58.9004 33.935 58.7068 33.935 58.5113V1.48956C33.935 1.09467 33.7767 0.715945 33.495 0.436713C33.2133 0.157481 32.8312 0.000610352 32.4328 0.000610352H27.2831C26.8847 0.000610352 26.5026 0.157481 26.2209 0.436713C25.9392 0.715945 25.7809 1.09467 25.7809 1.48956V35.255C25.7809 35.6499 25.6227 36.0286 25.341 36.3078C25.0593 36.5871 24.6772 36.7439 24.2788 36.7439H11.7744C11.6537 36.7439 11.5347 36.7149 11.4277 36.6596C11.3206 36.6043 11.2286 36.5242 11.1594 36.4261C11.0902 36.328 11.0459 36.2149 11.0302 36.0962C11.0145 35.9776 11.0279 35.8569 11.0692 35.7445L17.5603 18.0592C17.6017 17.9468 17.6151 17.8261 17.5994 17.7075C17.5837 17.5888 17.5394 17.4757 17.4702 17.3776C17.401 17.2795 17.3089 17.1994 17.2019 17.1441C17.0948 17.0888 16.9759 17.0599 16.8552 17.0598H10.5065C10.2263 17.0615 9.95336 17.1479 9.72396 17.3073C9.49457 17.4668 9.31965 17.6917 9.22253 17.9522L0.0900246 42.8295C0.00778242 43.0542 -0.0186528 43.2953 0.0129542 43.5323C0.0445613 43.7693 0.133281 43.9953 0.271612 44.1912C0.409943 44.387 0.593817 44.5469 0.807687 44.6575C1.02156 44.768 1.25913 44.8259 1.50033 44.8262Z" fill="#B3EFB2" fill-opacity="0.15"/>
</svg>
